<?xml version="1.0" encoding="UTF-8"?>
<svg xmlns="http://www.w3.org/2000/svg" xmlns:xlink="http://www.w3.org/1999/xlink" id="Layer_1" data-name="Layer 1" viewBox="0 0 500 500">
  <defs>
    <style>.cls-1{fill:none;}.cls-2{clip-path:url(#clip-path);}.cls-3,.cls-5{fill:#fff;}.cls-4{fill:#040302;}.cls-4,.cls-5,.cls-6,.cls-7{fill-rule:evenodd;}.cls-6{fill:#e11f28;}.cls-7{fill:#d11835;}</style>
    <clipPath id="clip-path">
      <rect class="cls-1" x="-47.64" y="-47.64" width="595.28" height="595.28"></rect>
    </clipPath>
  </defs>
  <title>logo</title>
  <g class="cls-2">
    <g class="cls-2">
      <path class="cls-3" d="M481.28,217.05a15.06,15.06,0,0,0-6.13-7.3,54.7,54.7,0,0,0-9-4.32,70,70,0,0,0-18.32-4.13c-.1-1.17-.22-2.32-.34-3.46l0-.15a95.76,95.76,0,0,0-9.45-32,135.06,135.06,0,0,0-33.68-42.6c-11-9.08-21.16-15-32.06-18.79a87.29,87.29,0,0,0-25.18-4.55c-.32,0-.66,0-1,0-1.12,0-2.17.07-3.1.13l-1.56.09A83.61,83.61,0,0,0,322,103.08a111.21,111.21,0,0,0-34.94,17,149,149,0,0,0-23.37,20.42,67.38,67.38,0,0,0-7.91-.6l-.62,0c-2.37,0-4.82-.11-7.28-.11a90.63,90.63,0,0,0-11.64.64,136,136,0,0,0-10.07-9.83,143.38,143.38,0,0,0-18-13.74,116.93,116.93,0,0,0-24-11.87,94.36,94.36,0,0,0-27.48-5.24c-.66,0-1.36,0-2.06,0a91,91,0,0,0-9.58.66h-.05a80.57,80.57,0,0,0-25.72,7.32c-9.73,4.5-19,10.94-28.38,19.68a137.49,137.49,0,0,0-19.13,22A113.76,113.76,0,0,0,57,177.65a91.08,91.08,0,0,0-4.92,23.66c-1.82.18-3.72.44-5.73.78a62.22,62.22,0,0,0-20.66,7.14A15.43,15.43,0,0,0,17.54,224,9.93,9.93,0,0,0,20,230.58a9.74,9.74,0,0,0,6.87,2.91,29.55,29.55,0,0,1,4.53.74A76.17,76.17,0,0,1,52.15,242,72.21,72.21,0,0,1,61,247.8l-.43.78a8.3,8.3,0,0,0-.4,7.48,193.42,193.42,0,0,0,11.5,23.6c9.24,16,19.51,28.5,31.41,38.27A97.59,97.59,0,0,0,124,331.05a15.31,15.31,0,0,0,12.21.41c12.24-4.75,21.89-11.46,29.49-20.52a48.1,48.1,0,0,0,6.62-10.32c.52,4,1.06,8.1,1.5,12.13a19.53,19.53,0,0,0,4.84,11c5.64,6.4,11.35,13,16.87,19.29l.82.94c1.08,3,2.19,6.1,3.27,9.06,2.37,6.53,4.83,13.28,7,19.94A34.42,34.42,0,0,0,221.16,392a51,51,0,0,0,34.2,7.91,52.84,52.84,0,0,0,21.56-7.38c7.1-4.42,12-10.19,14.47-17.16,1.14-3.19,2.3-6.43,3.41-9.57,1.92-5.39,3.91-11,5.9-16.41.29-.82.54-1.6.79-2.34.54-1.69,1.05-3.28,1.69-3.84a15.26,15.26,0,0,0,1.71-1.82l.22-.26,4.27-4.95c3.37-3.91,6.85-8,10.33-11.83a20.79,20.79,0,0,0,5.53-11.84c.5-4.29,1-8.66,1.55-12.89,0-.23,0-.46.08-.69.36.82.75,1.65,1.18,2.49A54.52,54.52,0,0,0,340,317a75.83,75.83,0,0,0,24.06,14.63,14.48,14.48,0,0,0,5.28,1,14.73,14.73,0,0,0,5.95-1.29,87.93,87.93,0,0,0,11.11-5.87,108.22,108.22,0,0,0,21.52-17.86,143.46,143.46,0,0,0,14.41-18.26,178.46,178.46,0,0,0,15.32-28.25l.27-.62a43,43,0,0,0,2.49-6.83l2.37-9.35a72.55,72.55,0,0,1,19.67-8.91,57.8,57.8,0,0,1,11.28-2.15,9.06,9.06,0,0,0,8.56-7.84,15.62,15.62,0,0,0-1-8.32"></path>
      <path class="cls-4" d="M149.69,241.55a26.89,26.89,0,0,0,1.47,4.06c4.59,11.62,9,23.3,13.88,34.82.59,1.4,1.18,2.8,1.87,4.15a8.66,8.66,0,0,1,.63,6.69A40.49,40.49,0,0,1,159.7,306c-7.12,8.47-16.1,14.29-26.35,18.27a7.47,7.47,0,0,1-6.14-.23A89,89,0,0,1,108,311.93c-12.27-10.09-21.71-22.49-29.62-36.16A188.44,188.44,0,0,1,67.3,253a.6.6,0,0,1,0-.69c9.39,6.16,16.87,14.46,24.89,22.28.24-.82-.26-1.27-.53-1.78a96.31,96.31,0,0,0-12.76-18.79,86.4,86.4,0,0,0-23-18.82,83.49,83.49,0,0,0-22.86-8.6,36.68,36.68,0,0,0-5.74-.9c-1.73-.1-1.93-.39-2-2.11A7.73,7.73,0,0,1,29.53,216a55,55,0,0,1,18.11-6.23,63.6,63.6,0,0,1,10.67-1c1.33,0,1.36,0,1.35-1.46a81.62,81.62,0,0,1,4.68-27.12A106.73,106.73,0,0,1,78,153.76a129.5,129.5,0,0,1,18-20.72,101,101,0,0,1,26.34-18.31,73.82,73.82,0,0,1,23.28-6.65,70,70,0,0,1,10.52-.58,86.25,86.25,0,0,1,25.23,4.8,109.1,109.1,0,0,1,22.43,11.08,135.43,135.43,0,0,1,17.06,13,119.12,119.12,0,0,1,11,10.93,2.91,2.91,0,0,0,3.08,1.14c6.81-1.14,13.68-.94,20.55-.78a52.29,52.29,0,0,1,9.75,1,2,2,0,0,0,2.08-.71,138.81,138.81,0,0,1,24.13-21.55A104.15,104.15,0,0,1,324,110.57a76.35,76.35,0,0,1,17.71-2.88c1.69-.06,3.39-.27,5.08-.2a80,80,0,0,1,23,4.14c11.08,3.8,20.69,10,29.63,17.43a126.92,126.92,0,0,1,31.64,40,88.71,88.71,0,0,1,8.72,29.45,70.42,70.42,0,0,1,.57,9.06c0,1,.32,1.19,1.24,1.2a63.19,63.19,0,0,1,21.86,3.93,46.16,46.16,0,0,1,7.69,3.71,7.91,7.91,0,0,1,3.5,7.68,1.39,1.39,0,0,1-1.49,1.38,65.68,65.68,0,0,0-12.8,2.41,81.06,81.06,0,0,0-31.08,16.83,93.75,93.75,0,0,0-21.58,27.49,9.86,9.86,0,0,0-1.35,2.78c8.58-8.33,16.36-17.18,26.56-23.27a41.41,41.41,0,0,1-2.36,6.28,169,169,0,0,1-14.65,27,134,134,0,0,1-13.63,17.27,99.84,99.84,0,0,1-20,16.59,78.78,78.78,0,0,1-10.12,5.34,6.67,6.67,0,0,1-5.29.15,68.74,68.74,0,0,1-21.63-13.13A46.42,46.42,0,0,1,335,297.9a32.17,32.17,0,0,1-2.66-6.95,8.6,8.6,0,0,1,.45-5.89c2.68-5.64,4.94-11.46,7.25-17.27q5.3-13.34,10.53-26.71c.09-.22.17-.43.35-.9-1.91,1.16-3.61,2.21-5.32,3.24-3.49,2.09-7.31,3.51-10.91,5.38-3.81,2-3.86,1.93-5,6-.94,3.33-1.81,6.67-2.74,10a60.23,60.23,0,0,1-3.37,8.43,32.66,32.66,0,0,0-2.67,10.12c-1.06,9.44-2.28,18.87-3.37,28.32a13.2,13.2,0,0,1-3.59,7.53c-5,5.55-9.81,11.25-14.7,16.89a14.41,14.41,0,0,1-1.22,1.36c-2.8,2.49-3.43,6.06-4.62,9.32-3.16,8.65-6.21,17.35-9.32,26-2.09,5.81-6.13,10-11.26,13.18a44.87,44.87,0,0,1-18.41,6.26c-10.55,1.31-20.24-1.24-29.14-6.78A26.71,26.71,0,0,1,214,370.5c-3.29-10-7-19.77-10.53-29.65A5.74,5.74,0,0,0,202.3,339q-8.91-10.23-17.86-20.43a11.54,11.54,0,0,1-2.94-6.67c-.72-6.5-1.64-13-2.45-19.46q-.8-6.39-1.51-12.8a10.29,10.29,0,0,0-.76-3c-.77-1.78-1.44-3.6-2.26-5.36-2.71-5.81-4-12.08-5.73-18.19a4.26,4.26,0,0,0-2.34-3.16c-2.36-1.1-4.64-2.37-7-3.45a61.16,61.16,0,0,1-8.36-4.41c-.37-.25-.71-.67-1.39-.54m221.59-2.94c.3-.05.43-.3.58-.52.66-.62,1.35-1.23,2-1.87a99.9,99.9,0,0,1,15.35-12.55,72.89,72.89,0,0,1,10.83-6,1.72,1.72,0,0,0,1.18-1.78c0-1-.27-2-.3-3.07a22.08,22.08,0,0,0-1.59-7.62c-1.62-4.1-4.51-6.75-8.95-7.39a17.84,17.84,0,0,0-8.58,1.07c-.43.16-1,.2-1.19.77.4.87,1,1.67,1.31,2.58,1.42,3.71,1.27,7.49.54,11.3-1.21,6.22-3.83,11.88-6.85,17.39-1.28,2.33-2.67,4.61-4,6.92-.3.2-.49.43-.29.81-.26-.13-.31,0-.23.21l.21-.25m-244.67-.27c.07.14.17.33.34.18s0-.29-.12-.41a.81.81,0,0,0-.44-.64c-.17-.33-.31-.66-.5-1-4-6.39-7.61-13-9.54-20.37-1.42-5.39-2-10.78.91-15.93.39-.7.16-.92-.5-1.16a19.45,19.45,0,0,0-7.65-1.33,10.41,10.41,0,0,0-8.76,4.75c-2.84,4.24-3.19,9.07-3.3,14a1,1,0,0,0,.76,1.09c1.12.46,2.23,1,3.31,1.51a97.21,97.21,0,0,1,19.76,13.92c1.76,1.58,3.3,3.4,5.19,4.84a.93.93,0,0,0,.54.56M410,170c.08.14.17.33.35.18s0-.3-.09-.42c-.19-.39-.34-.79-.56-1.15A115.93,115.93,0,0,0,395.12,149c-7.42-8-15.76-14.82-25.68-19.56a57.05,57.05,0,0,0-35.51-4.75,76.23,76.23,0,0,0-20.45,7,111.29,111.29,0,0,0-27.49,20,126.83,126.83,0,0,0-10.09,11,10.59,10.59,0,0,1-3.79,3.07,15.26,15.26,0,0,0-5.45,4.49,3.36,3.36,0,0,0-.75,2.85,11,11,0,0,0,1.56,4,31.26,31.26,0,0,0,7,7.61A126.66,126.66,0,0,0,295,198.24a4.22,4.22,0,0,0,2.46.53c7.08-.62,9.19-6.34,8.84-11.57-.18-2.84-2-4.9-4.09-6.65a24,24,0,0,1-3.93-3.8c-1.27-1.69-2.09-3.53-1.07-5.82a57.79,57.79,0,0,1,6.25,3.12c4.76,2.74,9.3,5.78,12.79,10.13,1,1.25,1,1.27,2.47.47a39,39,0,0,0,9.51-7.88c1.72-1.84,1.64-3.53.18-5.63a16.63,16.63,0,0,0-5.23-4.47A80.06,80.06,0,0,0,308.84,160c-2.55-.91-5.11-1.78-7.67-2.67a2.23,2.23,0,0,1,1.23-.24c3.22,0,6.44.08,9.66.32a79.68,79.68,0,0,1,12.6,1.8c4.89,1.16,9.65,2.58,13.22,6.43.39.42.73.26,1.09-.07,2.19-2,4.38-4,6.69-5.93a2.89,2.89,0,0,0,.63-3.8,6.47,6.47,0,0,0-1.58-2A28.74,28.74,0,0,0,340.3,151a90.76,90.76,0,0,0-15.25-6,3.46,3.46,0,0,1-2.18-1,107.19,107.19,0,0,1,14.37.93,44.29,44.29,0,0,1,9.37,2.25c3.23,1.25,6.26,2.76,7.79,6.16.27.58.64.65,1.18.41a32.69,32.69,0,0,1,8.74-2.46,1.16,1.16,0,0,0,.18,0c1.63-.54,2-1.68,1-3.08a9.91,9.91,0,0,0-2.9-2.45,78.5,78.5,0,0,0-12.8-6.16,13.51,13.51,0,0,1-2.83-1.25,6.06,6.06,0,0,1,1.88-.46,49,49,0,0,1,8.9-.11,56.8,56.8,0,0,1,16.9,4.24c12.53,5.2,22.59,13.67,31.45,23.74A30.69,30.69,0,0,0,410,170m-100.13,75.6c-2,2.5-3.86,4.58-5.69,7.06h2.2c1.44,0,1.84.47,1.65,1.85a7.57,7.57,0,0,1-10.55,6.13,1.23,1.23,0,0,0-1.75.5,96.05,96.05,0,0,1-8.6,9.65c-1,1-2.11,2-3.23,3a19.42,19.42,0,0,0-2.69-3.78,4.7,4.7,0,0,0-2.94-1.54,7.16,7.16,0,0,1-6.49-5.74,19.18,19.18,0,0,1-.25-7.91c.05-.31-.1-.77.56-.79a19.92,19.92,0,0,0,1.59,2.58,5.77,5.77,0,0,0,7.57,1.84,14.65,14.65,0,0,0,3.71-2.59c4.35-4.1,7.45-9.1,10.32-14.25,2.52-4.5,5-9,8.4-13a17.42,17.42,0,0,1,5.38-4.58c2.58-1.28,4.59-.9,6.62,1.11a13.81,13.81,0,0,1,2.63,4.32c.15.34.2.77.73.87a31.71,31.71,0,0,0-.78-9.29,14.22,14.22,0,0,0-4.16-7.31c-3.16-2.81-7-3.36-10.93-2.82A25.44,25.44,0,0,0,288,218.63c-.44.45-.79,1.06-1.54,1.23a35.26,35.26,0,0,0-2.18-8.12,5.23,5.23,0,0,0-2.53-2.71c-1.69-.82-3.35-1.7-5-2.61a185.53,185.53,0,0,1-25.7-17.53c-1.15-.92-1.15-.9-2.42,0-3.86,2.76-7.64,5.63-11.6,8.21-6.61,4.3-13.42,8.28-20.32,12.11a4.24,4.24,0,0,0-1.56,1.47,16.27,16.27,0,0,0-1.82,4.74c-.36,1.49-.65,3-1,4.69-.48-.57-.82-1-1.17-1.37a22,22,0,0,0-20.72-7.53,10.56,10.56,0,0,0-8.18,6,22,22,0,0,0-2.1,9.32,8.51,8.51,0,0,0,.39,4.22c.23-.6.4-1.18.66-1.72a13.67,13.67,0,0,1,2.6-3.92,5.31,5.31,0,0,1,7-.94,14.3,14.3,0,0,1,2.74,2.11,44.65,44.65,0,0,1,7.86,10.89,105.66,105.66,0,0,0,9.69,15,25,25,0,0,0,6,5.75c3.49,2.2,6.66,1.83,9-1.93.41-.65.79-1.31,1.24-2.06a17,17,0,0,1,.1,8c-1,4.33-3.42,6.38-7.33,6.58a2.55,2.55,0,0,0-1.59.79,12.32,12.32,0,0,0-4,8.13c-.6,5,.58,9.77,2.17,14.44a91.36,91.36,0,0,0,8,16.9c1.29,2.17,2.64,4.3,4.11,6.69l-8.35-1.87a4.61,4.61,0,0,0-.3,2,129.88,129.88,0,0,0-1.42,18.48,25.15,25.15,0,0,0,2.73,11.2,16.81,16.81,0,0,0,4.69,6,2.81,2.81,0,0,0,2.51.58c2.49-.52,5-.72,7.55-1,3.08-.36,6.18-.16,9.25-.59,1.64-.23,1.92-.69,1-2.1a7,7,0,0,0-1.05-1.25,34.7,34.7,0,0,0-11.27-7.22,9.89,9.89,0,0,0-6.57-.61,2.07,2.07,0,0,1-2.47-1.06,5.15,5.15,0,0,1-.85-2.74,19.09,19.09,0,0,1,.39-4.89,17.21,17.21,0,0,1,1.51-4.84c1.19,1,1.63,2.57,3,3.43.21-.51.35-.91.55-1.28a4.27,4.27,0,0,1,5.61-2.27,11.82,11.82,0,0,1,2.73,1.42,92.59,92.59,0,0,0,10.47,5.88,3.35,3.35,0,0,0,3.21,0,70.54,70.54,0,0,0,10-5.89,11.1,11.1,0,0,1,2.9-1.5,4.51,4.51,0,0,1,5.62,2.12c.3.5.32,1.17.9,1.54,1.1-1,1.55-2.56,2.93-3.44a26.34,26.34,0,0,1,1.83,9.19,6.92,6.92,0,0,1-.86,3.31,2,2,0,0,1-2.67,1.13,11.06,11.06,0,0,0-6.45.21,34.42,34.42,0,0,0-12.55,7.84,4.23,4.23,0,0,0-1.2,2c-.14.53-.07,1,.63,1,.9.08,1.8.25,2.7.25a73.63,73.63,0,0,1,13.92,1.25,4.64,4.64,0,0,0,4.77-1.7c.29-.31.57-.62.83-1a25,25,0,0,0,5.18-15,129.17,129.17,0,0,0-1-17.25,7.75,7.75,0,0,1-.08-3.18c.49-.17.76.09,1.08.26,1.93,1,3.86,2,5.8,3,1.18.6,1.19.57,2-.53a40,40,0,0,0,5.22-11.34,81.16,81.16,0,0,0,3.34-17.45,41.78,41.78,0,0,0-.52-11.68,10.15,10.15,0,0,1,1.36,0,7,7,0,0,0,5.65-2c.37-.31.78-.58,1.14-.9a15.39,15.39,0,0,0,5.17-9.74,2.6,2.6,0,0,0-.11-1.07c-.12-.38-.72,0-.87-.51a12.34,12.34,0,0,0,2.26-5.24c.52-3.62-.3-7.1-.82-10.92m-112.6-88.22c-2.16.75-4.32,1.48-6.47,2.26a87.85,87.85,0,0,0-14.94,6.72,18.08,18.08,0,0,0-5.74,4.73,4.16,4.16,0,0,0,.34,5.93c.66.71,1.36,1.4,2.07,2.07a33.45,33.45,0,0,0,7.36,5.65c1.43.74,1.43.72,2.46-.61.41-.52.86-1,1.31-1.51,4.72-5,10.58-8.33,16.7-11.26,1.06-.51,1.2-.39,1.3.8.27,3-1.46,5-3.53,6.83-1.2,1-2.4,2.07-3.49,3.21a8,8,0,0,0-2.37,4.44,11.77,11.77,0,0,0,2.56,9.4c1.71,2.06,6.62,3.57,9.47,1.85a183.94,183.94,0,0,0,17.16-11.09,44.32,44.32,0,0,0,8-7.43,14.83,14.83,0,0,0,3-5.37,4.12,4.12,0,0,0-.8-4.05,18.68,18.68,0,0,0-6-4.64,6.94,6.94,0,0,1-2.28-1.77,142.22,142.22,0,0,0-15-15.69,105.84,105.84,0,0,0-25-16.92,71.75,71.75,0,0,0-24.56-7,54.67,54.67,0,0,0-17.56,1.22c-12.59,3-23.14,9.66-32.49,18.36a105.43,105.43,0,0,0-11,12,122.32,122.32,0,0,0-8.71,12.61c-.32.53-.94,1.07-.67,1.88.64-.16.84-.62,1.14-1a103,103,0,0,1,20.14-19.2,69.73,69.73,0,0,1,20.17-10,55.58,55.58,0,0,1,12.52-2.23,27.84,27.84,0,0,1,9.25.74c-.44.21-.7.37-1,.47a99.4,99.4,0,0,0-12,5.3,18.48,18.48,0,0,0-5.38,3.71c-1.39,1.52-.91,3.16,1.06,3.5a35.84,35.84,0,0,1,8.4,2.38c.7.3,1.11.23,1.42-.52a9.37,9.37,0,0,1,3.93-4.19,25,25,0,0,1,6.91-2.77c6.57-1.76,13.3-2.09,20.05-2.18.17,0,.37,0,.29.39-2.41.8-4.89,1.6-7.34,2.46a58.55,58.55,0,0,0-11.47,5.1,12.39,12.39,0,0,0-4,3.41,3.22,3.22,0,0,0,.63,4.68c.79.67,1.59,1.32,2.36,2,1.54,1.36,3.06,2.74,4.6,4.12.66-.55,1.1-1.21,1.72-1.72a25.33,25.33,0,0,1,9.82-4.64,84,84,0,0,1,25.56-2.39m-29.85,78.81c-.25-.56-.35-.84-.49-1.09A22.73,22.73,0,0,1,164,223.56a3.22,3.22,0,0,0-.77-2c-5.33-7.77-11.94-14.38-18.95-20.59-1.75-1.56-3.56-3.05-5.35-4.58a35.87,35.87,0,0,1,5.76.94,68.94,68.94,0,0,1,14.75,5.06c2.78,1.37,4.88,3.57,7.31,5.36.73.54,1.34,1.54,2.18,1.56,1,0,1.32-1.26,1.93-2a55.22,55.22,0,0,1,6-5.91c-.66-.37-1.19-.66-1.7-1-2-1.24-4.16-2.27-6.06-3.68a50.91,50.91,0,0,0-19-8.64c-5.65-1.32-11.43-1.92-17.09-3.25-1.7-.4-2.21,0-2.72,1.8a15.92,15.92,0,0,0-.16,6.52,47.27,47.27,0,0,0,6.08,17,57.09,57.09,0,0,0,12.29,15,46.74,46.74,0,0,0,11.1,7.53c2.47,1.12,5,2.17,7.79,3.38m190.87-40c-2.26,2-4.31,3.76-6.34,5.56a120.56,120.56,0,0,0-17.36,18.62,3.84,3.84,0,0,0-.83,2.66,22,22,0,0,1-2.15,10.77c-.21.44-.59.9-.53,1.43.15.07.21.13.25.11a50.12,50.12,0,0,0,18.23-11,59.22,59.22,0,0,0,12-15.25,46.82,46.82,0,0,0,5.66-18.28,12.1,12.1,0,0,0-.4-4.15c-.43-1.65-1.08-2.1-2.62-1.76-5.2,1.15-10.47,1.87-15.68,2.93a51.36,51.36,0,0,0-17,6.59c-3,1.86-5.81,4-8.9,5.65a4.1,4.1,0,0,0-1.84,1.28,50.8,50.8,0,0,1,6.14,5.95c.51.59.85,1.58,1.56,1.68s1.37-.86,2.05-1.34c2-1.42,3.6-3.26,5.73-4.47a57.09,57.09,0,0,1,13.34-5.11,71.7,71.7,0,0,1,8.73-1.86M84.49,226.88c.49.37,1,.76,1.46,1.09a105.49,105.49,0,0,1,12.22,9.54,115.08,115.08,0,0,1,18.31,20.73,107.89,107.89,0,0,1,13.94,28.37,74.24,74.24,0,0,1,2.62,10.6c.24,1.49.4,1.58,1.88,1.47a10.22,10.22,0,0,0,4.76-1.71,33.57,33.57,0,0,0,8.25-8.14,3.69,3.69,0,0,0,.44-4.27,98.31,98.31,0,0,0-10.61-19.28,99.32,99.32,0,0,0-18.41-19.62,109.46,109.46,0,0,0-24.78-15.25,50,50,0,0,0-10.08-3.53m328.82.61c-.55-.33-.91,0-1.29.1a103.37,103.37,0,0,0-16.65,7.35A107.3,107.3,0,0,0,373.09,251a96.85,96.85,0,0,0-23.82,35,2,2,0,0,0,0,2.06,31.26,31.26,0,0,0,8.84,9.34,10.71,10.71,0,0,0,5.43,1.91c.8,0,1.13-.21,1.28-1.09A73.65,73.65,0,0,1,367.23,288a108.53,108.53,0,0,1,14.38-29.38,115.71,115.71,0,0,1,25.95-26.91c1.88-1.42,3.81-2.78,5.75-4.19M270,365.44c-6.57-2.67-13.18-4.73-20.28-4.69s-13.59,2-20,4.75a29.36,29.36,0,0,1,7.92,4.47,11.08,11.08,0,0,0,7.14,2.15c3.9-.17,7.8-.08,11.7,0a7.63,7.63,0,0,0,4-1.1c3.19-1.82,5.94-4.38,9.58-5.55M189,245.71a43.54,43.54,0,0,0-1.1,6.79,12.31,12.31,0,0,0,0,2.19c.15,5.55,3.43,9.57,8.64,10.62,2.07.42,4.16.78,6.23,1.19,1.69.33,3.37.68,5.1,1,0-.3,0-.45-.06-.53-1.58-2-3.2-3.95-4.77-5.94a1.31,1.31,0,0,0-1.83-.39,7.64,7.64,0,0,1-10.45-6.09c-.23-1.53.16-1.92,1.71-2a3.5,3.5,0,0,0,2-.24L189,245.71M88.12,170.28s-.1.06-.1.09,0,.09.07.13.1-.06.11-.1,0-.08-.08-.12"></path>
      <path class="cls-5" d="M309.83,245.57c.52,3.82,1.34,7.3.82,10.92a12.34,12.34,0,0,1-2.26,5.24c.15.51.75.13.87.51a2.6,2.6,0,0,1,.11,1.07,15.39,15.39,0,0,1-5.17,9.74c-.36.32-.77.59-1.14.9a7,7,0,0,1-5.65,2,10.15,10.15,0,0,0-1.36,0,41.78,41.78,0,0,1,.52,11.68,81.16,81.16,0,0,1-3.34,17.45A40,40,0,0,1,288,316.39c-.79,1.1-.8,1.13-2,.53-1.94-1-3.87-2-5.8-3-.32-.17-.59-.43-1.08-.26a7.75,7.75,0,0,0,.08,3.18,129.17,129.17,0,0,1,1,17.25,25,25,0,0,1-5.18,15c-.26.34-.54.65-.83,1a4.64,4.64,0,0,1-4.77,1.7,73.63,73.63,0,0,0-13.92-1.25c-.9,0-1.8-.17-2.7-.25-.7-.06-.77-.49-.63-1a4.23,4.23,0,0,1,1.2-2A34.42,34.42,0,0,1,266,339.36a11.06,11.06,0,0,1,6.45-.21,2,2,0,0,0,2.67-1.13,6.92,6.92,0,0,0,.86-3.31,26.34,26.34,0,0,0-1.83-9.19c-1.38.88-1.83,2.43-2.93,3.44-.58-.37-.6-1-.9-1.54a4.51,4.51,0,0,0-5.62-2.12,11.1,11.1,0,0,0-2.9,1.5,70.54,70.54,0,0,1-10,5.89,3.35,3.35,0,0,1-3.21,0,92.59,92.59,0,0,1-10.47-5.88,11.82,11.82,0,0,0-2.73-1.42,4.27,4.27,0,0,0-5.61,2.27c-.2.37-.34.77-.56,1.28-1.33-.86-1.77-2.46-3-3.43a17.21,17.21,0,0,0-1.51,4.84,19.09,19.09,0,0,0-.39,4.89,5.15,5.15,0,0,0,.85,2.74,2.07,2.07,0,0,0,2.47,1.06,9.89,9.89,0,0,1,6.57.61,34.7,34.7,0,0,1,11.27,7.22,7,7,0,0,1,1.05,1.25c.89,1.41.61,1.87-1,2.1-3.07.43-6.17.23-9.25.59-2.52.29-5.06.49-7.55,1a2.81,2.81,0,0,1-2.51-.58,16.81,16.81,0,0,1-4.69-6,25.15,25.15,0,0,1-2.73-11.2,129.88,129.88,0,0,1,1.42-18.48,4.61,4.61,0,0,1,.3-2l8.35,1.87c-1.47-2.39-2.82-4.52-4.11-6.69a91.36,91.36,0,0,1-8-16.9c-1.59-4.67-2.77-9.44-2.17-14.44a12.27,12.27,0,0,1,4-8.13,2.55,2.55,0,0,1,1.59-.79c3.91-.2,6.29-2.25,7.33-6.58a17,17,0,0,0-.1-8c-.45.75-.83,1.41-1.24,2.06-2.35,3.76-5.52,4.13-9,1.93a25,25,0,0,1-6-5.75,105.66,105.66,0,0,1-9.69-15,44.65,44.65,0,0,0-7.86-10.89,14.3,14.3,0,0,0-2.74-2.11,5.31,5.31,0,0,0-7,.94,13.67,13.67,0,0,0-2.6,3.92c-.26.54-.43,1.12-.66,1.72a8.51,8.51,0,0,1-.39-4.22,22,22,0,0,1,2.1-9.32,10.56,10.56,0,0,1,8.18-6,22,22,0,0,1,20.72,7.53c.35.39.69.8,1.17,1.37.36-1.7.65-3.2,1-4.69a16.27,16.27,0,0,1,1.82-4.74,4.24,4.24,0,0,1,1.56-1.47c6.9-3.83,13.71-7.81,20.32-12.11,4-2.58,7.74-5.45,11.6-8.21,1.27-.91,1.27-.93,2.42,0a185.53,185.53,0,0,0,25.7,17.53c1.64.91,3.3,1.79,5,2.61a5.23,5.23,0,0,1,2.53,2.71,35.26,35.26,0,0,1,2.18,8.12c.75-.17,1.1-.78,1.54-1.23a25.44,25.44,0,0,1,15.09-7.69c3.92-.54,7.77,0,10.93,2.82a14.22,14.22,0,0,1,4.16,7.31,31.71,31.71,0,0,1,.78,9.29c-.53-.1-.58-.53-.73-.87a13.81,13.81,0,0,0-2.63-4.32c-2-2-4-2.39-6.62-1.11a17.42,17.42,0,0,0-5.38,4.58c-3.39,3.93-5.88,8.45-8.4,13-2.87,5.15-6,10.15-10.32,14.25a14.65,14.65,0,0,1-3.71,2.59,5.77,5.77,0,0,1-7.57-1.84,19.92,19.92,0,0,1-1.59-2.58c-.66,0-.51.48-.56.79a19.18,19.18,0,0,0,.25,7.91,7.16,7.16,0,0,0,6.49,5.74,4.7,4.7,0,0,1,2.94,1.54,19.42,19.42,0,0,1,2.69,3.78c1.12-1,2.24-2,3.23-3a96.05,96.05,0,0,0,8.6-9.65,1.23,1.23,0,0,1,1.75-.5A7.57,7.57,0,0,0,308,254.48c.19-1.38-.21-1.83-1.65-1.85h-2.2c1.83-2.48,3.7-4.56,5.69-7.06"></path>
      <path class="cls-6" d="M197.23,157.35a84,84,0,0,0-25.56,2.39,25.33,25.33,0,0,0-9.82,4.64c-.62.51-1.06,1.17-1.72,1.72-1.54-1.38-3.06-2.76-4.6-4.12-.77-.68-1.58-1.33-2.36-2a3.22,3.22,0,0,1-.63-4.68,12.39,12.39,0,0,1,4-3.41,58.73,58.73,0,0,1,11.46-5.1c2.46-.86,4.94-1.66,7.35-2.46.08-.37-.12-.39-.29-.39-6.75.09-13.48.42-20.05,2.18a25,25,0,0,0-6.91,2.77,9.37,9.37,0,0,0-3.93,4.19c-.31.75-.72.82-1.42.52a36.33,36.33,0,0,0-8.4-2.38c-2-.34-2.45-2-1.06-3.5a18.21,18.21,0,0,1,5.38-3.71,99.4,99.4,0,0,1,12-5.3c.28-.1.54-.26,1-.47a27.84,27.84,0,0,0-9.25-.74,55.58,55.58,0,0,0-12.52,2.23,69.73,69.73,0,0,0-20.17,10A103,103,0,0,0,89.57,169c-.3.38-.5.84-1.15,1-.26-.81.36-1.35.68-1.88a122.32,122.32,0,0,1,8.71-12.61,105.43,105.43,0,0,1,11-12c9.35-8.7,19.9-15.32,32.49-18.36a54.67,54.67,0,0,1,17.56-1.22,71.75,71.75,0,0,1,24.56,7,105.84,105.84,0,0,1,25,16.92,142.22,142.22,0,0,1,15,15.69,6.94,6.94,0,0,0,2.28,1.77,18.68,18.68,0,0,1,6,4.64,4.12,4.12,0,0,1,.8,4.05,14.83,14.83,0,0,1-3,5.37,44.32,44.32,0,0,1-8,7.43,181.92,181.92,0,0,1-17.16,11.09c-2.85,1.72-7.76.21-9.47-1.85a11.76,11.76,0,0,1-2.56-9.4,8,8,0,0,1,2.37-4.44c1.09-1.14,2.29-2.17,3.48-3.21,2.08-1.79,3.81-3.8,3.54-6.83-.11-1.19-.24-1.31-1.3-.8-6.12,2.93-12,6.24-16.7,11.26-.45.49-.9,1-1.31,1.51-1,1.33-1,1.35-2.47.61a33.63,33.63,0,0,1-7.35-5.65c-.71-.67-1.41-1.36-2.07-2.07a4.16,4.16,0,0,1-.34-5.93,18.08,18.08,0,0,1,5.74-4.73,87.85,87.85,0,0,1,14.94-6.72c2.15-.78,4.31-1.51,6.47-2.26"></path>
      <path class="cls-6" d="M410,170a30.69,30.69,0,0,1-3.88-4.33c-8.86-10.07-18.92-18.54-31.45-23.74a56.8,56.8,0,0,0-16.9-4.24,49,49,0,0,0-8.9.11,6.06,6.06,0,0,0-1.88.46,13.51,13.51,0,0,0,2.83,1.25,78.9,78.9,0,0,1,12.8,6.16,10.07,10.07,0,0,1,2.9,2.45c1,1.4.65,2.54-1,3.08l-.17.05a32.31,32.31,0,0,0-8.74,2.45c-.54.24-.91.17-1.18-.41-1.53-3.4-4.56-4.91-7.79-6.16a44.29,44.29,0,0,0-9.37-2.25,105.58,105.58,0,0,0-14.37-.92,3.5,3.5,0,0,0,2.18,1,90.76,90.76,0,0,1,15.25,6,28.74,28.74,0,0,1,4.41,2.91,6.4,6.4,0,0,1,1.58,2,2.9,2.9,0,0,1-.63,3.8c-2.31,1.89-4.5,3.9-6.69,5.92-.36.33-.7.49-1.09.07-3.57-3.85-8.33-5.27-13.22-6.43a79.68,79.68,0,0,0-12.6-1.8c-3.22-.24-6.44-.31-9.66-.32a2.32,2.32,0,0,0-1.23.24c2.56.89,5.12,1.76,7.67,2.68a79.34,79.34,0,0,1,14.37,6.65,16.63,16.63,0,0,1,5.23,4.47c1.46,2.1,1.54,3.79-.18,5.63a39,39,0,0,1-9.51,7.88c-1.44.8-1.47.78-2.47-.47-3.49-4.35-8-7.38-12.79-10.13a57.79,57.79,0,0,0-6.25-3.12c-1,2.29-.2,4.13,1.07,5.82a23.58,23.58,0,0,0,3.93,3.8c2.1,1.75,3.91,3.81,4.09,6.65.35,5.23-1.76,11-8.84,11.57a4.22,4.22,0,0,1-2.46-.53,126.66,126.66,0,0,1-20.53-13.53,31.26,31.26,0,0,1-7-7.61,11,11,0,0,1-1.56-4,3.37,3.37,0,0,1,.75-2.85,15.13,15.13,0,0,1,5.45-4.48,10.72,10.72,0,0,0,3.79-3.08,125.26,125.26,0,0,1,10.09-11,111.29,111.29,0,0,1,27.49-20,76.23,76.23,0,0,1,20.45-7,57.05,57.05,0,0,1,35.51,4.75c9.92,4.75,18.26,11.53,25.68,19.56a115.93,115.93,0,0,1,14.54,19.59c.22.37.37.76.56,1.15L410,170"></path>
      <path class="cls-5" d="M167.38,236.16c-2.81-1.21-5.32-2.26-7.79-3.38a46.74,46.74,0,0,1-11.1-7.53,56.93,56.93,0,0,1-12.29-15,47.27,47.27,0,0,1-6.08-17,15.92,15.92,0,0,1,.16-6.52c.5-1.78,1-2.2,2.72-1.8,5.65,1.33,11.44,1.93,17.09,3.25a50.91,50.91,0,0,1,19,8.64c1.9,1.41,4.05,2.44,6.06,3.68.51.32,1,.61,1.7,1a55.22,55.22,0,0,0-6,5.91c-.61.71-.9,2-1.93,2-.84,0-1.45-1-2.18-1.56-2.43-1.79-4.53-4-7.31-5.36a68.94,68.94,0,0,0-14.75-5.06,35.87,35.87,0,0,0-5.76-.94c1.79,1.53,3.6,3,5.35,4.58,7,6.21,13.61,12.82,18.95,20.59a3.22,3.22,0,0,1,.77,2,22.73,22.73,0,0,0,2.87,11.51c.14.25.24.53.49,1.09"></path>
      <path class="cls-5" d="M358.25,196.19a71.7,71.7,0,0,0-8.73,1.86,57.09,57.09,0,0,0-13.34,5.11c-2.13,1.21-3.76,3.05-5.73,4.47-.68.48-1.23,1.45-2.05,1.34s-1-1.09-1.56-1.68a50.8,50.8,0,0,0-6.14-5.95,4.1,4.1,0,0,1,1.84-1.28c3.09-1.69,5.92-3.79,8.9-5.65a51.36,51.36,0,0,1,17-6.59c5.21-1.07,10.48-1.78,15.68-2.93,1.54-.34,2.19.11,2.62,1.76a12.1,12.1,0,0,1,.4,4.15,46.82,46.82,0,0,1-5.66,18.28,59.22,59.22,0,0,1-12,15.25,50.12,50.12,0,0,1-18.23,11s-.1,0-.25-.11c-.06-.53.32-1,.53-1.43A22,22,0,0,0,333.72,223a3.84,3.84,0,0,1,.83-2.66,120.56,120.56,0,0,1,17.36-18.62c2-1.8,4.08-3.57,6.34-5.56"></path>
      <path class="cls-6" d="M84.49,226.89a49.39,49.39,0,0,1,10.08,3.52,109.46,109.46,0,0,1,24.78,15.25,99.32,99.32,0,0,1,18.41,19.62,98.31,98.31,0,0,1,10.61,19.28,3.69,3.69,0,0,1-.44,4.27,33.57,33.57,0,0,1-8.25,8.14,10.22,10.22,0,0,1-4.76,1.71c-1.48.11-1.64,0-1.88-1.47a74.24,74.24,0,0,0-2.62-10.6,107.89,107.89,0,0,0-13.94-28.37,115.08,115.08,0,0,0-18.31-20.73A105.49,105.49,0,0,0,86,228c-.5-.33-1-.72-1.46-1.08"></path>
      <path class="cls-6" d="M413.31,227.49c-1.94,1.41-3.87,2.77-5.75,4.19a115.71,115.71,0,0,0-25.95,26.91A108.53,108.53,0,0,0,367.23,288a73.65,73.65,0,0,0-2.46,10.26c-.15.88-.48,1.13-1.28,1.09a10.71,10.71,0,0,1-5.43-1.91,31.26,31.26,0,0,1-8.84-9.34,2,2,0,0,1,0-2.06,96.85,96.85,0,0,1,23.82-35,107.3,107.3,0,0,1,22.28-16.07A103.37,103.37,0,0,1,412,227.59c.38-.13.74-.43,1.29-.1"></path>
      <path class="cls-6" d="M371.59,237.84c1.34-2.31,2.73-4.59,4-6.92,3-5.51,5.64-11.17,6.84-17.39.74-3.81.89-7.59-.53-11.3-.35-.91-.91-1.71-1.31-2.58.2-.57.76-.61,1.19-.77a17.84,17.84,0,0,1,8.58-1.07c4.44.64,7.33,3.29,8.95,7.39a22.08,22.08,0,0,1,1.59,7.62c0,1,.32,2,.29,3.07a1.71,1.71,0,0,1-1.17,1.78,72.89,72.89,0,0,0-10.83,6,99.9,99.9,0,0,0-15.35,12.55c-.64.64-1.33,1.25-2,1.87l-.27-.25"></path>
      <path class="cls-6" d="M126.07,237.78c-1.89-1.44-3.43-3.26-5.19-4.84A97.21,97.21,0,0,0,101.12,219c-1.08-.56-2.19-1.05-3.32-1.51a1,1,0,0,1-.75-1.09c.11-4.89.46-9.72,3.3-14a10.41,10.41,0,0,1,8.76-4.75,19.45,19.45,0,0,1,7.65,1.33c.66.24.89.46.5,1.16-2.91,5.15-2.33,10.54-.91,15.93,1.93,7.36,5.51,14,9.54,20.37.19.31.33.64.5,1l-.32.31"></path>
      <path class="cls-5" d="M270,365.44c-3.64,1.17-6.39,3.73-9.58,5.55a7.63,7.63,0,0,1-4,1.1c-3.9,0-7.8-.14-11.7,0a11.08,11.08,0,0,1-7.14-2.15,29.36,29.36,0,0,0-7.92-4.47c6.44-2.73,13-4.72,20-4.75s13.71,2,20.28,4.69"></path>
      <path class="cls-5" d="M189,245.71l5.47,6.67a3.59,3.59,0,0,1-2,.24c-1.55,0-1.94.44-1.71,2a7.64,7.64,0,0,0,10.45,6.09,1.31,1.31,0,0,1,1.83.39c1.57,2,3.18,4,4.77,5.94.06.07,0,.22.06.53-1.73-.36-3.41-.71-5.1-1-2.08-.41-4.16-.77-6.23-1.19-5.21-1.05-8.49-5.07-8.64-10.62a12.31,12.31,0,0,1,0-2.19,44.7,44.7,0,0,1,1.09-6.79"></path>
      <path class="cls-7" d="M126.61,238.34a.91.91,0,0,1-.54-.56l.32-.31a.81.81,0,0,1,.44.64l-.22.23"></path>
      <path class="cls-7" d="M371.3,238.65c-.2-.37,0-.61.29-.81l.27.25c-.15.22-.28.47-.58.53Z"></path>
      <path class="cls-7" d="M410.22,169.73c.11.12.23.29.08.42s-.27,0-.34-.18a3,3,0,0,1,.26-.24"></path>
      <path class="cls-7" d="M88.12,170.28s.08.08.08.12-.07.07-.11.1-.08-.09-.07-.13.07-.06.1-.09"></path>
      <path class="cls-7" d="M126.83,238.12c.13.11.27.27.12.4s-.27,0-.34-.18l.22-.22"></path>
      <path class="cls-7" d="M371.28,238.62l-.21.24c-.08-.25,0-.34.23-.21l0,0"></path>
    </g>
  </g>
</svg>
