<?xml version="1.0" encoding="UTF-8"?>
<svg xmlns="http://www.w3.org/2000/svg" xmlns:xlink="http://www.w3.org/1999/xlink" id="Layer_1" data-name="Layer 1" viewBox="0 0 500 500">
  <defs>
    <style>.cls-1{fill:none;}.cls-2{clip-path:url(#clip-path);}.cls-3{fill:#004272;}.cls-3,.cls-4,.cls-6{fill-rule:evenodd;}.cls-4,.cls-5{fill:#fff;}.cls-6{fill:#8ed8f8;}</style>
    <clipPath id="clip-path">
      <rect class="cls-1" x="-47.64" y="-47.64" width="595.28" height="595.28"></rect>
    </clipPath>
  </defs>
  <title>logo</title>
  <g class="cls-2">
    <g class="cls-2">
      <path class="cls-3" d="M251,71.57c98.44.53,178,80.94,177.48,179.38S347.49,429,249.05,428.43s-178-80.94-177.48-179.38S152.51,71.05,251,71.57"></path>
      <path class="cls-4" d="M250.92,77.8c95.05.5,171.79,78.06,171.28,173.12S344.14,422.71,249.08,422.2,77.29,344.14,77.8,249.08,155.86,77.29,250.92,77.8"></path>
      <path class="cls-3" d="M250.88,84A166,166,0,1,1,84,249.12,166,166,0,0,1,250.88,84"></path>
      <path class="cls-4" d="M250.68,121.71a128.29,128.29,0,1,1-129,127.61,128.3,128.3,0,0,1,129-127.61"></path>
      <path class="cls-5" d="M394.4,255.75l-.53,6.61,9.39-2.6Zm-6.86,8.38,2.86-.83.72-9L388.37,253a10.31,10.31,0,0,1-2.16-1.24,1.67,1.67,0,0,1-.46-1.48,2.13,2.13,0,0,1,.73-1.45,1.92,1.92,0,0,1,1.46-.53,3.3,3.3,0,0,1,.93.22c.31.13.74.33,1.3.61L404.09,256l1.43.7a7.47,7.47,0,0,1,1.39.85,2.94,2.94,0,0,1,.85,1.08,3.12,3.12,0,0,1,.23,1.57,3.08,3.08,0,0,1-.48,1.54,3,3,0,0,1-1,.94,6.08,6.08,0,0,1-1.25.55c-.44.15-1,.33-1.76.54l-14.75,4.63a7.11,7.11,0,0,1-2.43.49,2,2,0,0,1-1.36-.75,2.12,2.12,0,0,1-.51-1.6,2,2,0,0,1,.26-.89,1.89,1.89,0,0,1,.56-.6,5.05,5.05,0,0,1,1-.46c.46-.17.88-.3,1.23-.42m15-39.08-.71-4.09-6,1,.69,4a11.09,11.09,0,0,0,.74,2.64,3.18,3.18,0,0,0,1.23,1.5,2.75,2.75,0,0,0,1.93.26,2.9,2.9,0,0,0,1.53-.74,2.78,2.78,0,0,0,.81-1.46,8.92,8.92,0,0,0-.2-3.12m-9.64-.94-.27-1.56-7,1.22a3,3,0,0,1-2.15-.26,2.34,2.34,0,0,1-.53-3.25,3.11,3.11,0,0,1,1.92-.93l16.83-2.91a2.94,2.94,0,0,1,2.19.28,2.89,2.89,0,0,1,1,2l1.25,7.21a23,23,0,0,1,.31,2.57,6.46,6.46,0,0,1-.18,2,5.56,5.56,0,0,1-.93,2,5.48,5.48,0,0,1-1.66,1.52,6.18,6.18,0,0,1-2.2.8,5.53,5.53,0,0,1-4.15-.7,8.07,8.07,0,0,1-2.8-3.83,8.26,8.26,0,0,1-1.46,2.58,19.57,19.57,0,0,1-2.27,2.37,21,21,0,0,1-2.27,1.74,4.92,4.92,0,0,1-1.44.73,1.64,1.64,0,0,1-.91-.12,2.05,2.05,0,0,1-.8-.64,2.39,2.39,0,0,1-.43-1.07,2.11,2.11,0,0,1,.13-1.31,3.33,3.33,0,0,1,.74-1c.31-.31.78-.73,1.4-1.27l2.65-2.29a17.16,17.16,0,0,0,2.18-2.13,4.34,4.34,0,0,0,.9-1.74,5.21,5.21,0,0,0,0-2m3.39-23.46-1.79-4.57-15,5.87a3,3,0,0,1-2.15.17,2.29,2.29,0,0,1-1.17-3,2.93,2.93,0,0,1,1.69-1.33l15-5.87-1.78-4.57a2.55,2.55,0,0,1-.16-1.78,1.81,1.81,0,0,1,1.06-1,1.7,1.7,0,0,1,1.48,0,2.52,2.52,0,0,1,1.08,1.39l5.21,13.33a2.46,2.46,0,0,1,.15,1.81,1.87,1.87,0,0,1-2.51,1,2.52,2.52,0,0,1-1.1-1.42m-28.66-23.22,15.25-8.57a2.9,2.9,0,0,1,2.08-.46,2.08,2.08,0,0,1,1.39,1.06,2.16,2.16,0,0,1,.21,1.76,2.89,2.89,0,0,1-1.48,1.56l-15.24,8.58a3,3,0,0,1-2.1.46,2.13,2.13,0,0,1-1.4-1.1,2.07,2.07,0,0,1-.19-1.73,3,3,0,0,1,1.48-1.56m-2.58-32.28-4.29,15.09,10-8.62a2.9,2.9,0,0,1,1.82-.84,1.83,1.83,0,0,1,1.46.71,1.88,1.88,0,0,1,.51,1.57,2.89,2.89,0,0,1-1.1,1.69l-13.24,11.38c-1.47,1.28-2.74,1.3-3.79.08a3.2,3.2,0,0,1-.58-1,2.71,2.71,0,0,1-.17-1,5,5,0,0,1,.16-1.18c.09-.4.2-.81.31-1.22l4.3-14.83-9.86,8.48a2.8,2.8,0,0,1-1.84.81,2,2,0,0,1-1.48-.73,1.93,1.93,0,0,1-.51-1.59,2.86,2.86,0,0,1,1.08-1.69l13-11.17a5.09,5.09,0,0,1,1.46-.93,2.46,2.46,0,0,1,1.47,0A2.56,2.56,0,0,1,365,141a2.35,2.35,0,0,1,.62,1.84,4.53,4.53,0,0,1-.22,1.07c-.11.4-.24.82-.37,1.26M316.3,110.27l-2.63,5.1,3.66,1.9a8.34,8.34,0,0,0,2.46.9,2.44,2.44,0,0,0,1.8-.43,2.68,2.68,0,0,0,1-1.09,2.21,2.21,0,0,0,0-2.53,9.23,9.23,0,0,0-3-2.17Zm.05,10.12-4.16-2.15-3,5.76,4.29,2.22c2.71,1.4,4.56,1.12,5.57-.83a2.69,2.69,0,0,0,.07-2.71,6.65,6.65,0,0,0-2.79-2.29m-4.23,8.92-6-3.12a2.81,2.81,0,0,1-1.56-1.55,3,3,0,0,1,.4-2.15l7.67-14.84a2.93,2.93,0,0,1,1.55-1.58,2.85,2.85,0,0,1,2.15.39l6.39,3.3A17.57,17.57,0,0,1,325,111.2a5.84,5.84,0,0,1,1.51,1.64,5.53,5.53,0,0,1,.69,1.7,5.13,5.13,0,0,1,.09,1.83,5.27,5.27,0,0,1-.56,1.78,5.13,5.13,0,0,1-5.2,2.81c2.16,2.16,2.63,4.44,1.4,6.82a6.08,6.08,0,0,1-2.39,2.55,5.72,5.72,0,0,1-3.3.77,8.7,8.7,0,0,1-2.35-.54,23.64,23.64,0,0,1-2.81-1.25m-36.46-22.16,2.45-10.4a3,3,0,0,1,1.07-1.84,2.08,2.08,0,0,1,1.73-.3,2.11,2.11,0,0,1,1.45,1,3,3,0,0,1,.13,2.13L280,108.42a9.78,9.78,0,0,0-.31,3.12,3.61,3.61,0,0,0,1,2.23,5.38,5.38,0,0,0,2.73,1.35,4.44,4.44,0,0,0,3.95-.5,6.94,6.94,0,0,0,2-3.89L291.91,100A3,3,0,0,1,293,98.15a2.13,2.13,0,0,1,1.74-.28,2.19,2.19,0,0,1,1.44,1,3,3,0,0,1,.14,2.15l-2.46,10.39a16,16,0,0,1-1.49,4.11,6.67,6.67,0,0,1-2.57,2.54,7.51,7.51,0,0,1-3.12.94,12.21,12.21,0,0,1-3.77-.36,15.41,15.41,0,0,1-4.16-1.55,6.59,6.59,0,0,1-3.53-5.64,15.12,15.12,0,0,1,.47-4.33m-22.1-12.71L253,110.6l9.12.29a2.47,2.47,0,0,1,1.65.58,1.72,1.72,0,0,1,.54,1.36,1.66,1.66,0,0,1-.62,1.3,2.45,2.45,0,0,1-1.69.45l-10.86-.35a2.87,2.87,0,0,1-2.09-.72,2.91,2.91,0,0,1-.58-2.12l.55-17.1a3,3,0,0,1,.68-2,2.09,2.09,0,0,1,1.64-.63,2.13,2.13,0,0,1,1.62.73,2.93,2.93,0,0,1,.56,2.07M235.34,107.6a6,6,0,0,1-.11,2.35,8.51,8.51,0,0,1-3.68,5.08,10.5,10.5,0,0,1-3.87,1.43,13.94,13.94,0,0,1-3.2.24,9.16,9.16,0,0,1-2.76-.57,8.74,8.74,0,0,1-2.45-1.45,10.48,10.48,0,0,1-1.88-2,11.7,11.7,0,0,1-1.4-2.56,14.54,14.54,0,0,1-.85-3,13.76,13.76,0,0,1-.07-4.86,10.19,10.19,0,0,1,1.56-4,10,10,0,0,1,3-2.86,11.15,11.15,0,0,1,4-1.5,10.35,10.35,0,0,1,4.92.22,8.64,8.64,0,0,1,3.64,2.05,5.22,5.22,0,0,1,1.63,2.75,2,2,0,0,1-.3,1.44,1.74,1.74,0,0,1-1.2.81,1.8,1.8,0,0,1-1.34-.18,5.51,5.51,0,0,1-1.19-1.22,7,7,0,0,0-2.47-2.07,5,5,0,0,0-3-.29,5.3,5.3,0,0,0-4,2.84,9.51,9.51,0,0,0-.58,6.18,11.21,11.21,0,0,0,1.48,4.12,5.32,5.32,0,0,0,2.47,2.17,5.68,5.68,0,0,0,3.22.29,5.41,5.41,0,0,0,3.06-1.52,5.76,5.76,0,0,0,1.5-3.13,5,5,0,0,1,.45-1.54,1.61,1.61,0,0,1,1.25-.78,1.87,1.87,0,0,1,1.45.31,1.9,1.9,0,0,1,.81,1.27m-58.59,25.31L173,127l-9.09-4.16a18.64,18.64,0,0,1-1.8-1,2.61,2.61,0,0,1-.85-.78,1.8,1.8,0,0,1-.21-1.44,2.1,2.1,0,0,1,1-1.27,1.85,1.85,0,0,1,1.46-.32,16,16,0,0,1,2.32,1l7.13,3.44-.09-7.93c0-.49,0-.89,0-1.23a6.32,6.32,0,0,1,.06-1,2.3,2.3,0,0,1,.27-.85,2.22,2.22,0,0,1,.67-.66,2,2,0,0,1,1.49-.3,1.77,1.77,0,0,1,1.17.77,2.77,2.77,0,0,1,.4,1.15,15.22,15.22,0,0,1,0,1.91l-.09,10.18,3.79,5.94a2.94,2.94,0,0,1,.57,2.07,2.13,2.13,0,0,1-1,1.45,2.09,2.09,0,0,1-1.73.31,3,3,0,0,1-1.64-1.41m-26.92-.71-7.4,6.92,3.73,4,6.81-6.38a2.18,2.18,0,0,1,1.44-.71,1.55,1.55,0,0,1,1.2.54,1.65,1.65,0,0,1,.48,1.23,2.22,2.22,0,0,1-.81,1.41l-6.81,6.38,4.33,4.62,7.65-7.16a2.29,2.29,0,0,1,1.5-.74,1.66,1.66,0,0,1,1.29.59,1.63,1.63,0,0,1,.48,1.3,2.33,2.33,0,0,1-.84,1.45L154,154a2.35,2.35,0,0,1-3.89-.13l-11.42-12.19a3.74,3.74,0,0,1-.87-1.35,1.79,1.79,0,0,1,.05-1.27,3.82,3.82,0,0,1,.95-1.27l8.67-8.12a2.35,2.35,0,0,1,1.49-.75,1.67,1.67,0,0,1,1.24.56,1.69,1.69,0,0,1,.49,1.29,2.36,2.36,0,0,1-.84,1.44M119.5,165l6.34,4.52L123.47,157a7.83,7.83,0,0,1-.18-1.45,2.09,2.09,0,0,1,.43-1.16,2.2,2.2,0,0,1,1.38-.94,1.8,1.8,0,0,1,1.47.32,2.71,2.71,0,0,1,1,2l1.05,7.45,11,.11a11.49,11.49,0,0,1,1.93.14,3.29,3.29,0,0,1,1.3.52,1.73,1.73,0,0,1,.71,1.23,2.25,2.25,0,0,1-.47,1.6,2.65,2.65,0,0,1-1.22,1,3.45,3.45,0,0,1-1.45.2l-1.4-.11-9.75-.42.73,5.05,3.74,2.66a2.92,2.92,0,0,1,1.32,1.72,2.16,2.16,0,0,1-.4,1.72,2.1,2.1,0,0,1-.89.72,2,2,0,0,1-1.14.19,2.38,2.38,0,0,1-.95-.36c-.32-.19-.78-.49-1.35-.9l-13.44-9.58a3,3,0,0,1-1.32-1.67,2.06,2.06,0,0,1,.39-1.73,2.16,2.16,0,0,1,1.5-.94,3,3,0,0,1,2,.68m1.46,23.2a5.73,5.73,0,0,1,1.93,1.34,8.2,8.2,0,0,1,1.63,2.43,8.34,8.34,0,0,1,.73,3.37,10.4,10.4,0,0,1-.83,4.05,14.82,14.82,0,0,1-1.5,2.84,9.16,9.16,0,0,1-1.94,2,9,9,0,0,1-2.52,1.32,11.68,11.68,0,0,1-2.73.52,12.56,12.56,0,0,1-2.92-.17,15.67,15.67,0,0,1-3-.88,13.82,13.82,0,0,1-4.16-2.52,10.12,10.12,0,0,1-2.53-3.42,9.78,9.78,0,0,1-.86-4,11.09,11.09,0,0,1,.82-4.16,10.54,10.54,0,0,1,2.79-4.06,8.77,8.77,0,0,1,3.68-2,5.24,5.24,0,0,1,3.19.08,2,2,0,0,1,1.06,1,1.69,1.69,0,0,1,0,1.44,1.83,1.83,0,0,1-.86,1.05,5.94,5.94,0,0,1-1.67.36,6.87,6.87,0,0,0-3.06,1,5,5,0,0,0-1.85,2.41,5.31,5.31,0,0,0,.3,4.88,9.49,9.49,0,0,0,4.94,3.76,11.07,11.07,0,0,0,4.27.94,5.47,5.47,0,0,0,3.16-.95,5.84,5.84,0,0,0,2-2.58,5.5,5.5,0,0,0,.33-3.4,5.73,5.73,0,0,0-1.87-2.93,5,5,0,0,1-1.06-1.2,1.61,1.61,0,0,1,0-1.47,1.89,1.89,0,0,1,1-1.07,1.85,1.85,0,0,1,1.51,0m-15.57,34.6a10.4,10.4,0,0,0-4.3.24,6,6,0,0,0-3,1.88,6.18,6.18,0,0,0-1.33,3.21,5.92,5.92,0,0,0,.18,2.53,5.47,5.47,0,0,0,1.21,2.15,7.35,7.35,0,0,0,2.29,1.61,11.39,11.39,0,0,0,3.3.9,11.72,11.72,0,0,0,3.46,0,7.29,7.29,0,0,0,2.69-1,5.63,5.63,0,0,0,1.75-1.79,6,6,0,0,0,.81-2.39,5.8,5.8,0,0,0-2.8-5.89,10.33,10.33,0,0,0-4.29-1.41m-12.14,4.88A11.8,11.8,0,0,1,95.4,222a9.07,9.07,0,0,1,4.42-3.2,13.43,13.43,0,0,1,6.18-.49,14.76,14.76,0,0,1,4.55,1.29,10.09,10.09,0,0,1,3.36,2.54,9.19,9.19,0,0,1,1.9,3.7,13.39,13.39,0,0,1-1.22,9.23,9.23,9.23,0,0,1-2.79,3.11,10,10,0,0,1-3.91,1.59,14.43,14.43,0,0,1-4.7.1,14.15,14.15,0,0,1-4.57-1.32A10.27,10.27,0,0,1,95.29,236a9.31,9.31,0,0,1-1.84-3.66,12.23,12.23,0,0,1-.2-4.6m2.06,40.83,6.35-.43L101,258.4l-6.35.43a3,3,0,0,1-2.08-.47,2.09,2.09,0,0,1-.79-1.56,2.15,2.15,0,0,1,.56-1.68,2.87,2.87,0,0,1,2-.77l17.45-1.19a3,3,0,0,1,2.1.5,2.17,2.17,0,0,1,.79,1.58,2,2,0,0,1-.58,1.67,3,3,0,0,1-2,.74l-7.45.51.65,9.69,7.45-.51a3,3,0,0,1,2.1.5,2.15,2.15,0,0,1,.79,1.58,2,2,0,0,1-.58,1.67,3,3,0,0,1-2,.74L95.61,273a3,3,0,0,1-2.08-.46,2.07,2.07,0,0,1-.79-1.58,2.16,2.16,0,0,1,.56-1.68,2.93,2.93,0,0,1,2-.77"></path>
      <polygon class="cls-4" points="109.07 295.4 115.88 290.66 114.13 299.31 120.75 304.33 111.97 305.33 109.25 313.18 105.58 305.14 97.28 304.98 103.79 299 101.38 291.06 109.07 295.4"></polygon>
      <polygon class="cls-4" points="390.11 290.81 396.92 286.06 395.16 294.72 401.78 299.73 393.01 300.74 390.29 308.58 386.62 300.55 378.31 300.38 384.82 294.41 382.42 286.46 390.11 290.81"></polygon>
      <path class="cls-6" d="M250.65,127.79A122.21,122.21,0,1,0,372.21,250.65,122.22,122.22,0,0,0,250.65,127.79"></path>
      <path class="cls-5" d="M343.46,371.52l6.15-5a2.89,2.89,0,0,1,1.71-.75,1.59,1.59,0,0,1,1.31.63,1.79,1.79,0,0,1,.41,1.29,2,2,0,0,1-.85,1.33l-8.68,7a2.4,2.4,0,0,1-1.77.63,2,2,0,0,1-1.42-.75,3.6,3.6,0,0,1-.59-1.38,5.53,5.53,0,0,1-.2-1.66c.18-1.93.37-3.62.58-5.08a22.42,22.42,0,0,1,.58-3,13.51,13.51,0,0,0,.5-2.68A7.07,7.07,0,0,0,341,360a4.48,4.48,0,0,0-.81-1.7,3.39,3.39,0,0,0-1.45-1.06,3.28,3.28,0,0,0-1.73-.13,3.47,3.47,0,0,0-1.61.76,3.53,3.53,0,0,0-1.34,3.31,7.87,7.87,0,0,0,.38,1.29,5,5,0,0,1,.36,1.71,1.6,1.6,0,0,1-.67,1.25,1.72,1.72,0,0,1-1.3.4,1.75,1.75,0,0,1-1.24-.75,5.57,5.57,0,0,1-1-2,6.2,6.2,0,0,1-.2-2.48,6.88,6.88,0,0,1,.91-2.64,9,9,0,0,1,2.25-2.56,9.86,9.86,0,0,1,3.53-1.91,5.9,5.9,0,0,1,2.29-.13,6.28,6.28,0,0,1,4,2.25,6.55,6.55,0,0,1,1.42,3.25,10.57,10.57,0,0,1,0,3.07q-.21,1.28-.81,4.17a23.73,23.73,0,0,0-.62,4.21,7.64,7.64,0,0,0,0,1.24m-25.93,3.9a6.54,6.54,0,0,0-1.08-1.59,4.46,4.46,0,0,0-1.36-1,3.68,3.68,0,0,0-1.52-.39,3.4,3.4,0,0,0-1.55.34,3.08,3.08,0,0,0-1.67,2.17,5.11,5.11,0,0,0,.51,3.38,4.9,4.9,0,0,0,2.29,2.46,3.17,3.17,0,0,0,2.8,0,3.54,3.54,0,0,0,1.4-1.21,3.82,3.82,0,0,0,.65-1.9,4.52,4.52,0,0,0-.47-2.23m2.31,4A6.77,6.77,0,0,1,318.6,382a6,6,0,0,1-2.21,1.72,6.42,6.42,0,0,1-2.64.65,6.25,6.25,0,0,1-2.6-.47,7,7,0,0,1-2.25-1.49,8.28,8.28,0,0,1-2.42-5.2,7.08,7.08,0,0,1,.36-2.87,7.22,7.22,0,0,1,1.48-2.49,8.75,8.75,0,0,1,6-2.72,6.82,6.82,0,0,1,3.21.75,9.74,9.74,0,0,1,2.93,2.39,18.08,18.08,0,0,1,2.51,4,19.69,19.69,0,0,1,1.68,4.88,10.93,10.93,0,0,1,.06,4.1,7.17,7.17,0,0,1-1.48,3.19,8.25,8.25,0,0,1-2.91,2.21,7.47,7.47,0,0,1-3.41.8,5.83,5.83,0,0,1-2.8-.72,3.92,3.92,0,0,1-1.61-1.6,1.63,1.63,0,0,1-.06-1.23,1.57,1.57,0,0,1,.87-1,2,2,0,0,1,1.23-.18,2.3,2.3,0,0,1,1.21.65,3,3,0,0,0,1.63.84,2.91,2.91,0,0,0,1.81-.25,3.16,3.16,0,0,0,1.28-1.1,3.82,3.82,0,0,0,.66-1.69q.28-1.94-1.3-5.73m-29.17,19.91-3.83-13.24q-2.88,3.9-4.15,4.28a1.59,1.59,0,0,1-1.23-.18,1.64,1.64,0,0,1-.8-1,1.33,1.33,0,0,1,.15-1.22,11.55,11.55,0,0,1,1.38-1.38,12.2,12.2,0,0,0,2.31-2.56,12,12,0,0,0,1.28-2.59c.33-.92.55-1.48.66-1.7a1.34,1.34,0,0,1,.86-.53,1.57,1.57,0,0,1,1.41.23,2.68,2.68,0,0,1,.94,1.51l4.82,16.65q.84,2.93-1.15,3.5a1.89,1.89,0,0,1-1.6-.18,2.61,2.61,0,0,1-1.05-1.6M244.1,388.12,234,387.35l-.41,5.44,9.3.72a2.17,2.17,0,0,1,1.5.58,1.53,1.53,0,0,1,.41,1.24,1.62,1.62,0,0,1-.59,1.19,2.2,2.2,0,0,1-1.58.36l-9.3-.72-.49,6.31,10.45.81a2.29,2.29,0,0,1,1.56.61,1.69,1.69,0,0,1,.44,1.34,1.64,1.64,0,0,1-.64,1.24,2.25,2.25,0,0,1-1.63.36l-12.19-.93a2.36,2.36,0,0,1-2.54-3l1.28-16.65a3.77,3.77,0,0,1,.41-1.56,1.82,1.82,0,0,1,1-.82,3.67,3.67,0,0,1,1.58-.16l11.84.91a2.25,2.25,0,0,1,1.56.6,1.61,1.61,0,0,1,.43,1.28,1.68,1.68,0,0,1-.62,1.23,2.28,2.28,0,0,1-1.63.35m-30.62,8.12a5.8,5.8,0,0,1-1.28,2,8,8,0,0,1-2.37,1.72,8.4,8.4,0,0,1-3.35.84,10.43,10.43,0,0,1-4.07-.7,13.63,13.63,0,0,1-2.89-1.4,8.63,8.63,0,0,1-3.5-4.35,10.84,10.84,0,0,1-.61-2.7,12.46,12.46,0,0,1,.07-2.92,15.24,15.24,0,0,1,.77-3,13.68,13.68,0,0,1,2.38-4.25,10.39,10.39,0,0,1,3.34-2.65,9.78,9.78,0,0,1,4-1,10.92,10.92,0,0,1,4.19.69,10.34,10.34,0,0,1,4.15,2.65,8.66,8.66,0,0,1,2.12,3.6,5.18,5.18,0,0,1,0,3.19,1.94,1.94,0,0,1-1,1.09,1.73,1.73,0,0,1-1.44.11,1.81,1.81,0,0,1-1.07-.83,5.37,5.37,0,0,1-.42-1.65,6.92,6.92,0,0,0-1.1-3,5.16,5.16,0,0,0-2.48-1.77,5.33,5.33,0,0,0-4.87.47,9.57,9.57,0,0,0-3.59,5.06,11.24,11.24,0,0,0-.79,4.31,5.46,5.46,0,0,0,1.06,3.12,5.7,5.7,0,0,0,2.65,1.86,5.43,5.43,0,0,0,3.4.21,5.77,5.77,0,0,0,2.87-2,4.71,4.71,0,0,1,1.16-1.1,1.59,1.59,0,0,1,1.47-.06,1.87,1.87,0,0,1,1.1,1,1.82,1.82,0,0,1,.07,1.5m-37.36-30.77.65,15.67,6.82-11.32a2.91,2.91,0,0,1,1.47-1.37,2.09,2.09,0,0,1,2.58,1.55,2.85,2.85,0,0,1-.52,1.95l-9,15q-1.51,2.5-3.58,1.25a3.18,3.18,0,0,1-.85-.71,2.8,2.8,0,0,1-.49-.94,5.3,5.3,0,0,1-.21-1.16c0-.42-.07-.84-.09-1.27l-.56-15.42-6.71,11.14a2.8,2.8,0,0,1-1.49,1.34,2,2,0,0,1-1.64-.23,1.9,1.9,0,0,1-1-1.35,2.79,2.79,0,0,1,.49-1.94L170.85,363a4.84,4.84,0,0,1,1.09-1.34,2.5,2.5,0,0,1,1.4-.47,2.61,2.61,0,0,1,1.45.38,2.49,2.49,0,0,1,.79.7,2.81,2.81,0,0,1,.38.85,5.4,5.4,0,0,1,.12,1.09c0,.41,0,.85,0,1.31m-31.23-2.07,11.67-13a2.93,2.93,0,0,1,1.83-1.1,2,2,0,0,1,1.65.56,2.14,2.14,0,0,1,.77,1.6,2.88,2.88,0,0,1-.9,1.94l-11.67,13a2.88,2.88,0,0,1-1.84,1.11,2.12,2.12,0,0,1-1.68-.58,2.09,2.09,0,0,1-.73-1.58,3,3,0,0,1,.9-2m-8.31-14.66a6.49,6.49,0,0,1-3.47,1.46,6.81,6.81,0,0,1-3.86-.78,11.36,11.36,0,0,1-3.68-3.13,10.7,10.7,0,0,1-2.44-5,7.28,7.28,0,0,1,.31-3.4,5.36,5.36,0,0,1,1.67-2.56,1.93,1.93,0,0,1,1.44-.44,2,2,0,0,1,1.36.76,1.7,1.7,0,0,1,.4,1.22,3.5,3.5,0,0,1-.52,1.5,9.19,9.19,0,0,0-.8,1.83,3.7,3.7,0,0,0,0,1.82,5.22,5.22,0,0,0,1.12,2.12,5.29,5.29,0,0,0,2.76,1.94,2.79,2.79,0,0,0,2.6-.49,2.43,2.43,0,0,0,1-1.65,4.29,4.29,0,0,0-.27-2c-.26-.7-.66-1.61-1.19-2.71a21.38,21.38,0,0,1-1.5-3.93,6.51,6.51,0,0,1,0-3.28,5.36,5.36,0,0,1,1.91-2.76A5.54,5.54,0,0,1,136.5,328a6.4,6.4,0,0,1,3.52.88,11.77,11.77,0,0,1,3.39,3,11,11,0,0,1,1.82,3.07,7.6,7.6,0,0,1,.51,2.77,5.92,5.92,0,0,1-.47,2.23,4.21,4.21,0,0,1-1.12,1.49,2.14,2.14,0,0,1-1.49.46,1.77,1.77,0,0,1-1.38-.7,1.62,1.62,0,0,1-.44-1.15,5.1,5.1,0,0,1,.44-1.47,5.9,5.9,0,0,0,.61-2.37,4.3,4.3,0,0,0-1.16-2.57,4.73,4.73,0,0,0-2.36-1.7,2.22,2.22,0,0,0-2.11.32,1.89,1.89,0,0,0-.67,1,3.13,3.13,0,0,0,0,1.3,8.11,8.11,0,0,0,.38,1.35c.18.41.48,1.09.91,2a34.66,34.66,0,0,1,1.38,3.26,10.21,10.21,0,0,1,.62,2.82,5.22,5.22,0,0,1-.44,2.5,6.29,6.29,0,0,1-1.84,2.25m215.09-9.45,4.9-6.13a1.73,1.73,0,0,1,2.73-.4c1,.78.82,1.49,0,2.54l-5,6.24,3.57,3.56a6.74,6.74,0,0,1,1.44-4,7.42,7.42,0,0,1,5-3,7.18,7.18,0,0,1,5.43,1.71,7.45,7.45,0,0,1,3.09,5.33,8.46,8.46,0,0,1-2.1,6.07c-1.61,2-5.72,4.26-7.87,2.74a1.91,1.91,0,0,1-.62-2.64c.86-1.14,2.84-.2,4.2-.77a4.41,4.41,0,0,0,1.75-1.43,4.06,4.06,0,0,0-.68-6.27c-1.85-1.41-4-1.29-5.89,1.11a6.28,6.28,0,0,0-1.07,2.57c-.54,2.56-2.28,3.68-4.24,1.68l-4.6-4.71a3.29,3.29,0,0,1-1.16-2,4.35,4.35,0,0,1,1.17-2.24"></path>
      <path class="cls-3" d="M336.73,179.51c1.8,8.26,5.4,29.67,5.59,32.87a36.61,36.61,0,0,0,2.17,8A86.2,86.2,0,0,0,350.18,233c5.13,8.62,0,28.78,0,28.84a9.65,9.65,0,0,1-1.31,2.95l-14,21.78a9.9,9.9,0,0,1-5.86,4.47c.28,1.22.49,2.51.81,3.71a18.68,18.68,0,0,1-1,12.61,12.52,12.52,0,0,1-3.39,4.25,21.49,21.49,0,0,1-4.12,9.12,19.29,19.29,0,0,1-9.83,5.8,22.74,22.74,0,0,1-9.74.26,16.33,16.33,0,0,1-5.16-1.93,26,26,0,0,1-2.28,1.27,31.3,31.3,0,0,1,.55,3.31c.24,2.07.31,4.28.34,6.37.13,7.91-.11,8.12-5.07,12.43-.25.22-.56.48-1,.85-2.57,2.39-5,4.34-9.13,5.14-5.77,1.12-10.53-1.23-15.07-4.27.08,2.2-3.47,5-12.37,4.27a53.36,53.36,0,0,0-10.63.64c-4.24.54-8.88-.95-12.81-2.39a41.61,41.61,0,0,1-9.26-4.68,14.77,14.77,0,0,1-4.84-7.05c-.9.29-1.86.55-2.9.79-9.86,2.18-14-3.23-15.63-10.48-.75-3.38-.34-5.52-.44-8.69a33.26,33.26,0,0,0-1.27-5,10.34,10.34,0,0,1-.36-3.5,18.54,18.54,0,0,1-8.72-6.27A14.1,14.1,0,0,1,183.82,295c2.13-6.94-3.79-12.64-8.69-17-6.48-5.7-9.59-7.95-13.95-16.79a9.89,9.89,0,0,1-13.46-8.07c-1.26-10.23,1.63-28.65,2.64-37.49,1.69-14.8,3.69-30.46,4.46-34.25,1.7-8.27,11.07-15.77,16.44-18.44,8.61-4.29,11.77-6.17,14.9-7.8,4.32-2.24,8.36-4.11,10.5-5.33,5.82-3.29,17.17-4.29,28-4.4,10.2-.1,19.44.43,22.67.63,5.89.36,11.69,3.37,15.36,5.7l8.65-1.46c5.86-1.2,43.08,4.3,47.43,7.26A115.81,115.81,0,0,1,333.09,170c2.41,2.37,2.77,5.46,3.64,9.5"></path>
      <path class="cls-4" d="M237.45,289.05c.32-.19,10.59,3.23,14.55,3s15.26-3.27,17.33-4.44a7.39,7.39,0,0,0,2.43-1.75,43.55,43.55,0,0,0,4.22,4.09c2.12,1.67,6.32,5.39,6.32,5.39l-6.25-1.24s.66,5.48,2.38,6.78a21.41,21.41,0,0,1,1.72,1.29c.05,0-7.41-2.13-9-4.95s-.46-4.34-2.36-4.87-11.85,3.21-16,3.28-11.77-2.46-13.45-1.11-1.22,6.65,1.05,6.8,8.46-3.17,11.87-3,12.52,2.82,14.8,3.73,2.09.91,2.09.91-12.1-.74-15.68.07-11.28,4-15.08,2.71-3.85-3.72-5.16-3.32-1.16,10.23.35,10.2,5.65-1.42,8.11-1.46,8.16,2.14,10.23,1.92,9.42-2.42,12.82-2.48l5.86-.1s-12.11,10.6-16.08,10.85-4.35-.31-4.35-.31-.26-4.34-8.4-5-9.64.53-11.17-.77-5.63-9.17-7.19-11.79-2.7-3.36-1-4.9,7.81-7.69,10.44-8.86,4.16-.45,4.53-.65Zm-28.56,31.63c-2.95.79-.87,6,1.76,5.22,4.57-1.28,3.45-6.6-1.78-5.2ZM282,307.18c-2.13.55-.66,4.3,1.23,3.76,3.27-.92,2.5-4.76-1.28-3.75Zm21.48-.52c-3.55,1-1,7.2,2.12,6.31,5.49-1.54,4.18-8-2.14-6.29Zm-74.12,24.62c-2.84.76-.86,5.72,1.66,5,4.4-1.23,3.32-6.33-1.7-5Zm46.39.2c-3.5.94-1.06,7.11,2.08,6.23,5.47-1.54,4.14-7.9-2.11-6.22Zm-59.35-33.4s.84-6.05,2.69-8.16,15.11-12.72,15.11-12.72,7.61,2.9,10.87,5.3a79.37,79.37,0,0,1,7.09,6.13l.61,2a16.41,16.41,0,0,1,1.6-5.68c1.5-3.05,8.94-7.89,10.44-8.29a9,9,0,0,1,2.27-.42s7.06,3.48,10.08,3.81,3.4-.06,3.4-.06a9.61,9.61,0,0,0,2.91,4.11,6.56,6.56,0,0,1,2.5,3l4.94,10.5s1.57-5.69.4-7.57-2.14-3.55-2.14-3.55l-2.44-12.83s-.31,6.07-2.4,5.91a33.08,33.08,0,0,1-10.44-3.23c-3.41-1.86-4.23-4.09-4.23-4.09A16.38,16.38,0,0,0,269,267c-.78-2.25-3.85-4.47-5.36-4.44l-1.52,0s3,.71,3.25,2.22.66,5.85.3,6.8-8,6.74-10.84,7.55-5.46,1.79-8.51-.24-8.38-3.84-9.54-5.33-1.58-3.75-.28-5.1,3.92-3.46,3.92-3.46-2.48-1.29-3.77.44-3.56,2.7-3.14,5-.86,5.12-2.53,6.66-6,5.39-9.14,8.09-4.09,3.66-4.81,6.88a29.92,29.92,0,0,0-.64,6.05m-10.14-75.73,4.43,11.38c14.06-5.53,15,3.31,25.67,6.31,2.85.14,5.95-5.45,5.6-8-.39-2.82-1-2.89-1.15-3.29.49.36,2.73,2.65,2.29,5.23s-1.13,3.87-1.93,7.31.38,15.9.38,15.9a4.1,4.1,0,0,0-2.48-2.53,16,16,0,0,0-6.86-.38l.67-4.06s-6.82,2.33-8.75,3.58-5.87.22-9.59-2.53-3.76-5.44-5-7.26c-2.19-3.23-3.05-7.36-5.68-10.92-2.34,3.85-5.32,14.27,2.36,24.31,2.95,3.79,11.75,9.94,18.57,5.94a8.74,8.74,0,0,0,1.94-1.26s-6.24,7.93-8.13,11.52-7,8.6-7,8.6a22,22,0,0,0-1.6-8.17c-1.74-4.76-1.73-7.46-4.24-10.72s-4.48-5.31-4.88-7.14-1,4.66.47,6.6,3.56,13.49,4.56,15.49c2.06,3.92,1,5.19.3,8.78.05,0-6.93,4.38-9.67,6.28s-5.19,6.29-2.38,9.24,11.36,4.9,15.46,1.84a51.11,51.11,0,0,0,4.23-3.4,42.84,42.84,0,0,0,1.26,4.34s2.85,2.4.9,3.29-3.78.18-3.68-1a3.36,3.36,0,0,0-.28-1.95l-7.91,9.05s1.67,5.73,1.7,7.56-1.29,10.91,4.08,9.73,6.55-2.93,6.5-6-.68-4.52-.25-7.59.78-4.78.78-4.78l2.25.92s-1.13,7.5,1.58,8.56,8.35,2.06,9.8.7a20.68,20.68,0,0,1,3.51-2.51s-6.75,6.23-9,8.84-1.47,7.73.4,9.66,11.71,5.56,14.64,5.39,3.18-.42,3.18-.42-5-2.95-4.91-6.61,3.41-4.32,5.36-4.36,3.15,1.09,4,3a5.36,5.36,0,0,1-.24,4.73c-.49.62-.36,1-.36,1l8.62.39-3.22-2.39-1.62-1.68a34.28,34.28,0,0,0,7.88-2.8c3.2-1.77,13.53-10.26,13.53-10.26s-1.64,4.31-2.8,8.49-3,5.23,2.35,8.53,7.66,1.7,10.47-.91,2.94-1.88,2.87-5.91-.23-7.1-1.26-9.77-3.24-3.74-5.1-5.3-3.47-2.88-3.47-2.88,8.49,2.8,10.18,1.54,5.22-2.41,6.79-3.9,1.79-2.6,1-6-.08-4.77,2.4-2.73,3.09,9.12,7.52,10.16,8.91-.88,10.35-2.62,4-7.29.19-10.65-2.39-4.24-2.39-4.24l4.93,1.62a26.18,26.18,0,0,1,2.23,2.67c.63.94,2.78-2.13,1.61-6.64s-1.25-9.15-6.06-11.16-7-3.06-10.33-3.38-3.43-.07-3.43-.07.76-13.35.82-17.14,3.33-6.29,3.33-6.29a52.41,52.41,0,0,1-.42-9.78c.45-4.07,3.73-12.18,3.73-12.18L297,229.44l-3,2.64s2.52,5.59,1.81,7.31-.95,1.48-.95,1.48l-3.81-1.05a2.93,2.93,0,0,1-.2,3.2c-1.15,1.46-1.68,1.5-1.68,1.5l-.8-4.06-.84-.59c-.41,3.06-.39,4.34-3.06,6.35A7.56,7.56,0,0,1,279,248a23.78,23.78,0,0,1-3.32-.93l.3,2.58a14.93,14.93,0,0,0,4.61,1.15c2,0,9-4.44,9-4.44s-2.26,3.95-4.32,4.72-2.79,1.76-6.46,1.45-9.85-3.14-9.85-3.14,2.05,5.6,5.53,8.72a35,35,0,0,0,8.41,5.12s13.34-7.07,15.85-10.41,3.36-4.34,3.36-4.34-3.77,9-5.12,16.23a44.25,44.25,0,0,0-.36,15.55,23.8,23.8,0,0,0,.8,3.78,48.52,48.52,0,0,0-8.52-12c-5.59-5.81-8.41-5.37-14.13-11.52s-6-9.32-8.86-10.62-4.25,3.86-4.95,5.34c1.67-3.71,1.2-15.38-.18-17.23-1.73-1.76-2.58-2.06-2.76-4.12a10.24,10.24,0,0,1,2.21-6.77s-2.35,5.06-1.35,6.63,8.12,5,8.12,5c10.1-2.17,10.75-14.08,28.07-11.66,0,0-8.66-18.11-9.05-19s-7.3-12.72-10.16-15.13a37.17,37.17,0,0,0-3.84-3s-9.44,6.76-13.67,9.4-9.47,11.78-9.47,11.78-3-3.75-8.61-10.14-15.76-13.56-15.76-13.56S219.7,202,217.2,205.81s-11,16.57-11,16.57Zm9.5,18.52,4.11.35s-1.44,2.75,1,3.17,2.61-2.23,2.61-2.23a30.62,30.62,0,0,0,4.88,2.09c-2.52,3.64-8.7,3.89-11.2,1.47-1.06-1-1.5-3.46-1.4-4.85m58.87,1.69,3.27-1.65s.85,2.26,2.58,1.94a2.12,2.12,0,0,0,1.77-3c.15-.53,3.46-.6,4.34-.31-.62,2.64-1.72,4.19-3.05,5s-4.29,1.52-6.09.34a15.08,15.08,0,0,1-2.82-2.3m52.46-60.82c-.54-3.19-1.18-4.85-2.15-5.9,0,0-6.09-6.59-11.64-10S273.17,160,273.17,160l-13,2.19s-7.09-5.86-13.6-6.26-37-2.14-45.22,2.49c-4.1,2.32-16.86,8.81-24.34,12.48,0,0-11.34,5.83-12.71,12.5s-7.17,56.17-7.1,62.09.14,6.63.14,6.63l8-7.49s4,16.89,12.92,23.4a50.14,50.14,0,0,1,6.55,5.75c1.28-2.9,4.62-10.72,3.53-12-1.33-1.61-6.82-18.8-10.48-23.3s-8.14-1.51-5.28-3.82,5.42-29.1,5.39-29.1-.31-.32,3,5.5,9.65,11.88,9.65,11.88l3.67-14.4L204.45,211s3.28-2,9.32-8.63,6.41-28.13,6.38-28.12,4.28.88,9.24,7,22.37,12,22.37,12L272,176.3s4.73,8,6.37,11.3,5.94,3.14,9.18,3.11,6.77-6.31,6.74-6.3-.26,2.27-.55,5.88-4.08,8.2-4.08,8.2l6,11.31s3.93-.73,7.73-5.66A19.61,19.61,0,0,0,307.48,194a19.29,19.29,0,0,1,3.1,10.05c.09,5.87,2.47,10.38,6.4,13.25s12-4.12,12-4.1a155.06,155.06,0,0,1-6.57,16.73c-4.09,8.86-9.5,15.8-10.08,21s6.69,9.32,6.67,9.34,1,0,4.49-4.31,5.64-16.07,5.6-16.06,3.38,5.49,2.23,16.59-3.13,6.55-4.11,8.21-.9,4.23-.77,12.72a29,29,0,0,1-.2,4.15l14.23-22.1s4.16-16.31,1.12-21.42-9.06-18.82-9.21-25.46ZM212.53,244.12s3.31,3.19,5.26,4.08,9.46,1,9.46,1-3.33,2.29-5.69,2.33c-3.13,0-7.08-1.42-8.48-4.31a9,9,0,0,1-.56-3.11Z"></path>
    </g>
  </g>
</svg>
