<?xml version="1.0" encoding="UTF-8"?>
<!-- Generator: Adobe Illustrator 16.0.0, SVG Export Plug-In . SVG Version: 6.00 Build 0)  -->
<svg xmlns="http://www.w3.org/2000/svg" xmlns:xlink="http://www.w3.org/1999/xlink" version="1.1" id="Vrstva_1" x="0px" y="0px" width="1000px" height="1000px" viewBox="0 0 1000 1000" xml:space="preserve">
<g>
	<g>
		<defs>
			<rect id="SVGID_1_" x="-108.97" y="-108.97" width="1217.939" height="1217.939"></rect>
		</defs>
		<clipPath id="SVGID_2_">
			<use xlink:href="#SVGID_1_" overflow="visible"></use>
		</clipPath>
		<g clip-path="url(#SVGID_2_)">
			<defs>
				<rect id="SVGID_3_" x="-108.97" y="-108.97" width="1217.939" height="1217.939"></rect>
			</defs>
			<clipPath id="SVGID_4_">
				<use xlink:href="#SVGID_3_" overflow="visible"></use>
			</clipPath>
			<path clip-path="url(#SVGID_4_)" fill-rule="evenodd" clip-rule="evenodd" fill="#FFFFFF" d="M499.879,907.818     c-41.4,0-82.838,1.106-124.195-0.262c-60.194-1.995-102.971-31.547-128.091-86.314c-5.925-12.918-8.373-26.939-11.495-40.703     c-7.833-34.538-15.683-69.071-23.294-103.654c-3.325-15.107-6.031-30.353-9.172-45.5c-0.321-1.55-1.404-3.196-2.604-4.269     c-8.834-7.877-18.643-14.848-26.536-23.558c-18.966-20.933-28.967-45.779-28.879-74.327c0.068-21.947-0.583-43.927,0.408-65.833     c1.441-31.898,15.541-57.961,39.616-78.706c4.959-4.271,10.253-8.157,15.253-12.382c1.16-0.978,2.22-2.521,2.545-3.978     c12.38-55.759,24.48-111.578,37.023-167.301c12.762-56.697,59.299-99.534,116.813-107.642c9.424-1.33,19.068-1.455,28.613-1.501     c31.31-0.154,62.622,0.008,93.932,0.004c44.731-0.004,89.462,0.084,134.192-0.131c18.644-0.088,36.979,1.396,54.616,7.856     c40.791,14.946,69.659,42.487,84.846,83.171c5.847,15.665,9.143,32.339,12.85,48.726c9.549,42.237,19.055,84.493,27.693,126.92     c1.954,9.609,6.312,15.81,13.865,21.303c18.357,13.346,31.652,30.772,39.554,52.15c4.615,12.496,6.989,25.424,7.014,38.754     c0.032,19.347,0.213,38.698-0.037,58.042c-0.442,34.119-13.882,62.395-39.229,85.053c-5.107,4.566-10.743,8.541-15.944,13.012     c-1.439,1.238-2.839,3.153-3.171,4.955c-10.349,56.097-23.864,111.501-36.563,167.078     c-12.681,55.489-57.563,97.562-114.014,106.997c-8.37,1.397-16.965,1.972-25.458,2.015c-40.048,0.203-80.099,0.092-120.149,0.092     V907.818z M499.568,879.788c40.672,0,81.345,0.06,122.018-0.028c18.242-0.041,35.65-3.961,51.847-12.492     c28.863-15.205,48.394-38.386,56.84-69.917c6.699-25.017,12.135-50.379,17.757-75.671c6.815-30.665,13.308-61.399,19.781-92.14     c1.649-7.837,3.602-15.489,9.7-21.103c4.503-4.141,9.399-7.87,14.248-11.618c23.094-17.863,34.521-41.439,34.616-70.552     c0.066-19.347,0.045-38.696-0.016-58.045c-0.012-3.108-0.178-6.259-0.701-9.318c-5.755-33.8-40.225-53.171-72.32-40.613     c-66.6,26.059-133.175,52.176-199.76,78.268c-73.238,28.703-146.501,57.349-219.708,86.134     c-28.94,11.38-45.094,42.616-37.384,72.825c10.634,41.67,21.624,83.254,32.658,124.821c5.272,19.863,23.791,31.26,43.794,26.967     c6.554-1.407,12.889-3.887,19.259-6.065c4.79-1.64,9.798-3.013,14.148-5.49c15.482-8.811,20.216-28.589,10.923-44.504     c-18.043-30.909-31.649-63.592-40.036-98.445c-5.34-22.185,4.661-43.058,25.237-51.201     c30.939-12.243,61.833-24.616,92.976-36.314c46.371-17.424,92.942-34.31,139.427-51.421     c41.722-15.358,83.436-30.738,125.176-46.046c9.969-3.655,18.402,2.331,18.318,12.949c-0.121,15.075-0.248,30.155-0.635,45.227     c-0.29,11.223-4.845,20.49-13.923,27.304c-4.736,3.552-9.566,6.979-14.391,10.412c-16.644,11.836-27.977,27.5-32.79,47.358     c-7.157,29.507-13.929,59.111-20.595,88.737c-6.212,27.606-11.83,55.352-18.154,82.935     c-5.961,25.981-29.894,45.023-56.531,45.938c-20.263,0.698-40.519,1.625-60.771,2.544c-30.009,1.36-60.012,2.833-90.018,4.207     c-27.627,1.264-55.254,2.563-82.889,3.619c-7.04,0.268-14.269,0.566-21.142-0.663c-34.101-6.1-57.639-25.462-67.363-58.835     c-10.201-35.008-18.502-70.566-27.637-105.882c-3.711-14.347-7.329-28.72-11.212-43.02c-1.974-7.263-9.356-11.378-16.577-9.712     c-7.056,1.629-12.096,8.994-10.7,16.032c2.437,12.306,4.886,24.613,7.624,36.854c7.938,35.508,16.057,70.975,24.03,106.476     c3.005,13.374,6.015,26.764,12.769,38.85c22.134,39.604,56.061,59.978,101.338,60.534     C419.05,880.177,459.312,879.786,499.568,879.788 M499.853,119.589c-39.944,0-79.891-0.167-119.832,0.127     c-9.076,0.065-18.385,0.732-27.17,2.848c-40.298,9.709-67.762,34.393-81.715,73.369c-4.205,11.741-6.478,24.21-9.197,36.443     c-10.228,46.047-20.446,92.096-30.272,138.231c-2.286,10.73-6.903,19.23-15.871,25.716c-6.464,4.671-12.682,9.841-18.29,15.5     c-14.992,15.142-23.359,33.556-23.876,54.9c-0.545,22.559-0.211,45.14-0.151,67.711c0.01,2.985,0.38,6.034,1.056,8.943     c7.533,32.496,40.758,49.826,71.882,37.626c78.735-30.865,157.486-61.69,236.226-92.542     c60.991-23.894,122.014-47.706,182.943-71.752c29.11-11.49,45.281-42.486,37.604-72.771     c-10.644-41.988-21.791-83.851-32.993-125.696c-5.115-19.107-23.826-30.487-43.126-26.192c-8.66,1.927-16.918,5.585-25.515,7.881     c-20.622,5.508-30.647,29.47-18.806,49.21c18.472,30.78,31.705,63.806,39.908,98.822c4.934,21.069-5.382,41.764-25.442,49.728     c-30.444,12.082-60.833,24.323-91.508,35.792c-59.21,22.142-118.603,43.803-177.925,65.648     c-29.466,10.85-58.936,21.698-88.424,32.484c-9.309,3.404-18.108-2.29-18.135-11.96c-0.041-15.284,0.098-30.574,0.536-45.849     c0.346-12.151,5.461-21.977,15.646-28.984c4.791-3.295,9.473-6.756,14.162-10.197c14.428-10.593,24.96-24.241,29.888-41.45     c4.785-16.722,8.688-33.718,12.475-50.706c9.133-40.974,17.956-82.017,26.938-123.026c6.285-28.692,29.724-47.849,59.094-48.762     c19.64-0.607,39.265-1.633,58.894-2.519c26.477-1.195,52.952-2.437,79.427-3.654c16.617-0.765,33.235-1.557,49.855-2.27     c17.656-0.756,35.319-2.056,52.977-1.998c30.104,0.098,53.335,13.54,70.034,38.456c7.437,11.093,10.348,23.863,13.605,36.523     c11.355,44.158,22.76,88.302,34.19,132.443c2.09,8.061,9.471,12.62,17.011,10.717c7.683-1.941,12.024-9.252,10.3-17.36     c-4.706-22.107-9.229-44.252-14.161-66.309c-6.669-29.841-13.12-59.747-20.612-89.386c-13.08-51.718-57.147-85.596-110.55-85.721     C580.573,119.514,540.212,119.589,499.853,119.589 M535.684,794.936c1.339,0,1.957,0.031,2.571-0.005     c27.6-1.674,55.2-3.344,82.799-5.044c9.368-0.574,17.284-7.158,19.319-16.224c2.613-11.64,5.047-23.316,7.591-34.973     c5.442-24.933,10.767-49.892,16.409-74.776c4.612-20.33,9.604-40.572,14.453-60.849c4.702-19.66,13.968-36.901,27.315-52.061     c8.875-10.073,19.632-17.82,30.453-25.529c2.84-2.021,3.476-4.559,2.023-8.356c-61.707,22.715-123.422,45.43-185.551,68.295     c0.837,0.549,1.241,0.834,1.665,1.09c12.323,7.435,22.846,16.873,31.422,28.437c10.11,13.635,16.682,28.779,19.618,45.546     c1.845,10.537,1.833,21.078,1.168,31.69c-0.826,13.205-3.616,25.872-9.758,37.673c-7.118,13.669-17.678,24.531-28.776,34.913     C557.73,774.743,546.925,784.582,535.684,794.936 M446.915,413.871c-0.806-0.507-1.22-0.78-1.641-1.034     c-12.325-7.425-22.835-16.869-31.42-28.416c-10.062-13.537-16.599-28.591-19.583-45.231c-1.944-10.842-1.93-21.696-1.191-32.62     c0.734-10.855,2.843-21.372,7.046-31.433c5.843-13.992,15.49-25.239,26.25-35.555c11.461-10.989,23.254-21.631,34.894-32.432     c0.755-0.701,1.433-1.491,2.268-2.37c-4.352,0-8.197-0.186-12.016,0.033c-19.715,1.132-39.428,2.329-59.138,3.592     c-5.8,0.373-11.751,0.342-17.333,1.719c-9.966,2.457-14.681,9.884-16.618,19.654c-2.967,14.957-6.275,29.845-9.492,44.748     c-2.603,12.067-5.262,24.123-7.935,36.173c-3.077,13.872-6.128,27.748-9.32,41.595c-3.05,13.24-6.421,26.408-9.378,39.67     c-4.7,21.082-13.905,39.825-28.188,56.074c-8.643,9.833-18.979,17.623-29.691,24.968c-2.233,1.528-3.916,3.11-3.927,6.183     c-0.012,2.746,1.085,2.991,3.186,2.209c3.204-1.195,6.394-2.435,9.604-3.615c26.654-9.807,53.309-19.607,79.963-29.407     c23.25-8.545,46.498-17.088,69.745-25.64C430.844,419.849,438.675,416.927,446.915,413.871 M499.822,604.526     c-40.791-0.116-74.177,32.867-74.867,72.87c-0.7,40.683,31.684,75.961,74.093,76.219c41.176,0.25,75.041-33.02,75.168-73.563     C574.348,638.066,541.43,604.646,499.822,604.526 M496.503,394.538c37.965,2.02,74.7-26.34,77.543-69.509     c2.619-39.716-26.8-75.417-68.698-78.553c-39.996-2.994-76.42,26.366-79.399,69.086     C423.01,357.667,455.639,392.8,496.503,394.538"></path>
			<path clip-path="url(#SVGID_4_)" fill-rule="evenodd" clip-rule="evenodd" fill="#070909" d="M499.567,879.786     c-40.256,0-80.518,0.391-120.769-0.103c-45.276-0.557-79.202-20.93-101.338-60.534c-6.753-12.084-9.764-25.476-12.767-38.85     c-7.975-35.501-16.094-70.968-24.032-106.476c-2.737-12.239-5.185-24.549-7.624-36.855c-1.396-7.038,3.646-14.402,10.7-16.032     c7.221-1.665,14.605,2.45,16.577,9.713c3.883,14.3,7.5,28.673,11.212,43.019c9.137,35.316,17.436,70.875,27.637,105.882     c9.726,33.372,33.262,52.736,67.363,58.836c6.873,1.229,14.104,0.931,21.144,0.662c27.633-1.055,55.26-2.354,82.887-3.619     c30.006-1.373,60.011-2.846,90.019-4.206c20.252-0.919,40.508-1.847,60.771-2.544c26.638-0.914,50.571-19.954,56.531-45.938     c6.326-27.582,11.944-55.328,18.156-82.934c6.666-29.626,13.438-59.23,20.593-88.737c4.816-19.856,16.146-35.523,32.791-47.358     c4.824-3.434,9.655-6.86,14.39-10.413c9.08-6.813,13.632-16.081,13.923-27.303c0.387-15.073,0.516-30.152,0.635-45.227     c0.084-10.619-8.348-16.605-18.316-12.949c-41.742,15.308-83.456,30.688-125.178,46.044     c-46.482,17.113-93.056,34.001-139.424,51.423c-31.144,11.698-62.036,24.07-92.978,36.314     c-20.577,8.144-30.575,29.016-25.235,51.203c8.387,34.852,21.993,67.533,40.036,98.442c9.291,15.916,4.559,35.694-10.923,44.505     c-4.352,2.478-9.361,3.853-14.15,5.489c-6.369,2.179-12.704,4.659-19.257,6.066c-20.003,4.292-38.524-7.102-43.794-26.967     c-11.036-41.567-22.025-83.151-32.66-124.821c-7.709-30.207,8.443-61.445,37.384-72.825     c73.207-28.785,146.47-57.431,219.711-86.135c66.584-26.092,133.159-52.209,199.759-78.267     c32.095-12.558,66.563,6.813,72.318,40.615c0.522,3.057,0.689,6.208,0.7,9.316c0.062,19.348,0.082,38.697,0.017,58.044     c-0.094,29.112-11.522,52.688-34.616,70.553c-4.848,3.747-9.745,7.479-14.246,11.618c-6.101,5.613-8.053,13.265-9.702,21.103     c-6.472,30.739-12.964,61.474-19.78,92.14c-5.623,25.292-11.057,50.654-17.758,75.671c-8.444,31.531-27.975,54.712-56.838,69.915     c-16.197,8.532-33.607,12.452-51.847,12.493C580.914,879.848,540.239,879.788,499.567,879.786"></path>
			<path clip-path="url(#SVGID_4_)" fill-rule="evenodd" clip-rule="evenodd" fill="#070909" d="M499.853,119.588     c40.36,0,80.721-0.076,121.081,0.019c53.402,0.124,97.469,34.002,110.547,85.721c7.494,29.64,13.945,59.545,20.615,89.386     c4.928,22.055,9.455,44.202,14.16,66.308c1.725,8.108-2.616,15.421-10.3,17.36c-7.542,1.903-14.921-2.656-17.011-10.717     c-11.431-44.138-22.834-88.284-34.192-132.441c-3.255-12.663-6.169-25.432-13.604-36.523     c-16.699-24.918-39.93-38.36-70.034-38.456c-17.656-0.057-35.32,1.242-52.977,1.997c-16.622,0.711-33.238,1.505-49.855,2.271     c-26.477,1.216-52.95,2.46-79.427,3.655c-19.629,0.884-39.254,1.909-58.894,2.519c-29.37,0.91-52.812,20.069-59.094,48.762     c-8.982,41.008-17.804,82.051-26.938,123.025c-3.787,16.988-7.688,33.982-12.477,50.705     c-4.924,17.208-15.457,30.857-29.886,41.451c-4.689,3.439-9.373,6.899-14.162,10.195c-10.185,7.008-15.3,16.833-15.646,28.984     c-0.438,15.278-0.577,30.565-0.536,45.849c0.027,9.674,8.826,15.365,18.136,11.96c29.489-10.786,58.957-21.632,88.421-32.484     c59.324-21.845,118.716-43.503,177.927-65.648c30.675-11.47,61.063-23.71,91.506-35.792     c20.063-7.961,30.379-28.659,25.444-49.729c-8.202-35.016-21.438-68.041-39.907-98.822c-11.843-19.74-1.819-43.702,18.805-49.21     c8.598-2.296,16.854-5.954,25.516-7.881c19.297-4.294,38.01,7.085,43.125,26.195c11.2,41.842,22.351,83.705,32.991,125.693     c7.679,30.287-8.492,61.282-37.603,72.774c-60.928,24.046-121.954,47.855-182.943,71.751     c-78.74,30.852-157.493,61.677-236.226,92.54c-31.124,12.2-64.348-5.127-71.882-37.626c-0.675-2.909-1.048-5.957-1.056-8.942     c-0.059-22.572-0.395-45.154,0.152-67.712c0.517-21.344,8.881-39.758,23.876-54.9c5.607-5.659,11.825-10.827,18.289-15.5     c8.965-6.486,13.585-14.984,15.871-25.716c9.827-46.133,20.045-92.185,30.272-138.231c2.719-12.233,4.993-24.701,9.195-36.443     c13.956-38.974,41.419-63.659,81.715-73.367c8.787-2.118,18.097-2.782,27.173-2.85     C419.963,119.421,459.909,119.588,499.853,119.588"></path>
			<path clip-path="url(#SVGID_4_)" fill-rule="evenodd" clip-rule="evenodd" fill="#F26D27" d="M535.684,794.936     c11.241-10.355,22.046-20.194,32.723-30.175c11.099-10.379,21.658-21.241,28.776-34.911c6.142-11.801,8.931-24.468,9.758-37.673     c0.664-10.614,0.677-21.153-1.169-31.689c-2.937-16.77-9.508-31.914-19.617-45.549c-8.576-11.562-19.099-20.999-31.422-28.437     c-0.422-0.254-0.828-0.539-1.663-1.086c62.126-22.869,123.841-45.584,185.551-68.297c1.45,3.798,0.814,6.335-2.025,8.356     c-10.821,7.707-21.579,15.456-30.453,25.529c-13.346,15.159-22.614,32.4-27.315,52.062c-4.85,20.273-9.842,40.516-14.453,60.845     c-5.643,24.888-10.965,49.848-16.409,74.779c-2.546,11.656-4.978,23.333-7.591,34.973c-2.035,9.065-9.951,15.647-19.317,16.225     c-27.602,1.7-55.201,3.37-82.802,5.043C537.641,794.968,537.021,794.936,535.684,794.936"></path>
			<path clip-path="url(#SVGID_4_)" fill-rule="evenodd" clip-rule="evenodd" fill="#F26D27" d="M446.915,413.87     c-8.239,3.057-16.071,5.979-23.916,8.868c-23.247,8.555-46.497,17.094-69.744,25.641c-26.656,9.8-53.311,19.6-79.963,29.407     c-3.211,1.18-6.401,2.419-9.604,3.614c-2.101,0.782-3.198,0.539-3.185-2.208c0.01-3.074,1.693-4.656,3.926-6.184     c10.712-7.345,21.049-15.134,29.691-24.967c14.283-16.249,23.488-34.992,28.188-56.075c2.956-13.26,6.328-26.43,9.378-39.669     c3.192-13.846,6.24-27.724,9.317-41.595c2.674-12.051,5.334-24.106,7.937-36.172c3.217-14.905,6.524-29.793,9.492-44.75     c1.938-9.77,6.649-17.194,16.618-19.654c5.582-1.375,11.533-1.346,17.334-1.716c19.708-1.267,39.421-2.463,59.137-3.594     c3.82-0.22,7.665-0.031,12.016-0.031c-0.837,0.875-1.512,1.665-2.267,2.366c-11.64,10.804-23.433,21.442-34.895,32.432     c-10.76,10.315-20.409,21.563-26.252,35.555c-4.2,10.061-6.312,20.577-7.044,31.436c-0.738,10.923-0.755,21.775,1.191,32.617     c2.985,16.64,9.521,31.695,19.583,45.231c8.585,11.547,19.095,20.994,31.42,28.419     C445.695,413.093,446.109,413.362,446.915,413.87"></path>
			<path clip-path="url(#SVGID_4_)" fill-rule="evenodd" clip-rule="evenodd" fill="#070909" d="M499.821,604.526     c41.607,0.121,74.526,33.54,74.394,75.526c-0.127,40.543-33.991,73.813-75.165,73.563c-42.409-0.258-74.795-35.537-74.095-76.222     C425.644,637.394,459.03,604.408,499.821,604.526"></path>
			<path clip-path="url(#SVGID_4_)" fill-rule="evenodd" clip-rule="evenodd" fill="#070909" d="M496.503,394.538     c-40.865-1.737-73.494-36.871-70.554-78.975c2.979-42.72,39.403-72.081,79.399-69.086c41.898,3.136,71.317,38.837,68.698,78.553     C571.203,368.198,534.469,396.558,496.503,394.538"></path>
		</g>
	</g>
</g>
</svg>
