<?xml version="1.0" encoding="UTF-8"?>
<!-- Generator: Adobe Illustrator 16.0.0, SVG Export Plug-In . SVG Version: 6.00 Build 0)  -->
<svg xmlns="http://www.w3.org/2000/svg" xmlns:xlink="http://www.w3.org/1999/xlink" version="1.1" id="Vrstva_1" x="0px" y="0px" width="343px" height="343px" viewBox="0 0 343 343" xml:space="preserve">
<g>
	<g>
		<defs>
			<rect id="SVGID_1_" x="-7.125" y="-7.125" width="357.25" height="357.25"></rect>
		</defs>
		<clipPath id="SVGID_2_">
			<use xlink:href="#SVGID_1_" overflow="visible"></use>
		</clipPath>
		<g clip-path="url(#SVGID_2_)">
			<defs>
				<rect id="SVGID_3_" x="-7.125" y="-7.125" width="357.25" height="357.25"></rect>
			</defs>
			<clipPath id="SVGID_4_">
				<use xlink:href="#SVGID_3_" overflow="visible"></use>
			</clipPath>
			<path clip-path="url(#SVGID_4_)" fill="#E0E0E0" d="M288.834,239.595c0,0,0.497-7.195,3.312-32.828     c-2.549-0.183-8.159-0.632-12.31-0.967c4.146-11.785,6.407-24.457,6.407-37.659c0-62.677-50.809-113.485-113.483-113.485     S59.276,105.464,59.276,168.141c0,13.202,2.263,25.874,6.407,37.659c-4.15,0.335-9.759,0.784-12.309,0.967     c2.814,25.633,3.311,32.828,3.311,32.828l-1.656,26.362c0,0,37.809-5.146,50.231-6.588     c18.864,13.981,42.214,22.254,67.499,22.254c25.283,0,48.634-8.272,67.499-22.254c12.421,1.441,50.231,6.588,50.231,6.588     L288.834,239.595z"></path>
			<path clip-path="url(#SVGID_4_)" fill="#E0E0E0" d="M172.76,287.582c-25,0-48.843-7.605-69.111-22.02     c-14.037,1.704-47.459,6.251-47.814,6.3l-7.207,0.98l2.084-33.211c-0.139-1.77-0.842-10.177-3.26-32.215l-0.675-6.148l6.17-0.444     c1.136-0.082,2.894-0.218,4.802-0.368c-2.944-10.483-4.432-21.319-4.432-32.315c0-31.905,12.424-61.9,34.984-84.46     c22.56-22.559,52.554-34.984,84.458-34.984c31.903,0,61.898,12.425,84.457,34.984c22.562,22.56,34.985,52.555,34.985,84.46     c0,10.995-1.488,21.832-4.433,32.315c1.907,0.15,3.665,0.286,4.804,0.368l6.17,0.444l-0.675,6.148     c-2.419,22.031-3.122,30.44-3.261,32.215l2.085,33.211l-7.207-0.98c-0.355-0.049-33.778-4.596-47.814-6.3     C221.603,279.977,197.76,287.582,172.76,287.582 M106.915,253.18l1.894,1.403c18.61,13.791,40.724,21.081,63.951,21.081     s45.341-7.29,63.951-21.081l1.893-1.403l2.342,0.271c9.011,1.045,31.514,4.059,43.142,5.627l-1.224-19.502l0.027-0.392     c0.018-0.274,0.452-6.414,2.666-26.949c-2.241-0.177-4.54-0.362-6.2-0.497l-7.706-0.622l2.565-7.293     c4.027-11.452,6.07-23.458,6.07-35.683c0-59.291-48.237-107.526-107.526-107.526c-59.29,0-107.525,48.236-107.525,107.526     c0,12.226,2.042,24.23,6.07,35.683l2.565,7.293l-7.706,0.622c-1.661,0.135-3.959,0.32-6.2,0.497     c2.213,20.535,2.648,26.675,2.666,26.949l0.027,0.392l-1.224,19.502c11.628-1.568,34.131-4.582,43.141-5.627L106.915,253.18z"></path>
			<path clip-path="url(#SVGID_4_)" fill="#FFFFFF" d="M261.533,168.094c0,49.1-39.803,88.903-88.903,88.903     c-49.099,0-88.903-39.803-88.903-88.903c0-49.099,39.804-88.903,88.903-88.903C221.73,79.191,261.533,118.995,261.533,168.094"></path>
			<path clip-path="url(#SVGID_4_)" fill="#EE2324" d="M250.051,168.271c0,40.659-34.615,73.619-77.314,73.619     s-77.314-32.96-77.314-73.619c0-40.66,34.615-73.619,77.314-73.619S250.051,127.611,250.051,168.271"></path>
			<path clip-path="url(#SVGID_4_)" fill="#0B2C4B" d="M172.76,54.655c-62.675,0-113.483,50.809-113.483,113.485     c0,62.674,50.809,113.483,113.483,113.483s113.483-50.809,113.483-113.483C286.243,105.464,235.435,54.655,172.76,54.655      M172.76,247.695c-43.938,0-79.556-35.619-79.556-79.555c0-43.938,35.618-79.557,79.556-79.557s79.556,35.619,79.556,79.557     C252.315,212.076,216.697,247.695,172.76,247.695"></path>
			<path clip-path="url(#SVGID_4_)" fill="#0B2C4B" d="M200.006,143.119c0,0,44.038,2.173,70.781,37.552     c2.709,7.62,2.907,18.768,2.907,18.768l-3.537,12.255l-27.968,12.56l-170.262-4.95l-2.952-25.164c0,0,28.401-42.848,76.935-44.3     c33.086-5.611,39.708-6.25,39.708-6.25L200.006,143.119z"></path>
			<polygon clip-path="url(#SVGID_4_)" fill="#FFFFFF" points="72.217,161.213 83.517,161.428 83.467,163.998 79.095,163.916      79.016,168.148 83.387,168.232 83.338,170.803 72.039,170.588 72.088,168.018 76.46,168.1 76.541,163.867 72.168,163.785    "></polygon>
			<path clip-path="url(#SVGID_4_)" fill="#FFFFFF" d="M76.825,142.561l7.986,1.661l1.206,1.838l-1.466,7.051l-1.842,1.22     l-7.985-1.661l-1.232-1.859l1.466-7.052L76.825,142.561z M77.243,145.241l-1.069,5.138l6.087,1.266l1.068-5.138L77.243,145.241z"></path>
			<polygon clip-path="url(#SVGID_4_)" fill="#FFFFFF" points="85.129,131.22 92.111,129.013 90.864,132.045 85.463,133.687      85.271,134.157 89.302,135.846 88.325,138.224 77.875,133.929 78.853,131.552 82.896,133.213 83.095,132.729 80.41,127.765      81.656,124.733    "></polygon>
			<polygon clip-path="url(#SVGID_4_)" fill="#FFFFFF" points="96.952,115.75 99.501,116.496 94.862,123.892 85.288,117.886      89.542,111.104 92.092,111.849 88.82,117.067 90.359,118.033 92.723,114.262 95.265,115.021 92.524,119.391 94.063,120.355         "></polygon>
			<polygon clip-path="url(#SVGID_4_)" fill="#FFFFFF" points="99.417,98.825 106.753,105.237 106.912,107.42 103.213,111.65      100.815,110.535 104.34,106.501 99.367,102.155 97.329,101.212    "></polygon>
			<path clip-path="url(#SVGID_4_)" fill="#FFFFFF" d="M114.56,87.489l5.134,6.338l-0.229,2.186l-5.597,4.535l-2.199-0.22     l-5.134-6.339l0.222-2.22l5.597-4.534L114.56,87.489z M113.187,89.829l-4.078,3.303l3.914,4.832l4.078-3.304L113.187,89.829z"></path>
			<polygon clip-path="url(#SVGID_4_)" fill="#FFFFFF" points="129.207,76.912 131.51,88.525 129.226,89.771 127.198,88.721      120.113,81.874 122.423,80.613 128.604,86.639 126.91,78.165    "></polygon>
			<path clip-path="url(#SVGID_4_)" fill="#FFFFFF" d="M143.839,77.784l1.65,4.918l-2.437,0.816l-1.664-4.96l-5.868-4.427     l2.831-0.95l3.475,2.617l1.195-4.183l2.845-0.955L143.839,77.784z M138.51,72.446l2.612-0.875l2.613-2.954l-2.612,0.875     L138.51,72.446z"></path>
			<polygon clip-path="url(#SVGID_4_)" fill="#FFFFFF" points="200.402,76.879 203.31,83.601 200.165,82.669 197.981,77.463      197.495,77.319 196.225,81.503 193.759,80.773 196.965,69.938 199.431,70.667 198.189,74.859 198.692,75.009 203.356,71.829      206.501,72.76    "></polygon>
			<polygon clip-path="url(#SVGID_4_)" fill="#FFFFFF" points="216.49,89.666 208.661,85.81 213.652,75.675 215.959,76.811      212.096,84.653 216.956,87.047    "></polygon>
			<polygon clip-path="url(#SVGID_4_)" fill="#FFFFFF" points="236.16,89.368 230.424,97.244 228.239,97.576 222.79,93.608      222.448,91.436 228.186,83.559 230.225,85.045 225.069,92.125 228.951,94.952 234.108,87.873    "></polygon>
			<path clip-path="url(#SVGID_4_)" fill="#FFFFFF" d="M246.036,105.295l-1.611-0.019l-0.175,1.716l-1.932,1.833l-2.231-0.025     l-5.65-5.952l6.621-6.287l1.141-1.952l6.085,6.409l-0.092,2.231L246.036,105.295z M242.534,105.096l-3.201-3.372l-1.273,1.208     l3.201,3.372L242.534,105.096z M245.718,102.075l-3.201-3.372l-1.318,1.251l3.201,3.372L245.718,102.075z"></path>
			<polygon clip-path="url(#SVGID_4_)" fill="#FFFFFF" points="261.728,121.014 252.086,126.322 250.876,124.124 258.334,120.019      257.844,119.129 259.688,117.306    "></polygon>
			<path clip-path="url(#SVGID_4_)" fill="#FFFFFF" d="M260.328,130.099l3.462-1.29l1.939,0.887l2.294,6.158l-0.881,1.954     l-7.397,2.757l-1.945-0.901l-2.344-6.288l2.069-1.543l2.263,6.072l1.615-0.602l-1.962-5.265L260.328,130.099z M262.082,132.073     l1.628,4.37l1.658-0.617l-1.627-4.37L262.082,132.073z"></path>
			<polygon clip-path="url(#SVGID_4_)" fill="#FFFFFF" points="267.905,154.193 266.617,153.338 265.56,154.632 262.987,155.114      261.227,153.909 260.01,147.417 262.316,146.265 263.483,152.5 265.179,152.182 264.363,147.823 266.684,146.668 267.63,151.723      269.341,151.403 268.304,145.863 270.609,144.711 271.956,151.9 270.75,153.661    "></polygon>
			<polygon clip-path="url(#SVGID_4_)" fill="#FFFFFF" points="266.503,164.361 264.733,164.392 264.837,170.472 262.355,171.191      262.196,161.91 267.521,161.819 268.962,163.195 269.058,168.783 270.828,168.753 270.719,162.395 273.17,161.661      273.307,169.665 271.81,171.199 268.13,171.262 266.596,169.779    "></polygon>
			<path clip-path="url(#SVGID_4_)" fill="#FFFFFF" d="M249.926,172.284c0.075-1.331,0.116-2.671,0.116-4.021     c0-1.094-0.034-2.18-0.085-3.263c-0.009-0.348-0.017-0.537-0.017-0.537l-0.011-0.005c-1.352-25.246-16.05-47.133-37.517-59.384     v-5.894c23.816,13.746,39.847,39.476,39.847,68.952c0,12.235-2.766,23.825-7.699,34.18     C248.586,193.034,249.673,180.354,249.926,172.284"></path>
			<path clip-path="url(#SVGID_4_)" fill="#EE2324" d="M246.496,173.728c-10.833-4.759-26.706-9.489-48.87-11.211     c-0.389,0.474-2.455,6.727-2.455,6.727s27.114,3.421,49.981,15.436C246.155,180.424,246.43,176.233,246.496,173.728"></path>
			<path clip-path="url(#SVGID_4_)" fill="#FFFFFF" d="M95.538,172.292c-0.075-1.331-0.116-2.672-0.116-4.021     c0-1.093,0.035-2.18,0.084-3.262c0.01-0.348,0.018-0.537,0.018-0.537l0.011-0.005c1.352-25.246,16.05-47.134,37.516-59.384     v-5.894c-23.817,13.747-39.847,39.477-39.847,68.952c0,12.235,2.766,23.825,7.701,34.181     C96.877,193.041,95.792,180.361,95.538,172.292"></path>
			<path clip-path="url(#SVGID_4_)" fill="#BC2026" d="M101.497,188.413c21.031-12.189,44.771-17.239,44.771-17.239     s-2.604-6.083-3.035-6.522c-18.826,3.072-32.875,7.948-43.087,12.841C100.215,180.015,100.495,184.184,101.497,188.413"></path>
			<path clip-path="url(#SVGID_4_)" fill="#EE2324" d="M101.498,188.417c15.439-8.948,32.334-14.053,40.229-16.133     c-1.285-1.911-2.357-3.583-2.572-4.014c-12.1,1.147-27.841,6.115-38.979,10.105C100.285,180.928,100.605,184.649,101.498,188.417     "></path>
			<path clip-path="url(#SVGID_4_)" fill="#BC2026" d="M246.496,173.728c-10.833-4.759-26.706-9.489-48.87-11.211     c-0.389,0.474-2.455,6.727-2.455,6.727s2.482,0.313,6.579,1.083c0,0,0.631-2.361,1.127-4.11     c1.516-0.011,20.347,0.612,43.601,8.107C246.484,174.115,246.491,173.917,246.496,173.728"></path>
			<path clip-path="url(#SVGID_4_)" fill="#FFFFFF" d="M246.618,165.38c-22.082-15.812-46.602-17.47-46.602-17.47     s-32.429,3.616-54.077,5.754c-18.992,1.605-34.498,8.812-46.315,16.948c-0.006,0.563-0.012,1.241-0.016,1.925     c10.467-4.793,24.433-9.431,42.695-12.411l1.72-0.28l0.512-0.085l0.364,0.371l1.219,1.246c0.539,0.552,1.004,1.028,3.949,7.907     l0.838,1.958l-0.729,0.351l0.708,2.833l-2.278,0.484c4.262,5.146,12.067,13.086,22.278,17.111     c5.202-2.887,16.862-9.864,24.976-18.509c-0.672-0.102-1.034-0.147-1.041-0.148l-4.028-0.51l-1.206-0.153l0.382-1.155     l1.276-3.858c2.338-7.076,2.76-7.587,3.247-8.182l1.104-1.338l0.33-0.4l0.521,0.04l1.728,0.133     c21.434,1.665,37.254,6.068,48.503,10.725C246.672,167.62,246.654,166.527,246.618,165.38"></path>
			<path clip-path="url(#SVGID_4_)" fill="#0B2C4B" d="M203.823,88.504c-5.936-6.18-25.896-25.597-26.778-26.453     c-0.431-0.474-3.167-3.339-5.928-3.217c-1.13,0.05-2.121,0.586-2.861,1.547c-1.544,2.008-6.933,6.269-10.869,9.378     c-1.974,1.562-3.679,2.908-4.599,3.728c-0.207,0.183-0.495,0.436-0.851,0.748c-13.688,11.972-19.256,19.131-18.052,23.208     c1.339,4.542,2.09,5.817,2.585,6.661c0.093,0.157,0.173,0.292,0.242,0.438c0.214,0.462,0.718,1.229,1.523,2.44     c0.484,0.729,1.199,1.805,1.39,2.187c0.049,0.775-0.205,4.135-0.422,5.855c-0.051,0.414-0.185,1.378-0.358,2.613     c-0.899,6.439-1.38,10.081-1.345,10.884c0.004,0.085,0.003,0.184,0.002,0.301c-0.014,1.451-0.042,4.778,4.8,9.557     c-1.092,3.949-5.049,21.623,6.88,35.59l1.924,2.253l0.286-2.631c2.699,2.837,7.702,7.875,9.153,8.814l1.452,0.937l0.473-1.661     c0.013-0.051,0.029-0.102,0.042-0.154c2.086,0.871,6.169,2.946,9.112,6.763l1.28,1.662l0.89-1.898     c1.254-2.673,2.101-3.978,2.353-4.194c0.337-0.247,1.109-0.745,1.854-1.218l-0.066,1.41l1.681-0.439     c0.989-0.258,6.797-5.369,9.826-8.616l0.309,1.075l1.506-1.247c0.286-0.236,7.042-5.947,8.635-17.539     c1.315-9.56,0.809-15.242,0.597-16.912c0.722-1.122,2.391-3.731,2.72-4.374l0.101-0.19c0.562-1.044,2.05-3.815,1.741-8.068     c-0.052-0.706-0.089-1.486-0.129-2.33c-0.197-4.088-0.464-9.625-2.624-14.868c1.121-1.695,3.564-5.74,3.807-6.256     C207.107,102.188,209.915,94.847,203.823,88.504"></path>
			<path clip-path="url(#SVGID_4_)" fill="#FFFFFF" d="M143.789,118.851c0,0,3.173,3.544,3.933,4.093     c-0.479,0.593-3.051,4.501-1.619,10.051c-0.744-0.31-0.988-0.531-0.988-0.531s-0.662,1.607-0.405,2.391     C143.595,133.813,138.643,129.47,143.789,118.851"></path>
			<path clip-path="url(#SVGID_4_)" fill="#FFFFFF" d="M149.348,117.712c0,0,29.317-2.096,42.647,0.758     c0.684-0.832,9.195-15.88,9.195-15.88s2.826-5.459-1.15-10.325c-3.977-4.866-24.159-25.934-28.117-27.808     c-0.778,0.516-23.929,19.705-28.868,25.764c-4.939,6.061-2.689,9.882-1.625,12.235     C142.496,104.811,149.348,117.712,149.348,117.712"></path>
			<path clip-path="url(#SVGID_4_)" fill="#FFFFFF" d="M194.553,121.958c0,0,2.884,6.766,1.934,12.444     c0.543-0.39,1.372-0.987,1.372-0.987s-0.203,2.677-0.33,3.429c0.979-0.789,3.053-3.389,3.105-5.791     c0.055-2.405,0.179-10.466-1.24-13.604C199.043,117.999,195.319,121.738,194.553,121.958"></path>
			<path clip-path="url(#SVGID_4_)" fill="#E0E0E0" d="M144.249,129.496c0,0-0.377,0.377-0.692,1.032     c-1.159-2.642-0.734-7.9-0.495-10.049c-3.901,9.437,0.592,13.389,1.648,14.376c-0.256-0.783,0.405-2.392,0.405-2.392     s0.244,0.221,0.988,0.532c-0.012-0.049-0.019-0.094-0.031-0.144C144.87,131.504,144.249,129.496,144.249,129.496"></path>
			<path clip-path="url(#SVGID_4_)" fill="#E0E0E0" d="M199.394,117.449c-0.266,0.417-2.467,2.662-3.853,3.823     c0.828-0.178,1.99-0.44,2.733-0.667c0.126,0.37,1.824,8.608,0.817,11.439c-0.314-0.629-0.754-1.07-0.754-1.07     s-0.983,2.265-1.836,3.326c-0.006,0.035-0.011,0.069-0.016,0.103c0.543-0.389,1.372-0.986,1.372-0.986s-0.203,2.676-0.33,3.428     c0.979-0.788,3.053-3.388,3.105-5.791C200.688,128.648,200.813,120.587,199.394,117.449"></path>
			<path clip-path="url(#SVGID_4_)" fill="#FFFFFF" d="M195.343,140.094c-0.39,0.872-2.502,4.242-2.612,5.372     c-0.11,1.127,0.06,5.893-0.071,6.582c-0.381-1.39-1.211-4.722-1.238-5.363c-0.472,0.263-3.662,4.297-3.56,10.27     c-0.417-2.189-1.301-8.568-2.643-9.875c-0.07-0.068-0.141-0.134-0.21-0.2c-0.001-0.002-0.004-0.003-0.006-0.005     c-0.442-0.411-0.896-0.753-1.549-1.013c-2.009-0.946-4.811-1.233-7.26-0.911c-3.176,0.419-3.653,3.349-3.709,3.635     c6.012-0.156,7.647,0.865,7.647,0.865s-0.228,0.314-0.456,0.656c3.91,4.395,3.553,11.002,3.553,11.588     c-1.041-2.998-2.497-3.882-2.868-4.11c-0.085,0.742-1.084,3.168-1.426,3.767c-4.025-4.993-7.591-5.193-7.591-5.193     s-0.248,0.665-0.363,0.932c-0.342-0.36-1.293-0.961-1.608-1.103c-7.706,0.97-8.495,7.286-8.578,7.819     c-0.807-0.895-1.058-3.825-1.096-4.11c-0.337,0.192-0.961,0.861-1.376,1.328c-0.161-3.372,0.83-7.236,2.104-8.749     c1.455-1.726,0.927-2.548,0.889-2.72c3.634-1.057,7.991-0.857,8.429-0.894c-0.134-1.142-0.77-1.808-0.971-2.093     c-1.941-2.169-4.081-2.055-6.193-2.141c-2.112-0.085-4.122,0.646-4.122,0.646l-0.113,0.038l0.001,0.006     c-0.499,0.177-0.907,0.426-1.158,0.782c-1.208,1.71-3.524,6.788-3.562,8.954c-0.23-2.156-0.753-7.963-3.053-9.118     c-0.195,0.411-1.377,3.888-1.355,4.433c-0.228-1.527-0.333-6.979-0.791-8.271c-0.459-1.29-0.587-2.381-1.415-2.344     c0,0-4.03,16.545,2.378,25.999c0.172-0.97,1.063-5.02,1.369-5.355c0.1,1.039,1.894,12.594,8.707,16.024     c0.578-0.507,0.934-1.526,1.093-1.575c0.099,0.398,2.06,3.042,4.619,3.771c-0.48-0.903-2.531-5.547-0.639-9.923     c0.28,0.871,3.633,10.472,5.621,11.909c1.009-0.768,5.663-6.229,6.263-11.71c0.264,0.51,1.91,4.207-0.371,9.766     c0.562-0.024,3.165-1.023,4.301-3.481c0.269,0.63,0.637,1.736,0.637,1.736s7.911-2.555,9.896-17.568     c0.144,1.358,0.527,6.436,0.324,7.328C191.905,165.842,199.054,161.165,195.343,140.094"></path>
			<path clip-path="url(#SVGID_4_)" fill="#E0E0E0" d="M159.718,170.828c0,0-0.715,0.629-1.178,1.387     c-4.247-2.69-6.81-13.706-6.852-14.379c-0.756,0.379-2.313,1.22-3.027,1.892c-0.956-1.663-2.15-11.933-2.503-15.143     c-0.686,5.643-0.941,14.809,3.233,20.967c0.172-0.97,1.063-5.02,1.369-5.355c0.1,1.039,1.894,12.595,8.707,16.024     c0.578-0.507,0.934-1.526,1.093-1.575c0.099,0.398,2.059,3.042,4.619,3.771c-0.385-0.722-1.769-3.841-1.339-7.3     c-0.454,0.832-1.084,2.19-1.263,2.821C160.811,172.76,159.718,170.828,159.718,170.828"></path>
			<path clip-path="url(#SVGID_4_)" fill="#E0E0E0" d="M181.158,170.87c-0.126,0.21-1.051,1.092-1.766,1.892     c-0.672-3.364-3.363-8.746-4.041-9.675c0.123,4.367-4.914,11.609-5.502,12.334c-1.406-0.758-3.564-3.454-4.519-4.702     c1.174,3.169,3.371,8.63,4.832,9.685c1.008-0.768,5.663-6.229,6.262-11.71c0.264,0.51,1.91,4.207-0.371,9.766     c0.562-0.025,3.165-1.024,4.301-3.481c0.269,0.629,0.637,1.736,0.637,1.736s4.559-1.478,7.622-8.756     c-2.047,2.04-6.171,5.683-6.825,6.108C181.788,173.896,181.327,171.542,181.158,170.87"></path>
			<path clip-path="url(#SVGID_4_)" fill="#EE2324" d="M189.437,165.733c-0.258,0.794-0.534,1.536-0.823,2.225"></path>
			<path clip-path="url(#SVGID_4_)" fill="#E0E0E0" d="M195.343,140.094c-0.082,0.181-0.238,0.473-0.435,0.826     c2.146,12.665-2.617,21.348-3.028,22.166c-0.173-0.47-0.53-1.133-0.799-1.606c0.14,1.969,0.264,4.401,0.13,4.994     C191.905,165.842,199.054,161.165,195.343,140.094"></path>
			<path clip-path="url(#SVGID_4_)" fill="#FCCFAF" d="M176.409,152.197c-0.084-0.367,0.217-1.021,0.217-1.021     c-2.026-0.21-4.091-0.284-5.948-0.289c-1.858,0.005-3.924,0.078-5.95,0.289c0,0,0.3,0.655,0.218,1.021     c-0.081,0.367-1.998,1.863-1.813,4.452c0.247-0.196,2.793-2.317,4.591-2.566c-0.054-0.171-0.258-0.813-0.258-0.982     c0.07-0.009,1.474-0.147,3.211-0.185c1.737,0.037,3.141,0.176,3.21,0.185c0,0.17-0.204,0.812-0.259,0.982     c1.799,0.249,4.347,2.37,4.591,2.566C178.406,154.061,176.489,152.564,176.409,152.197"></path>
			<path clip-path="url(#SVGID_4_)" fill="#EE2324" d="M146.295,104.75l4.968,9.811c0,0,27.286-1.078,39.312,0.13     c0.284-0.813,4.829-9.016,4.829-9.016l-13.887-0.347l0.088-28.227l-9.624-8.911l-10.975,8.807l-0.322,27.703L146.295,104.75z"></path>
			<path clip-path="url(#SVGID_4_)" fill="#E0E0E0" d="M159.104,146.63c1.566-1.236,6.373-1.958,6.407-1.962     c-0.967-0.2-1.95-0.2-2.929-0.24c-2.112-0.085-4.122,0.646-4.122,0.646l-0.113,0.038l0.001,0.006     c-0.499,0.177-0.907,0.426-1.158,0.782c-1.208,1.71-3.524,6.788-3.562,8.954c-0.018-0.161-0.037-0.347-0.058-0.545     c0.089,1.019,0.262,1.883,0.236,1.674c-0.041-0.331,0.456-0.827,0.869-1.531c0.041,0.455,0.414,0.911,0.796,2.028     C155.357,153.211,157.531,147.872,159.104,146.63"></path>
			<path clip-path="url(#SVGID_4_)" fill="#E0E0E0" d="M187.137,156.955c0,0,0.218,0.714,0.218,1.148c0,0,0.37-0.354,0.452-1.444     c-0.437-2.415-1.301-8.328-2.588-9.579c-0.07-0.068-0.141-0.135-0.21-0.2c-0.001-0.002-0.004-0.003-0.006-0.005     c-0.442-0.411-0.896-0.753-1.549-1.013c-1.999-0.94-4.781-1.229-7.22-0.915c1.785,0.34,5.754,1.226,7.086,2.605     c1.737,1.799,3.32,8.286,2.699,10.893C186.548,157.576,187.137,156.955,187.137,156.955"></path>
			<path clip-path="url(#SVGID_4_)" fill="#EE2324" d="M156.826,188.947h0.073c-6.29-4.775-10.833-10.125-13.122-13.101     c-8.967,2.084-20.691,6.929-27.865,10.096c0.158,0.244,0.324,0.48,0.485,0.722l-0.008,0.002l1.889,3.285     c0,0,17.033,2.528,38.798-0.823C157.003,189.069,156.917,189.008,156.826,188.947"></path>
			<path clip-path="url(#SVGID_4_)" fill="#EE2324" d="M200.428,174.561c-4.758,5.543-11.04,10.491-16.573,14.29h0.001l-0.331,0.229     c0,0,21.091,3.024,34.439-0.229c2.961-3.438,5.2-6.34,6.576-8.201C215.804,177.836,206.584,175.782,200.428,174.561"></path>
			<path clip-path="url(#SVGID_4_)" fill="#FCCFAF" d="M194.389,133.813c0.282-0.84,0.35-2.31,0.28-3.293     c-0.07-0.984-1.108-6.353-2.218-7.317c-1.183-0.216-17.519-2.854-19.861-2.752c-2.343,0.104-17.963,0.979-21.987,1.972     c0,0-2.668,3.306-2.895,6.01c-0.227,2.705-1.181,5.282,3.534,8.46c-1.011-0.248-2.522-0.662-2.522-0.662s0.252,2.71,0.541,3.817     c0.29,1.108,1.3,3.145,1.48,3.617c0.581-0.467,2.024-1.289,2.262-1.342c0.058,0.399,0.292,2.991,0.931,3.841     c0.44-0.815,1.418-3.908,9.658-3.873c-1.023-1.192-0.168-2.928,0.202-3.554c-0.958-0.24-3.457-0.24-3.457-0.24     c0.446-0.319,4.559-2.321,5.335-2.395c-0.104,0.825-0.972,3.803-0.972,3.803s-0.809,1.157,3.256,2.578     c0.672,0.29,3.454,2.587,7.08-0.493c0.892-0.639,2.652-1.224,2.363-2.171c-0.135-0.449-0.316-1.135-0.467-1.803     c-0.02-0.07-0.032-0.121-0.032-0.121h0.005c-0.154-0.701-0.27-1.365-0.258-1.698c0.562,0.212,4.171,2.174,4.753,2.595     l0.008,0.002h-0.004c0.008,0.005,0.021,0.014,0.027,0.019c-0.063-0.001-0.142-0.008-0.228-0.017     c-0.494,0.005-1.795,0.028-2.696,0.143c0.291,0.779,0.913,2.802-0.015,3.8c1.013,0.002,4.752-0.16,5.108-0.126     c0.373,0.036,3.314,1.987,4.155,4.112c0.592-0.481,1.847-2.295,1.944-3.688c0.371,0.57,0.792,1.646,0.792,1.646     s2.095-0.92,3.091-7.339c-0.037-0.24-0.519-0.272-0.732-0.261c-0.212,0.009-2.813,0.924-2.813,0.924     S193.131,135.548,194.389,133.813"></path>
			<path clip-path="url(#SVGID_4_)" fill="#EFB58E" d="M151.314,143.253c-0.442-1.519-0.903-5.209-0.903-5.209l3.145-0.314     c0,0-0.629-0.692-1.006-1.048c-5.209-2.93-2.53-13.451-2.519-13.493c-0.796,1.137-2.164,3.333-2.323,5.239     c-0.227,2.704-1.182,5.28,3.534,8.459c-1.011-0.247-2.522-0.661-2.522-0.661s0.252,2.71,0.541,3.817     c0.29,1.108,1.3,3.145,1.48,3.617C150.888,143.54,151.09,143.398,151.314,143.253"></path>
			<path clip-path="url(#SVGID_4_)" fill="#FFFFFF" d="M170.511,267.534l0.031,0.03c1.592,0.045,3.294,0.05,5.071-0.005l0.04-0.039     l0.19-0.009c11.271-0.376,22.14-2.839,32.358-7.328c-8.777,2.763-17.922,4.466-27.281,5.089c0.001,0.002,0.001,0.002,0.002,0.005     c-3.952,0.292-7.854,0.3-10.692,0.24l-0.002,0.003l-0.207-0.005c-0.136-0.003-0.272-0.009-0.409-0.012     c-0.61-0.016-1.158-0.034-1.637-0.053c-0.024-0.001-0.048-0.002-0.074-0.003c-1.257-0.05-2.002-0.098-2.002-0.098v-0.001     c-9.749-0.56-19.273-2.291-28.409-5.167c10.367,4.554,21.393,7.023,32.83,7.345L170.511,267.534z"></path>
			<path clip-path="url(#SVGID_4_)" fill="#EFB58E" d="M192.525,131.762c0.724-2.172,0.321-6.528,0.107-8.359     c-0.06-0.079-0.12-0.149-0.182-0.201c-0.704-0.129-6.78-1.117-12.077-1.873c-0.167-0.023-0.331-0.046-0.496-0.07     c-0.061-0.009-0.122-0.017-0.183-0.026c-0.128-0.018-0.254-0.036-0.381-0.053c-0.13-0.019-0.261-0.036-0.39-0.054     c-0.104-0.015-0.208-0.028-0.312-0.042c-0.15-0.021-0.301-0.041-0.449-0.061c-0.087-0.012-0.174-0.024-0.261-0.035     c-0.173-0.023-0.342-0.045-0.509-0.067c-0.063-0.009-0.128-0.018-0.19-0.025c-0.225-0.029-0.445-0.057-0.659-0.084     c-0.048-0.006-0.094-0.012-0.14-0.018c-0.17-0.021-0.336-0.042-0.498-0.061c-0.063-0.008-0.124-0.016-0.186-0.023     c-0.145-0.017-0.286-0.033-0.423-0.049c-0.061-0.007-0.119-0.014-0.179-0.021c-0.146-0.017-0.287-0.032-0.425-0.046     c-0.039-0.004-0.08-0.009-0.119-0.013c-0.175-0.019-0.344-0.035-0.502-0.049c-0.016-0.002-0.029-0.003-0.043-0.004     c-0.139-0.012-0.27-0.024-0.393-0.034c-0.042-0.003-0.08-0.006-0.119-0.009c-0.094-0.006-0.183-0.013-0.267-0.019     c-0.04-0.002-0.078-0.003-0.116-0.006c-0.078-0.004-0.151-0.006-0.219-0.009c-0.03,0-0.062-0.003-0.089-0.003     c-0.09-0.001-0.172-0.001-0.239,0.002c-0.065,0.003-0.146,0.006-0.231,0.011c-0.022,0.001-0.047,0.001-0.069,0.002     c-0.076,0.004-0.159,0.008-0.248,0.013c-0.021,0.001-0.04,0.001-0.062,0.003c-0.109,0.005-0.229,0.011-0.354,0.018     c-0.045,0.002-0.096,0.005-0.143,0.008c-0.078,0.004-0.158,0.008-0.24,0.013c-0.074,0.004-0.15,0.007-0.228,0.013     c-0.067,0.002-0.137,0.007-0.208,0.01c-0.141,0.008-0.288,0.017-0.44,0.025c-0.084,0.005-0.166,0.01-0.253,0.015     c-0.102,0.006-0.208,0.012-0.314,0.017c-0.064,0.004-0.128,0.008-0.194,0.012c-0.126,0.008-0.254,0.015-0.386,0.022     c-0.025,0.002-0.051,0.004-0.077,0.005c-2.924,0.174-7.101,0.452-10.841,0.788c-0.012,0.001-0.023,0.002-0.035,0.003     c-0.819,0.074-1.616,0.15-2.374,0.229c-0.011,0.001-0.022,0.002-0.033,0.003c7.76-0.292,16.837,0.083,17.363,0.139     c0,0.807-0.373,2.327-0.592,2.927c-1.248,3.043-4.007,1.012-4.007,1.012l-0.125,0.289c0,0-0.269,0.31-1.345,1.615     c-0.641,2.07-3.084,1.34-3.084,1.34l-0.005-0.045l-8.906,0.3l0.141-0.667c0,0-1.743,0.739-2.2,1.617     c3.905,5.697,10.735,3.638,11.061,3.544c-0.025,0.991-0.604,2.643-0.835,3.269c0.025-0.011,0.049-0.021,0.074-0.033     c0.152-0.069,0.303-0.135,0.449-0.2c0.011-0.004,0.021-0.009,0.031-0.013c0.084-0.037,0.167-0.073,0.249-0.108     c0.004-0.001,0.009-0.003,0.013-0.005c0.109-0.047,0.212-0.089,0.315-0.131c0.016-0.007,0.034-0.015,0.05-0.021h0     c0.531-0.217,0.962-0.369,1.164-0.387c0.596-2.327,1.569-3.406,2.35-3.998c0.49,0.332,1.44,0.558,2.532,0.558     c0.996,0,1.875-0.188,2.393-0.472c0.283,0.192,0.81,0.668,1.267,1.751c0.329,0.879,0.68,1.914,0.965,2.993     c0.775,2.938,0.155,3.269,0,3.518c-0.155,0.248-3.176,2.11-4.501,1.951c-1.321-0.158-5.15-1.065-5.165-1.069     c0.09,0.063,0.189,0.127,0.298,0.192c0.006,0.004,0.013,0.008,0.019,0.012c0.11,0.065,0.228,0.132,0.358,0.2     c0.009,0.005,0.02,0.01,0.029,0.015c0.075,0.04,0.154,0.079,0.236,0.118c0.006,0.003,0.013,0.006,0.02,0.01     c0.019,0.009,0.039,0.019,0.059,0.028c0.067,0.031,0.137,0.063,0.208,0.095c0.021,0.01,0.043,0.02,0.064,0.029     c0.014,0.005,0.026,0.012,0.04,0.018c0.072,0.031,0.147,0.062,0.223,0.094c0.04,0.017,0.081,0.034,0.122,0.05     c0.083,0.033,0.17,0.067,0.258,0.101c0.037,0.013,0.072,0.028,0.109,0.042c0.128,0.049,0.26,0.097,0.399,0.146     c0.672,0.29,3.454,2.587,7.08-0.494c0.892-0.64,2.652-1.223,2.363-2.171c-0.135-0.45-0.316-1.135-0.467-1.803     c-0.02-0.071-0.032-0.122-0.032-0.122h0.005c-0.154-0.7-0.27-1.364-0.258-1.697c0.075,0.028,0.207,0.089,0.377,0.172     c0.006,0.002,0.011,0.005,0.017,0.008c0.019,0.009,0.04,0.02,0.06,0.03c1.144,0.567,3.807,2.028,4.3,2.384l0.008,0.003h-0.004     c0.008,0.006,0.021,0.014,0.027,0.02c-0.063-0.002-0.142-0.009-0.228-0.019c-0.494,0.005-1.795,0.029-2.696,0.143     c0.291,0.78,0.913,2.802-0.015,3.801c1.013,0.001,4.752-0.16,5.108-0.126c0.373,0.036,3.314,1.986,4.155,4.112     c0.592-0.481,1.847-2.295,1.944-3.688c0.161,0.247,0.329,0.585,0.47,0.891c1.426-3.49,0.985-4.435,0.911-4.841     c-1.195,0.248-3.521,0.373-5.135,0.309C188.429,138.402,191.595,134.555,192.525,131.762 M177.57,132.348     c-0.893-1.745-0.521-2.209-0.521-2.209l3.27-3.443l3.104-2.009h2.399l2.896,1.82l0.209,0.482c0,0-1.657-0.601-3.479-0.293     c0.704,0.101,3.499,0.886,3.964,3.866C189.009,130.934,185.788,134.961,177.57,132.348"></path>
			<path clip-path="url(#SVGID_4_)" fill="#0B2C4B" d="M154.137,129.998c0,0,1.791-5.153,11.671-0.211     c0.694-0.024,1.446-0.178,1.695-0.228c-0.044,0.291-0.171,0.685-0.274,0.974c0.001,0,0.001,0,0.002,0.001     c-0.026,0.094-0.072,0.225-0.142,0.376c0,0-0.002,0.006-0.002,0.006h0c-0.269,0.572-0.926,1.461-2.515,2.032     c-2.405,0.679-6.357,0.857-10.493-2.91C154.098,130.023,154.117,130.011,154.137,129.998"></path>
			<path clip-path="url(#SVGID_4_)" fill="#FFFFFF" d="M159.966,129.167c-0.023,0.072-0.04,0.147-0.046,0.225     c-0.047,0.66,0.616,1.246,1.479,1.308c0.796,0.057,1.479-0.354,1.619-0.937c0.488,0.236,0.996,0.547,1.516,0.961     c-0.095,0.077-3.114,2.797-6.716-0.887C157.817,129.836,158.648,129.28,159.966,129.167"></path>
			<path clip-path="url(#SVGID_4_)" fill="#0B2C4B" d="M158.713,122.495c1.359,1.537,9.245,2.917,9.245,2.917     s0.702,0.014,1.009-0.088c-0.275,1.086-1.544,2.265-1.908,2.509c0,0-5.533-0.46-9.276-2.688     c-0.044-0.006-0.078-0.011-0.095-0.013c-2.008,0.445-4.745,2.922-4.745,2.922C154.012,122.944,158.203,122.567,158.713,122.495"></path>
			<path clip-path="url(#SVGID_4_)" fill="#0B2C4B" d="M187.924,129.998c0,0-1.79-5.153-11.67-0.211     c-0.694-0.024-1.447-0.178-1.695-0.228c0.044,0.291,0.172,0.685,0.273,0.974c-0.001,0-0.002,0-0.002,0.001     c0.026,0.094,0.072,0.225,0.142,0.376c0,0,0.003,0.006,0.003,0.006c0.27,0.572,0.927,1.461,2.515,2.032     c2.405,0.679,6.357,0.857,10.494-2.91C187.963,130.023,187.943,130.011,187.924,129.998"></path>
			<path clip-path="url(#SVGID_4_)" fill="#0B2C4B" d="M183.389,122.765c-1.359,1.536-9.245,2.915-9.245,2.915     s-0.702,0.015-1.009-0.087c0.275,1.086,1.544,2.265,1.907,2.509c0,0,5.534-0.461,9.276-2.688     c0.044-0.006,0.079-0.011,0.095-0.013c2.009,0.445,4.746,2.922,4.746,2.922C188.089,123.213,183.898,122.836,183.389,122.765"></path>
			<path clip-path="url(#SVGID_4_)" fill="#FFFFFF" d="M182.095,129.167c0.023,0.072,0.04,0.147,0.046,0.225     c0.048,0.66-0.616,1.246-1.479,1.308c-0.796,0.057-1.479-0.354-1.618-0.937c-0.487,0.236-0.995,0.547-1.516,0.961     c0.095,0.077,3.114,2.797,6.716-0.887C184.243,129.836,183.412,129.28,182.095,129.167"></path>
			<path clip-path="url(#SVGID_4_)" fill="#0B2C4B" d="M292.146,206.767c-4.303-0.309-17.331-1.374-17.331-1.374l-8.985-1.199     l-0.476-2.66l-17.002,1.611l-7.118,0.952l-7.427-2.563l-17.479,7.837l-40.722-0.795l-60.323,0.795H90.537     c-1.806-3.814-2.983-6.226-2.983-6.226l-16.849,2.248c0,0-13.027,1.065-17.33,1.374c2.814,25.633,3.311,32.828,3.311,32.828     l-1.655,26.363c0,0,47.397-6.452,53.493-6.932c1.089-0.087,1.115-1.933,0.43-4.899l0.003,0.005l38.136,6.05     c0,0,56.24-2.127,57.398-2.618c1.158-0.49,29.958-3.432,29.958-3.432l3.239-3.993c-1.668,5.235-2.209,8.769-0.69,8.888     c6.095,0.479,53.493,6.932,53.493,6.932l-1.656-26.363C288.834,239.595,289.331,232.399,292.146,206.767"></path>
			<path clip-path="url(#SVGID_4_)" fill="#FFFFFF" d="M105.342,249.085c-0.053-0.919-0.106-1.87-0.157-2.806     c-0.042-0.824-0.083-1.662-0.121-2.473c-0.042-0.877-0.085-1.784-0.132-2.677c-0.059-1.133-0.124-2.284-0.188-3.396     c-0.06-1.102-0.125-2.241-0.186-3.362c-0.048-0.916-0.091-1.849-0.136-2.751c-0.037-0.771-0.074-1.564-0.114-2.344     c-0.058-1.13-0.119-2.26-0.177-3.387c-0.079-1.446-0.158-2.943-0.232-4.414c-0.042-0.849-0.217-1.554-0.547-2.221     c-0.607-1.219-1.196-2.475-1.766-3.691c-0.239-0.512-0.486-1.043-0.733-1.563c-0.059-0.124-0.121-0.244-0.183-0.36     c-0.027-0.054-0.056-0.106-0.083-0.162l-0.164-0.319l-7.856,0.167l-7.496,23.672l-0.33-1.037     c-1.277-4.01-2.597-8.155-3.893-12.231c-0.036-0.112-0.071-0.224-0.107-0.334c-0.445-1.412-0.907-2.871-1.723-4.217     c-0.761-1.257-1.469-2.582-2.154-3.863c-0.16-0.298-0.318-0.598-0.478-0.895c-0.093-0.174-0.377-0.7-1.098-0.7     c-0.046,0-0.096,0.002-0.146,0.007c-0.479,0.041-0.976,0.054-1.458,0.064l-0.225,0.006c-0.973,0.024-1.946,0.046-2.918,0.071     c-1.16,0.029-2.358,0.057-3.539,0.087c-0.34,0.009-0.681,0.029-1.011,0.049c-0.153,0.01-0.306,0.018-0.46,0.025l-0.542,0.029     v0.544c0,0.021,0,0.039-0.002,0.054c-0.002,0.061-0.005,0.144,0.014,0.241c0.123,0.64,0.25,1.278,0.376,1.916     c0.224,1.146,0.457,2.33,0.682,3.496c0.024,0.129,0.051,0.259,0.078,0.39c0.174,0.89,0.342,1.729,0.273,2.594     c-0.1,1.282-0.164,2.584-0.223,3.842c-0.022,0.457-0.045,0.916-0.069,1.373c-0.087,1.698-0.175,3.424-0.259,5.095l-0.145,2.888     c-0.107,2.122-0.219,4.317-0.325,6.476c-0.054,1.067-0.103,2.136-0.153,3.201c-0.06,1.254-0.12,2.548-0.185,3.82     c-0.051,1.021-0.107,2.061-0.161,3.065c-0.041,0.744-0.082,1.49-0.121,2.237c-0.007,0.128,0.003,0.241,0.016,0.363     c0.003,0.048,0.008,0.104,0.012,0.162l0.039,0.616l8.506-1.147l0.061-0.429c0.008-0.048,0.015-0.091,0.022-0.136     c0.018-0.106,0.036-0.219,0.043-0.343c0.101-1.949,0.209-4.041,0.313-6.138c0.057-1.151,0.113-2.306,0.167-3.458     c0.058-1.17,0.113-2.34,0.171-3.512c0.114-2.306,0.231-4.635,0.35-6.948c0.979,2.989,1.953,5.987,2.902,8.914     c1.133,3.492,2.305,7.105,3.474,10.654l0.146,0.444l0.465-0.056c0.165-0.019,0.319-0.038,0.47-0.057     c0.306-0.036,0.595-0.07,0.881-0.104l1.012-0.114c1.532-0.173,3.115-0.35,4.673-0.516c0.332-0.036,0.76-0.203,0.917-0.792     c0.062-0.234,0.138-0.466,0.216-0.711c0.028-0.086,0.056-0.172,0.083-0.257c2.018-6.362,4.033-12.724,6.05-19.085l0.981,19.968     l8.658-0.804l0.029-0.494c0.003-0.043,0.005-0.083,0.009-0.12c0.009-0.09,0.015-0.184,0.011-0.291     C105.412,250.298,105.376,249.691,105.342,249.085"></path>
			<path clip-path="url(#SVGID_4_)" fill="#FFFFFF" d="M280.814,237.231c0-0.265-0.032-0.663-0.314-1.061     c-1.196-1.702-2.439-3.482-3.693-5.292c-0.248-0.356-0.571-0.544-0.985-0.57c-1.148-0.072-2.317-0.151-3.444-0.229     c-0.601-0.04-1.201-0.081-1.8-0.121c-0.86-0.058-1.721-0.113-2.578-0.169l-2.514-0.162c-0.987-0.063-1.977-0.127-2.962-0.19     c-0.463-0.03-0.924-0.063-1.398-0.095l-0.118-0.008v-5.963l10.508,0.495v3.668l8.428,0.516l0.039-0.569     c0.003-0.05,0.008-0.094,0.011-0.131c0.005-0.081,0.01-0.15,0.01-0.228v-1.8c0-1.493,0-3.038,0.006-4.555     c0.001-0.359-0.108-0.679-0.34-0.973c-0.186-0.236-0.371-0.482-0.552-0.722c-0.107-0.145-0.216-0.289-0.325-0.433     c-0.304-0.399-0.608-0.8-0.913-1.197c-0.748-0.976-1.521-1.987-2.273-2.985c-0.188-0.248-0.508-0.583-1.121-0.562     c-0.234,0.007-0.472-0.008-0.728-0.023c-0.157-0.01-0.323-0.018-0.485-0.022l-1.253-0.035c-2.148-0.058-4.372-0.118-6.559-0.17     c-0.962-0.023-1.943-0.045-2.892-0.064c-1.475-0.029-3.001-0.061-4.5-0.104c-0.022-0.001-0.046-0.001-0.069-0.001     c-0.535,0-0.928,0.185-1.271,0.598c-1.185,1.426-2.416,2.88-3.766,4.442c-0.315,0.363-0.462,0.766-0.46,1.265     c0.015,4.137,0.021,8.324,0.018,12.447c-0.001,0.435,0.129,0.802,0.409,1.157l0.435,0.553c1.051,1.329,2.137,2.706,3.169,4.082     c0.397,0.53,0.877,1.021,1.691,1.021c0.092,0,0.189-0.007,0.285-0.021c0.03,0,0.091,0.011,0.146,0.022     c0.071,0.014,0.155,0.029,0.247,0.035c0.978,0.083,1.954,0.163,2.93,0.244c1.504,0.126,3.06,0.255,4.588,0.384     c2.144,0.183,4.317,0.372,6.363,0.554v5.155c-7.68-0.822-13.999-1.437-19.846-1.934l-0.789-0.066l2.363,9.944l0.379,0.061     c0.05,0.008,0.093,0.015,0.13,0.021c0.077,0.013,0.144,0.023,0.215,0.03c0.539,0.06,1.08,0.117,1.619,0.176     c1.113,0.119,2.264,0.242,3.392,0.375c2.538,0.301,5.021,0.609,7.327,0.898c2.355,0.296,5.027,0.631,7.629,0.986     c0.089,0.014,0.172,0.021,0.252,0.021c0.523,0,0.827-0.274,1.012-0.481c1.258-1.412,2.572-2.866,3.906-4.324     c0.304-0.331,0.445-0.707,0.445-1.181C280.807,245.462,280.809,241.003,280.814,237.231"></path>
			<path clip-path="url(#SVGID_4_)" fill="#FFFFFF" d="M251.477,252.065c-0.021-0.124-0.044-0.24-0.076-0.358     c-0.71-2.619-1.421-5.235-2.131-7.854c-1.913-7.034-3.888-14.31-5.798-21.471c-0.548-2.05-1.266-3.698-2.262-5.186     c-0.57-0.855-1.093-1.724-1.644-2.644c-0.24-0.401-0.487-0.812-0.738-1.221l-0.164-0.267l-12.281-0.209l0.159,0.71     c0.015,0.068,0.028,0.13,0.04,0.191c0.027,0.126,0.054,0.245,0.086,0.367l0.236,0.894c0.405,1.538,0.824,3.128,1.246,4.69     c0.059,0.225,0.061,0.406,0.005,0.604c-0.638,2.214-1.28,4.464-1.903,6.642c-0.62,2.168-1.26,4.41-1.896,6.614     c-0.979,3.405-1.985,6.866-2.953,10.212c-0.515,1.776-1.03,3.553-1.543,5.327c-0.039,0.129-0.069,0.257-0.102,0.391     c-0.014,0.062-0.03,0.128-0.049,0.194l-0.014,0.057l-2.338-8.71l-15.945-0.632l-0.054-27.716l-0.498-0.062     c-0.496-0.064-2.268-0.086-3.762-0.086c-1.532,0-3.426,0.018-3.736,0.103l-0.424,0.115v36.386l0.5,0.063     c0.065,0.009,0.123,0.018,0.181,0.025c0.134,0.021,0.271,0.041,0.418,0.046c1.258,0.041,2.517,0.082,3.772,0.123     c0.98,0.031,1.959,0.063,2.941,0.094c0.35,0.014,0.698,0.024,1.048,0.034c1.089,0.035,2.212,0.071,3.315,0.12     c2.349,0.109,4.684,0.233,7.273,0.371c0.874,0.044,1.761,0.096,2.621,0.145c0.912,0.054,1.854,0.108,2.784,0.155     c0.147,0.008,0.304,0.011,0.489,0.011c0.134,0,0.265-0.001,0.401-0.003c0.137-0.001,0.277-0.003,0.421-0.003h0.446l-0.008,0.03     l8.924,0.598l1.82-6.413l10.717,0.768l1.844,6.845l8.82,0.861l-0.153-0.761C251.5,252.188,251.489,252.125,251.477,252.065      M235.581,225.799c0.822,2.854,1.645,5.712,2.477,8.605l0.379,1.317l-5.606-0.318L235.581,225.799z"></path>
			<path clip-path="url(#SVGID_4_)" fill="#FFFFFF" d="M141.068,230.122c0.815-1.074,1.585-2.087,2.375-3.123     c1.07-1.403,2.197-2.877,3.449-4.507c0.563-0.734,1.128-1.47,1.695-2.202c0.589-0.767,1.179-1.53,1.767-2.298     c0.424-0.555,0.862-1.116,1.285-1.662c0.721-0.927,1.466-1.887,2.208-2.875l0.688-0.919h-1.379l-0.084,0.001     c-0.696,0.003-1.393,0.005-2.091,0.009c-1.934,0.009-3.935,0.018-5.901,0.018c-0.287,0-0.574,0-0.864-0.001     c-0.539,0-0.943,0.204-1.272,0.642c-1.271,1.69-2.569,3.403-3.824,5.061c-0.863,1.137-1.724,2.276-2.584,3.415     c-0.594,0.785-1.194,1.586-1.774,2.361c-0.606,0.812-1.235,1.648-1.855,2.469c-0.046,0.062-0.08,0.099-0.102,0.121     c-0.13,0.011-0.271,0.015-0.446,0.015c-0.075,0-0.153-0.001-0.232-0.002v-13.963l-8.483,0.112v37.637l8.43-0.481l0.117-13.964     c0.124-0.005,0.25-0.014,0.378-0.031c0.039-0.005,0.073-0.008,0.105-0.008c0.112,0,0.221,0.021,0.414,0.268     c1.67,2.145,3.375,4.322,5.024,6.43c1.583,2.021,3.219,4.11,4.824,6.169c0.331,0.425,0.715,0.613,1.248,0.613     c0.032-0.001,0.066-0.001,0.101-0.002c1.627-0.065,3.283-0.115,4.884-0.167c0.503-0.016,1.007-0.031,1.512-0.047     c0.596-0.019,1.192-0.037,1.825-0.057l2.078-0.064l-14.335-17.884C140.521,230.842,140.794,230.479,141.068,230.122"></path>
			<path clip-path="url(#SVGID_4_)" fill="#FFFFFF" d="M187.295,216.57c0-0.969,0-1.938-0.002-2.907c0-0.146-0.008-0.279-0.016-0.41     c-0.003-0.054-0.006-0.104-0.007-0.156l-0.024-0.469l-0.464-0.069c-0.496-0.075-2.828-0.081-3.53-0.081     c-2.412,0-3.767,0.039-4.029,0.115l-0.41,0.122v27.239h-13.046c0-1.214,0.002-2.424,0.003-3.634     c0.002-3.121,0.005-6.35-0.005-9.517c-0.006-2.056,0.005-4.145,0.016-6.166c0.012-2.476,0.024-5.036,0.008-7.553l-0.004-0.569     h-8.49l-0.002,5.735c-0.001,3.777-0.002,7.554-0.004,11.33l-0.001,1.799c-0.001,3.884-0.002,7.899-0.013,11.847     c-0.001,0.49,0.155,0.88,0.492,1.225c1.253,1.296,2.558,2.664,3.873,4.066c0.32,0.341,0.69,0.501,1.166,0.501h0.028     c1.998-0.024,3.749-0.038,5.355-0.038h0.314c5.27,0.007,9.317,0.021,13.123,0.044h0.018c0.571,0,1.003-0.188,1.394-0.606     c1.222-1.307,2.455-2.593,3.665-3.826c0.423-0.431,0.611-0.893,0.611-1.499c-0.014-6.974-0.015-14.062-0.016-20.919     L187.295,216.57z"></path>
			<path clip-path="url(#SVGID_4_)" fill="#FFFFFF" d="M118.384,212.849l-8.437,0.149l-0.005,0.562     c-0.062,8.618-0.064,17.361-0.067,25.818c-0.002,3.745-0.004,7.619-0.01,11.433l-0.001,0.621l8.448-0.643l0.001-0.529     c0.045-10.056,0.092-23.329,0.072-36.828L118.384,212.849z"></path>
			<path clip-path="url(#SVGID_4_)" fill="#FFFFFF" d="M229.33,211.026c0.186,0,0.371-0.001,0.555-0.001     c0.187,0,0.37-0.001,0.555-0.001c0.256,0,0.468,0.001,0.665,0.003c1.416,0.018,2.933,0.039,4.442,0.069h0.033     c0.288,0,0.542-0.077,0.797-0.238c1.788-1.148,3.608-2.31,5.37-3.433c0.767-0.49,1.533-0.979,2.3-1.469     c0.073-0.048,0.139-0.097,0.224-0.162c0.044-0.032,0.091-0.069,0.147-0.11l0.373-0.271l-0.462-0.041     c-0.065-0.008-0.122-0.013-0.173-0.019c-0.097-0.011-0.174-0.019-0.256-0.019c-0.438-0.001-0.877-0.001-1.315-0.001h-1.239     c-1.028,0-2.226-0.001-3.415-0.005h-0.006c-0.327,0-0.576,0.128-0.772,0.253c-1.945,1.229-3.925,2.475-5.837,3.681l-1.791,1.126     c-0.072,0.047-0.147,0.095-0.22,0.142l-0.213,0.138l0.11,0.358H229.33z"></path>
			<polygon clip-path="url(#SVGID_4_)" fill="#FFFFFF" points="269.212,212.032 274.423,205.643 269.489,205.546 266.436,207.998      263.479,205.428 258.468,205.329 263.425,211.918    "></polygon>
			<path clip-path="url(#SVGID_4_)" fill="#E0E0E0" d="M87.401,234.48l-0.936,2.957l-1.389,4.389l-1.397-4.386l-0.33-1.036     c-0.146-0.457-0.294-0.92-0.439-1.379c-2.157,0.269-4.288,0.551-6.4,0.837c0.759,2.324,1.513,4.646,2.251,6.922     c1.144,3.527,2.187,6.734,3.244,9.956c0.131-0.016,0.26-0.031,0.389-0.046l0.243-0.028l1.02-0.114     c1.448-0.163,2.94-0.331,4.414-0.488c0.044-0.152,0.091-0.299,0.137-0.443l0.027-0.079c0.031-0.094,0.055-0.17,0.078-0.245     l2.593-8.179l2.968-9.363C91.695,233.987,89.539,234.229,87.401,234.48"></path>
			<path clip-path="url(#SVGID_4_)" fill="#E0E0E0" d="M67.141,237.216c-0.097,1.921-0.196,3.884-0.293,5.821     c-0.044,0.896-0.086,1.792-0.129,2.687l-0.023,0.513l-0.043,0.902c-0.046,0.966-0.092,1.95-0.142,2.922     c-0.051,1.023-0.107,2.064-0.162,3.072l-0.016,0.298c-0.023,0.443-0.048,0.888-0.072,1.332l5.763-0.777     c0.095-1.852,0.197-3.833,0.296-5.818c0.057-1.151,0.113-2.304,0.167-3.456c0.055-1.171,0.113-2.343,0.171-3.514     c0.078-1.604,0.16-3.219,0.242-4.831C70.96,236.644,69.039,236.926,67.141,237.216"></path>
			<path clip-path="url(#SVGID_4_)" fill="#E0E0E0" d="M103.882,249.167c-0.053-0.919-0.107-1.874-0.157-2.813     c-0.04-0.755-0.076-1.522-0.112-2.27l-0.01-0.208c-0.041-0.877-0.083-1.779-0.132-2.67c-0.059-1.131-0.123-2.279-0.187-3.389     l-0.054-0.964c-0.045-0.797-0.09-1.607-0.132-2.406c-0.029-0.536-0.055-1.077-0.082-1.614c-1.936,0.182-3.852,0.371-5.76,0.566     l0.867,17.613l5.831-0.542l-0.028-0.509L103.882,249.167z"></path>
			<path clip-path="url(#SVGID_4_)" fill="#E0E0E0" d="M111.341,232.108c-0.002,2.425-0.003,4.84-0.004,7.23v0.041l-0.001,1.289     c-0.001,3.026-0.003,6.119-0.007,9.184l5.525-0.42c0.024-5.228,0.047-11.281,0.06-17.756     C115.046,231.814,113.188,231.958,111.341,232.108"></path>
			<path clip-path="url(#SVGID_4_)" fill="#E0E0E0" d="M138.391,231.229l0.651-0.856c-4.703,0.209-9.351,0.458-13.938,0.744v17.766     l5.516-0.315l0.105-12.595l0.012-1.378l1.379-0.069c0.104-0.006,0.183-0.011,0.252-0.02c0.12-0.015,0.212-0.021,0.303-0.021     c0.619,0,1.13,0.271,1.566,0.83c1.58,2.029,3.19,4.085,4.755,6.085l0.268,0.342c1.583,2.022,3.22,4.111,4.826,6.173     c0.018,0.022,0.032,0.038,0.04,0.049c0.011,0,0.025,0.001,0.043,0.002l0.026-0.001h0.025c1.604-0.063,3.233-0.115,4.808-0.165     l0.089-0.003l0.744-0.023l0.767-0.024l0.979-0.03l-12.504-15.599L138.391,231.229z"></path>
			<path clip-path="url(#SVGID_4_)" fill="#E0E0E0" d="M180.273,229.569v10.385v1.462h-1.462h-13.045h-1.461v-1.462     c0-1.214,0-2.426,0.001-3.636v-0.31c0.001-2.091,0.002-4.233,0-6.37c-1.859,0.027-3.711,0.058-5.557,0.095v1.647l-0.001,0.61     c0,3.694-0.001,7.497-0.011,11.239c0,0.119,0.013,0.137,0.076,0.202c1.271,1.312,2.58,2.686,3.89,4.085     c0.021,0.022,0.036,0.033,0.042,0.037h0.001c0.005,0,0.024,0.003,0.058,0.003h0.028c2.003-0.026,3.76-0.039,5.354-0.039h0.314     c5.157,0.007,9.206,0.02,13.133,0.044c0.174,0,0.22-0.021,0.334-0.142c1.212-1.299,2.454-2.595,3.688-3.854     c0.155-0.158,0.193-0.25,0.193-0.476c-0.01-4.475-0.013-8.996-0.014-13.478C183.989,229.594,182.134,229.578,180.273,229.569"></path>
			<path clip-path="url(#SVGID_4_)" fill="#E0E0E0" d="M201.355,241.869l-1.402-0.057l-0.003-1.401l-0.019-10.513     c-1.838-0.051-3.681-0.099-5.53-0.138v18.071c1.152,0.037,2.305,0.075,3.455,0.111l1.479,0.05l1.464,0.047     c0.35,0.011,0.697,0.022,1.047,0.034c1.073,0.032,2.221,0.069,3.336,0.12c2.337,0.108,4.714,0.234,7.231,0.368l0.053,0.002     c0.836,0.043,1.688,0.092,2.515,0.141l0.112,0.006c0.911,0.053,1.851,0.106,2.776,0.153c0.025,0.003,0.052,0.004,0.076,0.005     l-1.722-6.412L201.355,241.869z"></path>
			<path clip-path="url(#SVGID_4_)" fill="#E0E0E0" d="M247.858,244.237c-1.081-3.977-2.146-7.9-3.194-11.784     c-1.915-0.167-3.845-0.326-5.785-0.48c0.195,0.676,0.39,1.349,0.585,2.029l0.379,1.316l0.568,1.98l-2.057-0.117l-5.607-0.317     l-1.827-0.104l0.504-1.759l1.006-3.51c-1.938-0.136-3.884-0.268-5.844-0.39c-0.274,0.958-0.55,1.919-0.824,2.871     c-0.755,2.626-1.525,5.283-2.282,7.896l-0.672,2.319c-0.468,1.612-0.935,3.223-1.399,4.833l5.977,0.399l1.499-5.275l0.324-1.143     l1.187,0.085l10.713,0.768l1.038,0.074l0.271,1.005l1.581,5.867l5.797,0.565c-0.391-1.439-0.783-2.883-1.175-4.325     L247.858,244.237z"></path>
			<path clip-path="url(#SVGID_4_)" fill="#E0E0E0" d="M279.352,237.229c0-0.127-0.015-0.172-0.047-0.216     c-0.154-0.22-0.314-0.449-0.473-0.676c-7.711-1.097-15.727-2.078-24.021-2.926c0.918,1.164,1.925,2.446,2.891,3.731     c0.327,0.436,0.431,0.436,0.521,0.436c0.034,0,0.057-0.002,0.064-0.003l0.109-0.016h0.111c0.16,0,0.297,0.021,0.424,0.048     c0.034,0.006,0.062,0.012,0.091,0.014c0.978,0.084,1.954,0.164,2.93,0.245l0.981,0.081c1.194,0.099,2.41,0.201,3.608,0.302     c2.146,0.181,4.323,0.372,6.369,0.554l1.333,0.116v1.341v5.155v1.626l-1.617-0.172c-7.076-0.759-13.022-1.343-18.588-1.825     l1.665,7.009c0.436,0.048,0.871,0.094,1.305,0.141l0.167,0.019c1.061,0.114,2.16,0.23,3.241,0.358     c2.562,0.305,5.029,0.61,7.337,0.899l0.282,0.036c2.274,0.286,4.851,0.609,7.352,0.952c1.258-1.412,2.572-2.867,3.903-4.322     c0.047-0.051,0.063-0.068,0.063-0.191C279.346,246.133,279.345,241.855,279.352,237.229"></path>
			<polygon clip-path="url(#SVGID_4_)" fill="#E0E0E0" points="123.672,206.155 117.018,206.155 117.018,197.544 118.978,197.544      118.978,204.208 123.11,204.208    "></polygon>
			<rect x="129.823" y="197.544" clip-path="url(#SVGID_4_)" fill="#E0E0E0" width="1.946" height="8.611"></rect>
			<path clip-path="url(#SVGID_4_)" fill="#E0E0E0" d="M145.641,198.727v2.876l-1.198,1.185h-3.874v3.368h-1.947v-6.97l-0.48-1.642     h6.301L145.641,198.727z M143.703,199.478h-3.133v1.374h3.133V199.478z"></path>
			<polygon clip-path="url(#SVGID_4_)" fill="#E0E0E0" points="156.283,199.49 156.283,206.155 154.335,206.155 154.335,199.49      152.118,199.49 151.555,197.544 158.514,197.544 159.075,199.49    "></polygon>
			<path clip-path="url(#SVGID_4_)" fill="#E0E0E0" d="M173.241,198.751v6.22l-1.185,1.185h-5.493l-1.196-1.185v-6.22l1.196-1.207     h5.493L173.241,198.751z M171.305,199.478h-4v4.742h4V199.478z"></path>
			<polygon clip-path="url(#SVGID_4_)" fill="#E0E0E0" points="187.324,197.544 184.623,206.155 182.641,206.155 181.668,204.712      179.426,197.544 181.433,197.544 183.368,203.832 185.327,197.544    "></polygon>
			<polygon clip-path="url(#SVGID_4_)" fill="#E0E0E0" points="200.361,202.317 200.361,204.971 199.164,206.155 193.858,206.155      193.309,204.22 198.425,204.22 198.425,203.082 194.553,203.082 193.368,201.859 193.368,198.727 194.553,197.544      198.836,197.544 200.043,198.751 200.043,200.311 198.085,200.311 198.085,199.479 195.314,199.479 195.314,201.134      199.164,201.134    "></polygon>
			<polygon clip-path="url(#SVGID_4_)" fill="#E0E0E0" points="211.05,201.872 214.632,206.154 212.132,206.154 209.409,202.822      209.02,202.822 209,206.154 207.039,206.154 207.039,197.544 209,197.544 209,200.874 209.397,200.874 212.117,197.544      214.618,197.544    "></polygon>
			<path clip-path="url(#SVGID_4_)" fill="#E0E0E0" d="M225.31,202.201v3.954h-1.961v-3.988l-3.165-4.623h2.274l1.878,2.733     l1.879-2.733h2.288L225.31,202.201z M222.753,197.05h2.098l2.606-1.504h-2.101L222.753,197.05z"></path>
		</g>
	</g>
</g>
</svg>
