<?xml version="1.0" encoding="UTF-8"?>
<svg xmlns="http://www.w3.org/2000/svg" xmlns:xlink="http://www.w3.org/1999/xlink" id="Layer_1" data-name="Layer 1" viewBox="0 0 500 500">
  <defs>
    <style>.cls-1,.cls-13,.cls-30,.cls-31,.cls-8,.cls-9{fill:none;}.cls-2{clip-path:url(#clip-path);}.cls-3{fill:#f58220;}.cls-4{fill:#fff;}.cls-5{fill:#231f20;}.cls-6{fill:#ececec;}.cls-7{fill:#f2f2f2;}.cls-13,.cls-30,.cls-31,.cls-8{stroke:#231f20;}.cls-13,.cls-30,.cls-8,.cls-9{stroke-linecap:round;stroke-linejoin:round;}.cls-8,.cls-9{stroke-width:0.48px;}.cls-9{stroke:#e6e6e6;}.cls-10{opacity:0.98;isolation:isolate;}.cls-11{clip-path:url(#clip-path-4);}.cls-12{clip-path:url(#clip-path-5);}.cls-13{stroke-width:0.09px;}.cls-14{clip-path:url(#clip-path-6);}.cls-15{clip-path:url(#clip-path-7);}.cls-16{clip-path:url(#clip-path-8);}.cls-17{clip-path:url(#clip-path-9);}.cls-18{clip-path:url(#clip-path-10);}.cls-19{clip-path:url(#clip-path-11);}.cls-20{clip-path:url(#clip-path-12);}.cls-21{clip-path:url(#clip-path-13);}.cls-22{clip-path:url(#clip-path-14);}.cls-23{clip-path:url(#clip-path-15);}.cls-24{clip-path:url(#clip-path-16);}.cls-25{clip-path:url(#clip-path-17);}.cls-26{clip-path:url(#clip-path-18);}.cls-27{clip-path:url(#clip-path-19);}.cls-28{clip-path:url(#clip-path-20);}.cls-29{clip-path:url(#clip-path-21);}.cls-30,.cls-31{stroke-width:0.47px;}.cls-32{fill:#f8f7f7;}</style>
    <clipPath id="clip-path">
      <rect class="cls-1" x="-47.64" y="-47.64" width="595.28" height="595.28"></rect>
    </clipPath>
    <clipPath id="clip-path-4">
      <rect class="cls-1" x="166.82" y="230.11" width="2.62" height="2.41"></rect>
    </clipPath>
    <clipPath id="clip-path-5">
      <rect class="cls-1" x="166.82" y="230.11" width="2.62" height="2.41"></rect>
    </clipPath>
    <clipPath id="clip-path-6">
      <rect class="cls-1" x="171.91" y="231.79" width="2.62" height="2.41"></rect>
    </clipPath>
    <clipPath id="clip-path-7">
      <rect class="cls-1" x="171.91" y="231.79" width="2.62" height="2.41"></rect>
    </clipPath>
    <clipPath id="clip-path-8">
      <rect class="cls-1" x="171.11" y="226.54" width="2.62" height="2.41"></rect>
    </clipPath>
    <clipPath id="clip-path-9">
      <rect class="cls-1" x="171.11" y="226.54" width="2.62" height="2.42"></rect>
    </clipPath>
    <clipPath id="clip-path-10">
      <rect class="cls-1" x="177.33" y="229.61" width="2.62" height="2.41"></rect>
    </clipPath>
    <clipPath id="clip-path-11">
      <rect class="cls-1" x="177.33" y="229.61" width="2.62" height="2.41"></rect>
    </clipPath>
    <clipPath id="clip-path-12">
      <rect class="cls-1" x="176.55" y="223.34" width="2.62" height="2.41"></rect>
    </clipPath>
    <clipPath id="clip-path-13">
      <rect class="cls-1" x="176.55" y="223.34" width="2.62" height="2.41"></rect>
    </clipPath>
    <clipPath id="clip-path-14">
      <rect class="cls-1" x="182.68" y="227.75" width="2.62" height="2.41"></rect>
    </clipPath>
    <clipPath id="clip-path-15">
      <rect class="cls-1" x="182.68" y="227.76" width="2.62" height="2.41"></rect>
    </clipPath>
    <clipPath id="clip-path-16">
      <rect class="cls-1" x="182.67" y="221.01" width="2.62" height="2.41"></rect>
    </clipPath>
    <clipPath id="clip-path-17">
      <rect class="cls-1" x="182.67" y="221.01" width="2.62" height="2.41"></rect>
    </clipPath>
    <clipPath id="clip-path-18">
      <rect class="cls-1" x="188.25" y="226.41" width="2.62" height="2.41"></rect>
    </clipPath>
    <clipPath id="clip-path-19">
      <rect class="cls-1" x="188.25" y="226.42" width="2.62" height="2.41"></rect>
    </clipPath>
    <clipPath id="clip-path-20">
      <rect class="cls-1" x="188.69" y="220.13" width="2.62" height="2.41"></rect>
    </clipPath>
    <clipPath id="clip-path-21">
      <rect class="cls-1" x="188.69" y="220.13" width="2.62" height="2.41"></rect>
    </clipPath>
  </defs>
  <title>logo</title>
  <g class="cls-2">
    <g class="cls-2">
      <g class="cls-2">
        <path class="cls-3" d="M430.9,250a180.9,180.9,0,0,1-361.8,0c0-99.91,81-180.91,180.9-180.91A180.9,180.9,0,0,1,430.9,250"></path>
        <path class="cls-4" d="M250,432.43C149.41,432.43,67.57,350.6,67.57,250S149.41,67.57,250,67.57,432.43,149.41,432.43,250,350.59,432.43,250,432.43m0-361.81C151.09,70.62,70.63,151.09,70.63,250S151.09,429.37,250,429.37,429.37,348.91,429.37,250,348.91,70.62,250,70.62"></path>
        <path class="cls-4" d="M358.48,250A108.48,108.48,0,1,1,250,141.51,108.48,108.48,0,0,1,358.48,250"></path>
        <polygon class="cls-4" points="94.06 201.85 114.01 214.86 90.35 216.15 87.22 228.23 121.4 237.09 123.73 228.13 106.7 223.72 125.18 222.52 127.46 213.76 111.57 203.13 129.04 207.66 131.36 198.7 97.18 189.83 94.06 201.85"></polygon>
        <rect class="cls-4" x="120.62" y="157.45" width="9.6" height="35.31" transform="translate(-89.29 192.19) rotate(-58.94)"></rect>
        <path class="cls-4" d="M155.26,152.15q-2.46,2.49-4.45,2.78c-1.9.32-4.72-1.23-7.78-4.25-2.17-2.13-3.5-4.14-3.65-5.51-.21-1.84.65-3.71,2.63-5.72l8.1-8.24-6-6-8.69,8.83a22.38,22.38,0,0,0-5.06,7.42c-1.87,5.26.29,11.46,5.91,17,4.29,4.23,8.76,6.45,13,6.45h.31c3.88-.11,6.61-1.59,10.84-5.88l8.9-9-6.05-5.94Z"></path>
        <polygon class="cls-4" points="178.08 103.6 184.35 115.41 175.57 120.07 169.31 108.26 160.82 112.76 177.37 143.96 185.86 139.46 179.55 127.56 188.32 122.9 194.63 134.8 203.12 130.3 186.57 99.1 178.08 103.6"></polygon>
        <path class="cls-4" d="M219.43,89.8,210.54,127l10.91-1.74,1.9-8,10.53-1.68,4.29,7L249,120.85l-20-32.58Zm10.5,17.81-5.29.85,1.62-6.91Z"></path>
        <path class="cls-4" d="M269.06,114.06c-.75-.88-.81-1-.29-6.21l2.79-19.44-9.51-1.36-2.79,19.43a28.37,28.37,0,0,0-.29,8,10.9,10.9,0,0,0,6.68,8.17c1.77.75,3,1,7.53,1.67l8.63,1.24,1.2-8.4-7.9-1.13c-4.24-.61-5.27-1-6.05-2"></path>
        <path class="cls-4" d="M319.76,102.38c-4.57-2.16-9-2.89-12.45-2-4.43,1-8.28,4.77-11.15,10.84-2,4.25-2.71,8.18-2.1,11.64.82,4.88,4.63,9.16,10.74,12a20.14,20.14,0,0,0,8.59,2.17,13.46,13.46,0,0,0,4.75-.85c3.86-1.47,7.05-4.81,9.47-9.93,2.22-4.71,3.05-9.42,2.28-12.92C329,109,325.3,105,319.76,102.38m-3.68,7.31c3.38,1.6,6,4.13,2.41,11.75-3.69,7.82-7.28,7.44-10.61,5.87s-6-4.15-2.33-11.93c1.39-2.95,2.79-4.88,4.17-5.75h0a5.29,5.29,0,0,1,2.86-.8,8.33,8.33,0,0,1,3.5.86"></path>
        <polygon class="cls-4" points="369.29 138.57 347.48 148.52 356.65 126.42 348.91 118.98 335.16 154.74 341.43 160.78 377.05 146.03 369.29 138.57"></polygon>
        <path class="cls-4" d="M371,187.38c-1.13-2-1.6-3.73-1.39-5,.24-1.9,2.53-4.18,6.29-6.24,2.67-1.47,5-2.17,6.33-1.91,1.83.32,3.38,1.68,4.74,4.15l5.56,10.13,7.43-4.08-6-10.87a22.56,22.56,0,0,0-5.65-7c-4.52-3.3-11.07-3-18,.79-5.41,3-8.86,6.73-10,10.86-1,3.76-.38,6.8,2.51,12.07L369,201.38l7.43-4.08Z"></path>
        <path class="cls-4" d="M409.82,217.8c-.95-4.58-2.23-6.94-4.89-9-4.08-3.17-9.4-4.18-15.4-2.93-5.65,1.17-10.12,3.79-12.55,7.37-2.38,3.41-2.69,7.17-1.19,14.39l2.11,10.16,8.3-1.72-2.05-9.88c-1.18-5.7,0-7.67,3.09-8.91l3.7,17.81,8.3-1.73-3.7-17.86a5.07,5.07,0,0,1,3.3.37c1.5.72,2.28,1.75,3.22,6.3l2.11,10.17,8.31-1.72Z"></path>
        <rect class="cls-4" x="165.19" y="370.92" width="35.31" height="9.61" transform="translate(-227.76 298.26) rotate(-53.37)"></rect>
        <path class="cls-4" d="M222.24,375.94c-4.15-1.21-7.25-1.51-9.75-.93a10.84,10.84,0,0,0-8.29,7.81,10.25,10.25,0,0,0,1,8.82c1.55,2.47,3.8,3.45,8.58,4.85l9.23,2.7a5.67,5.67,0,0,1-2.83,3.23c-1.25.5-3.43.18-7.79-1.14l-10.82-3.16-2.36,8.09L212,410a29.71,29.71,0,0,0,8.11,1.5,12,12,0,0,0,4.37-.8c4.18-1.64,8-6.55,9.76-12.52,1.63-5.61,1.29-11.23-.94-15.06-2-3.38-5.09-5.38-11.1-7.14m3.15,15.16-8.07-2.36c-1.84-.54-2.3-.82-2.6-1.21l-.06-.07a2.46,2.46,0,0,1-.4-2.37,2.72,2.72,0,0,1,1.61-1.88,2.6,2.6,0,0,1,.79-.11,12.82,12.82,0,0,1,3.34.67c3.91,1.14,4.88,2.12,5.32,3.54a7.45,7.45,0,0,1,.07,3.79"></path>
        <polygon class="cls-4" points="248.02 381.48 249.19 389.83 268.31 387.14 251.73 416.61 263.48 414.96 279.71 385 279.92 384.62 278.87 377.15 248.02 381.48"></polygon>
        <path class="cls-4" d="M328.44,383.62l-4.32-7.24-3.7,2.21-10.85-18.22L300.06,366l-5.76,27.74,4.48,7.52,17.7-10.55,2.91,4.87,8.25-4.91-2.91-4.88Zm-16.27-.12-7.29,4.35,2.57-12.27Z"></path>
        <polygon class="cls-4" points="377.32 266.68 390.45 267.89 398.89 257.76 401.79 270.63 414.03 275.52 402.7 282.26 401.83 295.41 391.92 286.71 379.14 289.95 384.35 277.84 377.32 266.68"></polygon>
        <polygon class="cls-4" points="124.7 266.68 111.58 267.89 103.14 257.76 100.23 270.63 87.99 275.52 99.32 282.26 100.2 295.41 110.11 286.71 122.88 289.95 117.68 277.84 124.7 266.68"></polygon>
        <path class="cls-4" d="M346.78,177l4.85-3.91L346,170.34c-20.22-9.84-42.11-12.06-62.39-6.46,2.36-10.7,1-17.5-4.05-20.7-13-8.21-41.26,16.29-46.95,21.43-24.3,3.14-34.47,13.73-44.3,24-1.8,1.88-3.67,3.82-5.6,5.7L180,197l3,3.37L161.35,216a30.27,30.27,0,0,0-7.6.95s-2.78.5-3.73,1.55a4.74,4.74,0,0,0-1.13,2.17c-1.5,9.08.36,12.39,4.09,15a5.53,5.53,0,0,1,.83.66c4.51,14.27,10,16,11.57,16.13l1.74.2-.41,1.37c-2.19,7.18-2,13.22.47,18l-1.05,3.31,1.12,1.6c8.48,12.16,17.81,15.51,27.72,10l.24-.14c3-2,6.08-4.34,9.29-6.83,6.71-5.18,13.65-10.54,20.13-12.11,32.71-7.93,48,2.07,55.13,11.86l5.8,8,1.33-9.78c.28-2.05.6-4.8.82-7.81A38.42,38.42,0,0,1,292,283l1.4,11.12,5.9-9.53c4.95-8,9.48-18.57,2.08-43.3a20.54,20.54,0,0,1,6.51,2.78l4.63,3.18,1.44-5.44a28.7,28.7,0,0,0-.33-16.05c7.48-2.31,18.17-5.18,18.3-5.22l7-1.88-17.59-16A164.45,164.45,0,0,1,346.78,177"></path>
        <path class="cls-5" d="M152.63,220.85c-2,11.92,2.72,9.71,4.64,13.39,3.44,11.17,7.32,13.74,8.37,13.85l-1.91-7.8,3.46,1.87c2,4.7,3.8,10,6.74,12.46a53.59,53.59,0,0,1,.55-12.52c10.24-3.37,22.54-9.29,27.13-5.64,6,5.61,5.83,9.63,4.64,13.38-14.44,5-21.32,5.68-27.92,10.88-1.38-.86-2.06-2.46-3-4.19-.22,3.2-.43,6.47-.64,7.15-2.19.75-2.94-5.82-4.37-8.93-.94,3.09-2.94,10.67,1,16.34l-1,3.15c5.06,7.24,12.45,14.41,22.55,8.78,9.4-6.14,20.09-16.91,30.66-19.48,33.87-8.2,51.14,2.17,59.27,13.39,1-7.15,1.49-15.56.39-21.19,5.87,7.8,11.29,16.4,12.53,26.3,4.87-7.86,9.16-18.5-.08-45.48,3.34-.77,10.05.86,14.28,3.77,1.45-5.49,1.16-10.77-1.56-17.57,7.07-2.42,22.33-6.51,22.33-6.51l-14.91-13.59a160.15,160.15,0,0,1,28.34-29.22c-21.21-10.32-44.88-12.07-66.41-4,14-44.14-25.54-18.32-43.51-1.53-28.25,3.28-36.27,16.51-48.88,28.75l3.46,3.82-26.31,19a28.4,28.4,0,0,0-9.84,1.36Z"></path>
        <path class="cls-6" d="M270.15,257.62c-3.7-7.54-12-14-28.53-18.35l7.1-6c-6-8.68-30.42-23.51-44.84-15.26-.45-.78,1.77-3.12,3.51-5.18-20.61.55-34.58,8.14-44.65,19.86,11.08,14.23,37.07-20.53,66.73,13.87L228.28,237l3.83,4.89c14.4,1.32,28.2,4,38.05,15.7Z"></path>
        <path class="cls-4" d="M182.8,269.19a3.84,3.84,0,0,1-3.64,2.95c-1.25-2.47-2.52-4.68-3.35-12.85,1.71,3.33,5,8.14,7,9.9"></path>
        <path class="cls-4" d="M173.47,265.78c-1.81-2.49-2.18-3.61-3.25-7.67-.26,3.31-.47,7,1.9,10.87,1.69-1.85,1-2.57,1.35-3.2"></path>
        <path class="cls-4" d="M168.93,242.12a5.88,5.88,0,0,0,4,.3,40.28,40.28,0,0,0-.14,10,54.22,54.22,0,0,1-3.82-10.25"></path>
        <path class="cls-4" d="M159.23,236.93a21.46,21.46,0,0,0,3.64,2.77,29.93,29.93,0,0,0,1.32,6.56,30.66,30.66,0,0,1-5-9.33"></path>
        <path class="cls-6" d="M230.33,258.11c-23.46-4-39.11,32.73-55.16,17,19.69,6.6,31.31-28.79,55.16-17"></path>
        <path class="cls-7" d="M229.24,207c-.29-3-4.11-4.62-8.53-3.69s-7.78,4.08-7.49,7,4.11,4.62,8.53,3.69,7.78-4.08,7.49-7m-10.14,6.61c-2.81.26-5.15-1.37-5.23-3.64s2.16-4.31,5-4.57a6.07,6.07,0,0,1,2.2.21,2.21,2.21,0,0,1,1.22.17,1.76,1.76,0,0,1,1.15,1.43,3.21,3.21,0,0,1,.66,1.83c.07,2.27-2.16,4.31-5,4.57"></path>
        <path class="cls-8" d="M218.85,205.38c2.82-.26,5.16,1.37,5.23,3.64s-2.16,4.31-5,4.57-5.15-1.37-5.23-3.64S216,205.64,218.85,205.38Z"></path>
        <path class="cls-9" d="M222.27,205.76a1.56,1.56,0,0,1,1,2,1.73,1.73,0,0,1-2.28.54,1.56,1.56,0,0,1-1-2A1.73,1.73,0,0,1,222.27,205.76Z"></path>
        <path class="cls-3" d="M328.59,175.3c-20-6.32-45.67-3.4-70.78,12.37l4.07,4-21.72-2.93c5.88-5.27,13.89-9.5,22.58-13.4-33-9.8-54.88,2.63-73.14,22.46l2,7.6-3.14-.81L160.05,224l2.63,2.38c16.11-5.92,39.28-18.27,47-16.56,6,.21,19.47-12.25,33.61-1.52-3.91.44-8.24.45-11.37,1.68-2.78,1.23-4,2.86-3.86,4.85,13.87,5.5,23.53,13.62,31.54,22.77l-6.53,1.71c7.43,2.7,14.69,4.92,23,16.38.09-6.86-3.45-15.35-9.61-23.6,13.86,6.36,24.44,23.29,28.6,31.46,2-5.43-3.1-24.8-10.77-32.85,7.06-1.09,13.1-1.43,20.78,2.2-2.18-6.47-6.36-17-38.32-21.94,12.06-.52,24.16-.12,36.6,7.78l17-4.84-8.6-8.55-8.27,1.73c6-10,14.64-20.31,27.05-31.23l-2-.55Z"></path>
        <polygon class="cls-7" points="153.98 222.44 160.1 229.89 153.6 225.79 153.98 222.44"></polygon>
        <path class="cls-3" d="M251.21,167.15a58.6,58.6,0,0,1,16-16.7c-6.3,2.3-18,9.11-24.21,16.32,3.14-.54,6.18.23,8.23.38Z"></path>
        <g class="cls-10">
          <g class="cls-11">
            <g class="cls-12">
              <path class="cls-5" d="M168.38,230.25a1.22,1.22,0,0,1,.94,1.39,1.11,1.11,0,0,1-1.43.74,1.23,1.23,0,0,1-.95-1.39,1.12,1.12,0,0,1,1.44-.74"></path>
              <path class="cls-13" d="M168.38,230.25a1.22,1.22,0,0,1,.94,1.39,1.11,1.11,0,0,1-1.43.74,1.23,1.23,0,0,1-.95-1.39A1.12,1.12,0,0,1,168.38,230.25Z"></path>
            </g>
          </g>
        </g>
        <g class="cls-10">
          <g class="cls-14">
            <g class="cls-15">
              <path class="cls-5" d="M173.46,231.93a1.23,1.23,0,0,1,.95,1.39,1.12,1.12,0,0,1-1.44.74,1.21,1.21,0,0,1-.94-1.39,1.12,1.12,0,0,1,1.43-.74"></path>
              <path class="cls-13" d="M173.46,231.93a1.23,1.23,0,0,1,.95,1.39,1.12,1.12,0,0,1-1.44.74,1.21,1.21,0,0,1-.94-1.39A1.12,1.12,0,0,1,173.46,231.93Z"></path>
            </g>
          </g>
        </g>
        <g class="cls-10">
          <g class="cls-16">
            <g class="cls-17">
              <path class="cls-5" d="M172.66,226.68a1.24,1.24,0,0,1,1,1.4,1.13,1.13,0,0,1-1.44.74,1.24,1.24,0,0,1-.94-1.4,1.12,1.12,0,0,1,1.43-.74"></path>
              <path class="cls-13" d="M172.66,226.68a1.24,1.24,0,0,1,1,1.4,1.13,1.13,0,0,1-1.44.74,1.24,1.24,0,0,1-.94-1.4A1.12,1.12,0,0,1,172.66,226.68Z"></path>
            </g>
          </g>
        </g>
        <g class="cls-10">
          <g class="cls-18">
            <g class="cls-19">
              <path class="cls-5" d="M178.89,229.76a1.21,1.21,0,0,1,.94,1.38,1.11,1.11,0,0,1-1.44.74,1.23,1.23,0,0,1-.94-1.39,1.11,1.11,0,0,1,1.44-.73"></path>
              <path class="cls-13" d="M178.89,229.76a1.21,1.21,0,0,1,.94,1.38,1.11,1.11,0,0,1-1.44.74,1.23,1.23,0,0,1-.94-1.39A1.11,1.11,0,0,1,178.89,229.76Z"></path>
            </g>
          </g>
        </g>
        <g class="cls-10">
          <g class="cls-20">
            <g class="cls-21">
              <path class="cls-5" d="M178.1,223.48a1.22,1.22,0,0,1,.94,1.39,1.1,1.1,0,0,1-1.43.74,1.23,1.23,0,0,1-1-1.39,1.12,1.12,0,0,1,1.44-.74"></path>
              <path class="cls-13" d="M178.1,223.48a1.22,1.22,0,0,1,.94,1.39,1.1,1.1,0,0,1-1.43.74,1.23,1.23,0,0,1-1-1.39A1.12,1.12,0,0,1,178.1,223.48Z"></path>
            </g>
          </g>
        </g>
        <g class="cls-10">
          <g class="cls-22">
            <g class="cls-23">
              <path class="cls-5" d="M184.23,227.9a1.22,1.22,0,0,1,1,1.39,1.12,1.12,0,0,1-1.44.74,1.23,1.23,0,0,1-.94-1.39,1.11,1.11,0,0,1,1.43-.74"></path>
              <path class="cls-13" d="M184.23,227.9a1.22,1.22,0,0,1,1,1.39,1.12,1.12,0,0,1-1.44.74,1.23,1.23,0,0,1-.94-1.39A1.11,1.11,0,0,1,184.23,227.9Z"></path>
            </g>
          </g>
        </g>
        <g class="cls-10">
          <g class="cls-24">
            <g class="cls-25">
              <path class="cls-5" d="M184.23,221.15a1.22,1.22,0,0,1,.94,1.39,1.11,1.11,0,0,1-1.43.74,1.23,1.23,0,0,1-1-1.39,1.12,1.12,0,0,1,1.44-.74"></path>
              <path class="cls-13" d="M184.23,221.15a1.22,1.22,0,0,1,.94,1.39,1.11,1.11,0,0,1-1.43.74,1.23,1.23,0,0,1-1-1.39A1.12,1.12,0,0,1,184.23,221.15Z"></path>
            </g>
          </g>
        </g>
        <g class="cls-10">
          <g class="cls-26">
            <g class="cls-27">
              <path class="cls-5" d="M189.8,226.56a1.23,1.23,0,0,1,.95,1.39,1.13,1.13,0,0,1-1.44.74,1.24,1.24,0,0,1-.95-1.39,1.12,1.12,0,0,1,1.44-.74"></path>
              <path class="cls-13" d="M189.8,226.56a1.23,1.23,0,0,1,.95,1.39,1.13,1.13,0,0,1-1.44.74,1.24,1.24,0,0,1-.95-1.39A1.12,1.12,0,0,1,189.8,226.56Z"></path>
            </g>
          </g>
        </g>
        <g class="cls-10">
          <g class="cls-28">
            <g class="cls-29">
              <path class="cls-5" d="M190.25,220.27a1.23,1.23,0,0,1,.94,1.39,1.13,1.13,0,0,1-1.44.75,1.24,1.24,0,0,1-.94-1.4,1.12,1.12,0,0,1,1.44-.74"></path>
              <path class="cls-13" d="M190.25,220.27a1.23,1.23,0,0,1,.94,1.39,1.13,1.13,0,0,1-1.44.75,1.24,1.24,0,0,1-.94-1.4A1.12,1.12,0,0,1,190.25,220.27Z"></path>
            </g>
          </g>
        </g>
        <path class="cls-5" d="M210.84,201.6a33.07,33.07,0,0,0-4.16,5.93c-.48.8-5.68-.9-6.89-.62,1.08,1.25,8.05,3.29,9,2.76,2.3-1.29,4.64-2,6.48-4.36,3.69-4.56,20.37-8.49,27-2.23-6.74-7.12-26.53-5.65-31.4-1.48"></path>
        <path class="cls-30" d="M210.84,201.6a33.07,33.07,0,0,0-4.16,5.93c-.48.8-5.68-.9-6.89-.62,1.08,1.25,8.05,3.29,9,2.76,2.3-1.29,4.64-2,6.48-4.36,3.69-4.56,20.37-8.49,27-2.23C235.5,196,215.71,197.43,210.84,201.6Z"></path>
        <path class="cls-5" d="M227.29,215.18l-9.33-.75-9.32-1.55c5.07-1.1,11.19-1,18.65,2.3"></path>
        <path class="cls-31" d="M227.29,215.18l-9.33-.75-9.32-1.55C213.71,211.78,219.83,211.9,227.29,215.18Z"></path>
        <polyline class="cls-32" points="311.96 184.25 311.93 184.15 311.94 184.3 311.96 184.25"></polyline>
        <path class="cls-32" d="M308.55,177.91c-.07-.18-.14-.36,0,0l0,0Z"></path>
        <path class="cls-5" d="M292.58,190.5l-2.28,1.06,1.82-1.72,4.44-5.23h0l1.76-1.48L296,184h0a61,61,0,0,0-23.15,11.21l13.42-2.83-3.62,7.06L290,196.8c-.11,2.13-.21,4-.3,5.8l.28,0,12.2-16.05-9.62,4"></path>
        <path class="cls-32" d="M308.55,177.91c-14.84.56-26.84,7.66-38.46,16.84l2.73.44A61,61,0,0,1,296,184l2.35-.85-1.78,1.49-4.44,5.23-1.82,1.72,2.28-1.06,9.62-4L290,202.59l21.91-18.28-11.4.38,8.05-6.78"></path>
        <path class="cls-32" d="M308.55,177.91Z"></path>
        <path class="cls-32" d="M312,184.25l-.06.06h0Z"></path>
        <path class="cls-4" d="M245.13,347.38V337.19l2.38,2.88c1.41,1.7,2.81,3.39,4.21,5.1a5.62,5.62,0,0,0,4.53,2.14h0c3.37,0,6.75,0,10.13,0h4.92a8.32,8.32,0,0,0,1,0h7.55L261.54,323l-.07-.09,0-.05,11-14.5v.35q0,9.91,0,19.82a29.65,29.65,0,0,0,.39,4.6c1,6.26,4.49,10.72,9.95,12.89a22.36,22.36,0,0,0,8.21,1.49h28c.32,0,.65,0,1,0h4a8.52,8.52,0,0,0,1.13,0c3.61,0,6.83,0,9.84,0h.08a4.94,4.94,0,0,0,4.91-5.18c0-2.47-.05-4.94-.06-7.41h11.34v12.59h19.32V337.11l-.06-19.19c0-1.27,0-2.76-.12-4.25-.52-7.33-4.95-12.8-11.86-14.61a25,25,0,0,0-5.8-.79c-4.11-.09-8.26-.07-12.27,0h-.77a36.83,36.83,0,0,0-4.45.29c-9.24,1.18-15,7.64-15.1,16.87,0,4.2,0,8.45,0,12.63h-8.78l-16.9,0a3.13,3.13,0,0,1-1-.12,2.86,2.86,0,0,1-.1-.86l0-28.62-37.5-.21a5.78,5.78,0,0,0-4.15,2q-3.43,4-6.73,7.93v-9.67H207.24v29.33H195.79c0-5.93.08-11.85.12-17.79l0-11.56H176.67v7.64c-3.18-4.87-8.36-7.49-15.08-7.51l-32.19-.05v48.93h4.13c.32,0,.58,0,.84,0l6.46,0,14.59,0h7.66a18,18,0,0,0,5.12-.79,15.31,15.31,0,0,0,9.91-9,14,14,0,0,0,10.37,9.13,22.92,22.92,0,0,0,5,.57q7.11,0,14.22,0h37.4Zm-88.51-30.9c1.15,0,2.3,0,3.45,0,.87,0,.92.16,1.06.56a16.16,16.16,0,0,1-.06,12,.73.73,0,0,1,0,.12,1.87,1.87,0,0,1-.34,0H148.34l0-10.82v-1.85Zm194.64,0v.12h-11.2c0-.24,0-.48,0-.72,1.63-.05,3.29-.05,4.9-.06l2,0h.84c1.11,0,2.23,0,3.34,0h0a.19.19,0,0,1,0,.08c0,.2,0,.41,0,.61"></path>
        <path class="cls-5" d="M241,320.62a20.59,20.59,0,0,1,1.45-3.24,48,48,0,0,1,3.06-3.77q4.57-5.43,9.18-10.83a1.88,1.88,0,0,1,1.19-.64c5.15,0,10.3,0,15.46,0a5.69,5.69,0,0,1,.76.1l-5.63,7.44-8.16,10.77c-1.44,1.91-1.42,3.08.07,5q6.68,8.49,13.34,17c.19.25.36.51.63.89-.45,0-.75,0-1.06,0-5,0-10,.07-15.07.09a1.71,1.71,0,0,1-1.48-.7c-3.74-4.56-7.55-9.07-11.24-13.66a32.76,32.76,0,0,1-2.37-3.9v18.18H227.09V302.18H241Z"></path>
        <path class="cls-5" d="M336,330.92v1c0,3.47,0,6.93.08,10.4,0,.76-.21,1-1,1-3.3,0-6.61,0-9.91,0-.69,0-1-.17-1-.92,0-9-.12-18-.05-27,.05-7.26,4.44-12.06,11.64-13a35,35,0,0,1,4-.25c4.31,0,8.62-.06,12.93,0a21.18,21.18,0,0,1,4.89.67c5.32,1.4,8.51,5.41,8.91,11.06.09,1.32.1,2.65.11,4q0,12.15.07,24.3v1.12H355.22V330.92Zm.2-10.37h19.07v-3.86c0-.36,0-.71,0-1.07a3.74,3.74,0,0,0-3.94-3.8c-1.42,0-2.85,0-4.27,0-2.53,0-5.05,0-7.57.09-1.78.07-3.11,1-3.23,2.41-.17,2,0,4.11,0,6.21"></path>
        <path class="cls-5" d="M133.37,343.45v-41h1.1l27.12.05c7.13,0,11.86,3.41,13.78,10.26a38.25,38.25,0,0,1-.16,21.29c-1.23,4.22-3.7,7.49-8.13,8.81a13.94,13.94,0,0,1-4,.63c-9.55,0-19.12,0-28.68,0-.28,0-.57,0-1-.05m11-30.93c0,.28-.06.43-.06.59,0,6.38,0,12.77,0,19.16,0,.83.42.84,1,.84l15.27,0a4,4,0,0,0,4.06-2.61,20.15,20.15,0,0,0,.12-14.79,4.63,4.63,0,0,0-4.72-3.2c-1.69,0-3.37,0-5.06,0Z"></path>
        <path class="cls-5" d="M180.63,302.41H192v1q-.08,12.51-.16,25c0,2.35,1,3.39,3.36,3.39h16V302.42h11.74v41h-1c-9.46,0-18.93,0-28.4,0a19.25,19.25,0,0,1-4.14-.47c-4.84-1.12-7.32-4.48-8.25-9.14a22.41,22.41,0,0,1-.42-4.24c-.06-8.6-.06-17.19-.08-25.78v-1.36"></path>
        <path class="cls-5" d="M320.07,332v11.48c-.32,0-.66.05-1,.05h-28a18.32,18.32,0,0,1-6.75-1.21c-4.48-1.78-6.74-5.27-7.5-9.86a25.13,25.13,0,0,1-.34-4c0-8.42,0-16.85,0-25.28,0-.25,0-.51,0-.84h12.95v1.13q0,11.76,0,23.53c0,3.23,1.72,4.94,5,4.94q12.15,0,24.31,0Z"></path>
      </g>
    </g>
  </g>
</svg>
