<?xml version="1.0" encoding="UTF-8"?>
<svg xmlns="http://www.w3.org/2000/svg" xmlns:xlink="http://www.w3.org/1999/xlink" id="Layer_1" data-name="Layer 1" viewBox="0 0 500 500">
  <defs>
    <style>.cls-1{fill:none;}.cls-2{clip-path:url(#clip-path);}.cls-3{fill:#c5c7c7;}.cls-4{fill:#070808;}.cls-11,.cls-5{fill:#009b46;}.cls-5,.cls-7{fill-rule:evenodd;}.cls-6,.cls-7{fill:#156232;}.cls-8{fill:#fff;}.cls-9{fill:#c6c8c8;}.cls-10{fill:#2b9948;}</style>
    <clipPath id="clip-path">
      <rect class="cls-1" x="-47.64" y="-47.64" width="595.28" height="595.28"></rect>
    </clipPath>
  </defs>
  <title>logo</title>
  <g class="cls-2">
    <g class="cls-2">
      <path class="cls-3" d="M453.07,145.26c2.44-25.62-4.8-47.16-6.87-51.52l-9.75-20.55-4.86,22.22c-10.65,48.58-41.21,58.78-65,58.78a80.33,80.33,0,0,1-15.79-1.55,80.38,80.38,0,0,0-8.89-1.27l-6.42-22.87c10.2-6.32,22-12.8,34.56-18.93l20-9.78L368.33,95a142.74,142.74,0,0,0-30.68-3.35c-4.09,0-8.22.18-12.35.53l-4.1-14.59-66,30a70.56,70.56,0,0,0-33.36-8.2c-14.76,0-27.88,4.3-37,8.35l-56.16-13.2-6.91,56.85a65.41,65.41,0,0,0-5.12,6,71.69,71.69,0,0,0-20.7,19.78c-9.9,14.51-12.4,31.16-7.33,48.39L46.43,268.76l80.73,58.84,29.48,99.21,62.41-26.3,34.76-14.42,95.49,25.22,5.19-48.88c20.83-16.48,27.8-33.56,29.86-40.34l1.81-5.94-5.39-3.07c-3.21-1.83-7.07-7.25-10.18-14.1l61-62.6L407.78,219c33.46-22.18,43.21-51.83,45.29-73.7"></path>
      <polygon class="cls-4" points="355.25 303.58 419.81 237.37 345.08 182.8 333.98 197.34 323.28 182.41 341.09 177.11 316.17 88.41 231.64 126.79 238.85 143.13 221.41 144.65 226.69 125.34 192.87 117.59 135.34 104.07 124.06 196.93 143.68 198.52 136.65 213.31 123.25 201.15 58.26 267.76 133.47 322.59 144.65 308.35 154.05 321.76 134.97 326.61 161.62 416.27 216.07 393.33 248.13 380.03 239.7 361.88 257.15 360.46 252.77 377.77 342.52 401.48 352.27 309.86 333.82 307.62 341.88 291.11 355.25 303.58"></polygon>
      <path class="cls-5" d="M354.92,289.75l49.84-51.12L347.07,196.5,333.73,214l-26.58-37.09,21.78-6.47-19.17-68.23-65.12,29.57,8.85,20-45.36,3.94,6.3-23-23.79-5.45-46.82-11-8.7,71.67,23.64,1.92-18.89,39.77-16.2-14.7-50.35,51.6L131.59,309l13.51-17.21,25.28,36.06-23,5.84L168,402.87l44.3-18.67,22.56-9.36-10.07-21.67,45.39-3.69-5.38,21.23L333.91,389l7.49-70.46-22.56-2.75,20-41Zm-48.8,43.33,14.26-1.59.19,37.14-34.95-12.52,6.05-12.66-14.82-19.91-63.12,4.36-7.55,15.81-3,6.22,7.59,12.47L180.1,376.92l-8.22-33.17,16.18-1.86,9.78-22L161,268.44l-24.68,2.3L129.63,283l-31.2-18.6,27.65-23.56,8.67,11,24.71-1.87,27.7-56.83-13.51-20-16.07.79,2.55-34.07L192.76,149l-5,13.92,13.73,19.61,62.95-6.25,11.28-22.11-8.08-11.47L300,124.47l6,36.65-14.33.81-11.18,22.65,10.72,15.59,25.59,36.22,25.43-2.24L349,222.77l30.38,18-26.95,22.79-8.49-10.1-25.45,2-19.17,40-8,17.15Z"></path>
      <polygon class="cls-6" points="94.73 250.95 80.53 265.81 96.69 278.98 86.97 264.87 94.73 250.95"></polygon>
      <polygon class="cls-6" points="164.8 376 172.09 395.21 190.94 386.31 174.02 389 164.8 376"></polygon>
      <polygon class="cls-6" points="365.52 215.19 396.73 238.39 370.12 266.54 392.38 239.1 365.52 215.19"></polygon>
      <polygon class="cls-6" points="167.4 129.77 150.97 127.68 148.21 143.44 167.4 129.77"></polygon>
      <polygon class="cls-7" points="306.54 377.06 330.19 383.54 331.86 369.89 326.95 378.54 306.54 377.06"></polygon>
      <path class="cls-7" d="M311.75,128.42l6,28.54-11.07,2.9s-.88,2.85-.21,2.83,19.83-1.47,19.83-1.47-6.25-26.49-6.32-26.72-3.15-11.29-3.15-11.29Z"></path>
      <path class="cls-7" d="M247.07,342.65s-4.39-8.17-4.63-8.32-8.16-4.56-8.4-4.56-27.32,5.5-27.63,5.73l0,0c.57.23,1.09.44,1.33.51.67.2.67,3.11.67,3.11l-2.24,4.56c6.83-.81,24.07-5,24.07-5,3.53.95,18.05,5.5,18.05,5.5Z"></path>
      <path class="cls-4" d="M365,230.11c109.52-34.48,76.87-127.49,74.17-133.19-15.84,72.28-73.69,66.53-89.94,63.18s-43.23-.61-43.23-.61-1.64-3-7.81-8.49c-.12-7.69,27.11-28.34,68.46-48.56C308.28,89.57,264.08,120,261.78,121c-31.7-24.9-67-10.76-82.18-2.1h0a51.42,51.42,0,0,0-7.45,4.92l-.11,0a15.92,15.92,0,0,0-4.48,5.19c-3.75,1.75-33.69,17-45.62,34.12-5,2.66-40.72,25.57-23.5,66.82s57.32,39.14,71.56,35.2a21.09,21.09,0,0,0-3.14,5.1c3.82,1.39,9.48,3.18,9.48,3.18s13.43,12.94,14.13,13.73S206.56,317,206.56,317l-2.1,23.28a149,149,0,0,0,25-6.11c6.54,1.52,25.24,13.12,29.16,22.07,3.89,6.76,5.67,14.48,5.53,17.44,30.68,8.16,45.42-3.28,45.42-3.28s3.13,3.2,3.91,5.83c52.33-20.17,62.19-52.67,63.37-56.56-9.62-5.49-17.19-24.48-18.46-33.65s-1.5-18.76-7.26-29.14-6.4-15.59-5-20.6,11.43-3.89,18.83-6.18"></path>
      <path class="cls-8" d="M340.69,267.83C339.77,258.16,330.4,237,316,226.9c7.74,2.89,10.94,4.36,12.79,6.76,3-4.7,8.35-22.75-38.68-69.29-5.62,5-22.54,31.5-36.73,39.19,0,0,14.67,23.08,15.21,35.19,4.14-.44,12.43-1.32,15.15-4.24.51-1.82,3.59-14.69-.16-26.12,3.22,4.69,10,18.71,9.28,32.36-4,2.33-56.36,31.72-79.82-2.39,0,0-33.41,47.69,37.37,44.84,1.06,1.9,17.27,16.89,17.27,16.89s18.73-6.72,23-7.23l-24,18.3s-7.75,6.56,2,19.95,19.48,16.29,34.46,14.45,21.4,1.1,23.86,8.51c5.15-3,27.86-20,29.52-38.54-4.07-5.58-14.93-38-15.86-47.7"></path>
      <path class="cls-9" d="M265.62,346.83s5.78,15.16,6.17,20.84c4.62-.25,21.18-1.46,30.19-6.84-7.35-.12-23.88.85-25.94-.19-.45-1.06-7.24-11.42-10.42-13.81"></path>
      <path class="cls-8" d="M182.84,175.54s-24.69-10.92-49.58-2.17c-3.2,2.27-40.21,29.63-16,60.26s69.68,18.22,97-7.43,72.36-95.84,102.24-107.87c-10.12-.46-41,3.75-83.8,38.42s-77.62,45.5-89.83,33.58c8.71-1.5,12.29-3.53,18.06-1.52,6.52-3.94,7.74-4.52,21.93-13.27"></path>
      <path class="cls-8" d="M322.61,176.7s20.9,25.8,24.59,41.55c4.39-.16,81.58-13.37,85.4-80.24-3.82,5.23-23.43,44.79-110,38.69"></path>
      <path class="cls-10" d="M146.68,154.64S177.29,150,198,168.19c2.39-2.11,47-36.05,47-36.05s-17.76-16.06-43-5.64c3.28,3.66,9.21,16.72,9.21,16.72s-29-19.34-64.6,11.42"></path>
      <path class="cls-4" d="M310.21,288.77s-12.52,41,29.72,28.94c-1.09-5.14-1.69-20.66-25.29-18.51-.65-2-2.79-2.63-4.43-10.43"></path>
      <path class="cls-11" d="M242.19,216.61s-10.39,26.82,15.1,23c-3.74-7.15-7.11-21-15.1-23"></path>
      <path class="cls-9" d="M379.63,197.84c1.66-3.61,2.66-7.88,3.66-10.81-11.41,12.83-31.77,15.4-42.74,15.8,3.05,5.4,5.58,10.84,6.65,15.42,4.28-.16,77.91-12.76,85-75.53-9.47,29.21-51.17,54.13-52.56,55.12"></path>
      <path class="cls-9" d="M219.82,185.18c-46.27,47.21-73.72,30.5-75.72,26.37,1.74,5.35,8,16.14,17.46,17.83-6.43.38-49.15-.62-50.1-29.4-3.78,9.78-3.86,21.45,5.77,33.65,24.17,30.64,69.68,18.22,97-7.43,22.4-21,56.66-71.9,84.74-96.24a267.33,267.33,0,0,0-79.16,55.22"></path>
      <path class="cls-9" d="M326,227.26c-2.6.45-2.68,0-6.17,1.1,5.05,2,7.46,3.34,9,5.3,3-4.7,8.35-22.75-38.68-69.29-.39.35-.85.82-1.35,1.37,5.51,5.35,33.37,33.6,37.23,61.52"></path>
      <path class="cls-6" d="M202.07,126.5a16.75,16.75,0,0,1,1.06,1.36c5.05-2.09,17.19-5.14,30.65,5.65-.94.89-29.94,28-36.48,34.09.24.19.47.39.7.59,2.39-2.11,47-36.05,47-36.05s-17.76-16.06-43-5.64"></path>
      <path class="cls-9" d="M340.69,267.83c-.61-6.41-4.93-17.87-12-27.8,2.85,7,8.66,21.78,9.64,28.21,1.31,8.57,6.33,37.31,10,44.42,3.51,6.79-7.39,29.64-21.65,40.6q.15.39.3.81c5.15-3,27.86-20,29.52-38.54-4.07-5.58-14.93-38-15.86-47.7"></path>
      <path class="cls-9" d="M292.73,245.07s3.42,3.78,4.57,5.43c-2.27-21.86-7.54-31.4-9.58-34.37,2.86,6.54,5.61,15.66,5.16,24.62-2.38,1.39-22.1,12.48-42.59,13.84,17.25,1.24,42.44-9.52,42.44-9.52"></path>
      <path class="cls-8" d="M314.58,347.81c-3.67-1.35-11.66-2.12-21.93-2.12-2.15,0-3.55,0-3.56,0l-4.3.12.06-.67h-.09a15.17,15.17,0,0,1-7.6-2.41,9,9,0,0,1-2.86.46c-5,0-10-3.94-11.09-5.29l-2.73-3.29,3.41-2.26a41.66,41.66,0,0,0,4-5.33l.52-2.37,2.74-.23.54-1.08c2.06-4.09,8.36-7.41,9.6-8l1.83-.92,8.86,5,.15-.11,9.62,6.67-.13,1.28.11,0,1.13.46c8,3.24,14.42,11.76,16.21,14.29l7.13,10.08Z"></path>
      <path class="cls-4" d="M283.3,319.18,290,323l.11,3,2.2-1.64,5.36,3.72-.35,3.47s.66.07,1.53.07a11.23,11.23,0,0,0,2.43-.23c7.1,2.89,13,11,14.15,12.61-5.49-2-16.85-2.3-22.65-2.3-2.19,0-3.58,0-3.58,0a4.3,4.3,0,0,0-.58-1.86,5.05,5.05,0,0,1-3.54,1.33,11.27,11.27,0,0,1-7.06-3.08,4.41,4.41,0,0,1-3.12,1.17c-3.37,0-7.18-2.89-7.94-3.81,1.1-.73,5-6.22,5.21-7a8.84,8.84,0,0,1,.91,0c5.5,0,14,3.63,17.07,4.5-5.84-6.2-14.5-7.55-14.5-7.55,1.55-3.09,7.7-6.18,7.7-6.18m.21-8.47-3.57,1.8c-2.37,1.19-7.91,4.33-10.56,8.67l-3.36.29-1,4.36a43.16,43.16,0,0,1-2.78,3.76l-6.42,4.26,5.32,6.4c1.69,2,7.49,6.5,13.68,6.5a12.58,12.58,0,0,0,2.23-.19,19.39,19.39,0,0,0,4.56,1.7v1.37l7.73-.45s1.33,0,3.37,0c9.3,0,17,.7,20.07,1.84l22.56,8.32-13.88-19.64c-2.29-3.24-8.26-10.87-16.06-14.61l.07-.63-3.62-2.51-4.61-3.19v-.2l-1.54-.87-3.62-2.51-.34.25L287,312.69Z"></path>
      <path class="cls-9" d="M313.19,343.45c-7.81-3.27-22.47-3.33-23-3.23a41.35,41.35,0,0,0-1.63-3.92c-.86,3.81-5.78,4.11-8.49,2.49a3.57,3.57,0,0,1-1.72-4.26s-.74,1.27-1.22,2.14c-3.22,1.33-7.49-1.83-7.49-1.83l2.68-6.6a7.27,7.27,0,0,0-.82,0c-.18.82-4.22,6.45-5.35,7.2,1.05,1.26,7.69,6.15,11.36,2.71.38.72,6.93,5.43,10.87,1.8a4.36,4.36,0,0,1,.6,1.91s15.43-.44,24.21,1.55"></path>
      <path class="cls-9" d="M284.2,319.46l-1.23-.7s-6.31,3.18-7.9,6.35a22.42,22.42,0,0,1,2.69.64c1.47-3.44,5-5.53,6.44-6.29"></path>
      <path class="cls-9" d="M253.84,281.86s1.83-1.76,5.43-4.93c-49.49,8.71-51.34-19.62-49.86-32.14-6.23,12.91-13.41,40.6,41,38.41,1.06,1.89,17.27,16.89,17.27,16.89L268,300Z"></path>
      <path class="cls-6" d="M242.43,216.68c2,2.34,8.64,10.53,10.23,20a12.22,12.22,0,0,1-11.52-3.11c1.81,4.36,6.29,7.46,16.15,6-3.7-7.07-7.05-20.73-14.86-22.92"></path>
      <path class="cls-4" d="M161.11,263.07s-2.2,53.72,48,58.86a32.24,32.24,0,0,0-2.09-8.4l-20.13-21-13.8-33.61Z"></path>
      <path class="cls-9" d="M183.08,259.15s-17.62,49.55,39.49,47.51c2.54,1.5,15.14,8.47,15.14,8.47L226.05,300s-50.74-6.34-43-40.87"></path>
    </g>
  </g>
</svg>
