<?xml version="1.0" encoding="UTF-8"?>
<svg xmlns="http://www.w3.org/2000/svg" id="Layer_1" data-name="Layer 1" viewBox="0 0 350 500" version="1.1" width="350" height="500">
  <defs id="defs4">
    <style id="style2">.cls-1{fill:#fff}.cls-2{fill:#d9d8d6}.cls-3{fill:#002856}.cls-4{fill:#051c2c}.cls-5{fill:#3cb4e5}</style>
    <style id="style405">.cls-1{fill:#fff}.cls-2{fill:#d9d8d6}.cls-3{fill:#002856}.cls-4{fill:#051c2c}.cls-5{fill:#3cb4e5}</style>
  </defs>
  <path class="cls-1" d="M114.966 478.881l67.63-81.14c-1.56 0-3.11.07-4.66.07a145.64 145.64 0 01-76.83-269.31c-17.18-16.26-28.37-30.68-33.3-43-3.13-7.78-4.49-15.11-4-21.78a31.82 31.82 0 019.16-20.51c9.78-9.8 25.78-12.59 42.77-7.75a36.41 36.41 0 0113.38-13.58c17.41-10 36.95-2 39.13-1.06l98.41 43-93.82-5.89 3.65 1.46a185.18 185.18 0 0123.55 10.63c11 6.08 19 12.82 23.91 20a113.29 113.29 0 0111.73 22.47l.12.36 2.2 6.66a145.65 145.65 0 01-2.42 266.42zm100.9-99.23l-9 10.81 21.63-16.67.83-.34a131.7 131.7 0 00.29-242.37l-2.9-1.25-4.09-12.42a99.09 99.09 0 00-10.22-19.53c-6.84-10-21.69-17.53-32.32-22l-.42 4.93a142 142 0 00-.13 18.87c.15 2.63.4 5.13.71 7.44l1.11 8.13-12.25-.28-2-3.23c-9.65-15.57-17-29.8-20.68-40.07l-4.25-11.85 1.06.23.6-4.38a13.51 13.51 0 013.53-7.71c4.52-4.63 12.06-4.77 12.89-4.78h.23l28 1.77-25.83-11.34c-.61-.26-14.88-6.36-26.55.39-4.58 2.66-8.06 6.89-10.34 12.61l-2.55 6.44-6.46-2.52c-14-5.42-27-4.45-33.94 2.55a17.79 17.79 0 00-5.06 11.66c-.32 4.55.7 9.79 3 15.6 4.69 11.68 17.4 27 36.73 44.24l7.47 6.67-8.84 4.7a131.68 131.68 0 0081.56 246.42zm-51.07-300.64c.28.58.58 1.17.88 1.77 0-.69.08-1.11.08-1.19v-.37zm-7.63-21.13l20.8 261.75a67.44 67.44 0 01-66.39-55.51l-5.39-30.35 17.94 25.11c3.52 4.9 8.4 8.49 12.46 9.1.43.07.94.19 1.93.42a35.45 35.45 0 0015.85.7c7.91-1.63 15.52-6.54 22.61-14.59l.23-.24c1.14-1.19 7.22-7.18 14.11-8.67l1.62-.37 1.6.42c14.12 3.61 23.54 12.25 27.22 25 2.55 8.79 2.38 19.38-.53 31.43l-.57 2.42-2 1.5a66.79 66.79 0 01-40.69 13.63m-44.75-38.12a54.24 54.24 0 006.93 8.5 53.51 53.51 0 0068.1 6.27c1.77-8.51 1.82-16 .15-21.79-2.14-7.4-7.19-12.25-15.38-14.82a24 24 0 00-5.65 4.21c-9.12 10.3-19.25 16.66-30.15 18.89a49 49 0 01-21.83-.78l-1-.24c-.37-.05-.75-.13-1.13-.2m-1.81-176.16l-17.86-17.13c-.89-.86-1.78-1.73-2.69-2.63-5.52-5.44-9.33-10.19-11.34-14.12l-3.82-7.53 8.13-2.35a40.43 40.43 0 0111.3-1.28l1 .05 6.25.32.35 6.26a73.64 73.64 0 002.38 14.47z" id="path8" fill="#fff"></path>
  <path class="cls-2" d="M177.966 384.881a132.69 132.69 0 1193.78-38.87 131.73 131.73 0 01-93.78 38.87m0-199.08a66.44 66.44 0 1066.44 66.44 66.52 66.52 0 00-66.44-66.48" id="path10" fill="#d9d8d6"></path>
  <path class="cls-3" d="M177.966 125.551a126.65 126.65 0 11-126.65 126.65 126.65 126.65 0 01126.65-126.65m0 199.08a72.43 72.43 0 10-72.43-72.43 72.43 72.43 0 0072.43 72.43m0-211a138.21 138.21 0 1054 10.9 137.61 137.61 0 00-54-10.9m0 199.07a60.43 60.43 0 1142.76-17.71 60 60 0 01-42.76 17.66" id="path12" fill="#002856"></path>
  <path class="cls-1" d="M177.966 150.431a101.76 101.76 0 10101.76 101.77 101.77 101.77 0 00-101.76-101.77m0 174.2a72.43 72.43 0 1172.43-72.43 72.44 72.44 0 01-72.43 72.43" id="path14" fill="#fff"></path>
  <path class="cls-4" d="M96.856 274.691c-1.35 1.8-3.56 3-6.57 3.55l-4.37.8c-4.56.83-7.95-.37-9.8-3.48a11.46 11.46 0 01-1.36-3.83l-.09-.48-.16-.85-12.26 2.24-.39.06-.07-.38-1-5.4-.27-1.45-.07-.41-.25-1.36-.13-.75.7.34 2.62 1.25 10.43-1.92 3-1.78.14-.09h.15l3.13.67 13-2.39 2.4-2 .52-.41.12.65.58 3.27 1.25 6.85c.54 2.95.12 5.37-1.26 7.24m-5.88-5.88l-.24-1.32-9 1.64.15 1 .07.38a2.07 2.07 0 00.24.74.57.57 0 00.24.25 2.67 2.67 0 001.78.07l5-.93c2-.37 1.9-1 1.75-1.8m16.27 28.49a10.07 10.07 0 01-5.24 5.47l-15.77 8.27a10.06 10.06 0 01-7.47 1.17 8.7 8.7 0 01-5.17-4.26 6.15 6.15 0 01-.37-.66 9.11 9.11 0 01-.9-7.37 10.15 10.15 0 015.23-5.47l15.78-8.27a10.91 10.91 0 016.32-1.4l1.39-2.62.33-.63.37.62 4.05 6.82v.19l.14.25a1.36 1.36 0 01.11.2l.07.11a2.12 2.12 0 00.12.2 9.15 9.15 0 01.88 7.36m-27.44 6.63l.1.18c.35.58.86 1.13 2.58.22l16.39-8.57c1.78-.93 1.58-1.68 1.19-2.43 0-.05-.06-.11-.08-.16a1.23 1.23 0 00-.79-.68 2.78 2.78 0 00-1.81.44l-16.38 8.57c-1.79.94-1.59 1.68-1.2 2.43m37.71 22.85c-2.17 2.15-4.41 3.28-6.67 3.36-2.26.08-4.56-1-6.67-3.09l-1-1-8.83 8.8-.29.26-.28-.27-4-4.07-2.28-2.24-.55-.54.75-.13 3.28-.58 6.94-6.89 1.18-3.56.06-.2h.2l3.37-1 9.39-9.3 1-3.34.18-.66.47.51 1.16 1.2 6.15 6.19a12.11 12.11 0 011.87 2.38 7.69 7.69 0 011.17 4.32c-.09 2.25-1.23 4.49-3.41 6.66zm-1.65-11.36l-.95-1-6.53 6.51.21.23.74.74c.56.57.86.56 1 .55.14-.01.7-.14 1.5-.95l3.65-3.63c.82-.8.95-1.27 1-1.49a.88.88 0 00-.14-.47 2.18 2.18 0 00-.41-.51m17 45.87v.59l-.53-.27-6.42-3.36-.25-.14v-.28l.1-.61a11.78 11.78 0 011.58-4.27l2.5-4.76c1-1.84.8-2.54.56-3a2.21 2.21 0 00-.67-.66l-.6-.32-.48-.26-6.29 12-.19.36-.34-.19-6.17-3.17h-.07l-1.72-.87-.67-.34.66-.36 3.05-1.63 5.15-9.83v-3.8l.16-.12 3-2.13 5.52-10.53v-3.84l.6.31 1.14.63.22.11 7.91 4.15a10.52 10.52 0 014.4 3.8 6.61 6.61 0 01.66 1.46c.62 2 .24 4.33-1.16 7l-1.25 2.39c-1.46 2.79-3.25 4.42-5.43 5 1.12 2.79-.09 5.69-1.14 7.66l-2.45 4.68a9.48 9.48 0 00-1.28 3.51zm3-31l-3.82 7.25.8.42c1.2.64 2 .63 2.94-1.2l1.57-3a3.15 3.15 0 00.55-1.9.9.9 0 00-.1-.27 1.83 1.83 0 00-.76-.64zm32.59 39.78v.47l-.46-.08-6.95-1.21-.32-.05v-.35l.17-5.94-4.5-.8-1.88 5.64-.11.32-.34-.06-5.48-1-2.54-.35-.76-.12.53-.55 2.55-2.73 1-2.81-.32-4.4v-.19l.15-.14 2.55-2.18 6.68-19.22-.72-2.37-.19-.64.66.14 2.06.46 8.5 1.52.33.06v.33zm-7.17-22.49l-2.62 7.76.22.05 2.17.39zm33.63 21.71l-9.22 1.28h-.39l-.88.11-.76.12.35-.69 1-1.85-4.29-31.06-1.49-2.4-.37-.58h.67l2.47-.11 7.91-1.09c3-.42 5.4.12 7.19 1.59a7.59 7.59 0 011.77 2.06 12.93 12.93 0 011.5 4.64l2.36 17.16c.43 3.09 0 5.58-1.35 7.42-1.35 1.84-3.49 3-6.45 3.4m.16-9.52l-2.44-17.64a3.62 3.62 0 00-.43-1.4 1.06 1.06 0 00-.24-.3 1.44 1.44 0 00-1.17-.21l-1.83.27 3 21.88 1.83-.26c.68-.09 1.53-.21 1.25-2.34" id="path16" fill="#051c2c"></path>
  <path class="cls-4" d="M108.096 211.751l-28.65-21.51-.32-.25.24-.31 4.25-5.65.23-.31.31.23 11.43 8.57.91-1.21 1.33-1.77-11.42-8.58-.31-.24.23-.31 4.18-5.57.25-.32.83-1.1.4-.54.28.62 1.48 3.27 9.08 6.82 3.58.64h.2l.09.18 1.49 3.17 9.14 6.88 3.4.1h.76l-.46.61-1.67 2.17-3.75 5-.23.31-.32-.23-11.39-8.54-1.41 1.82-.87 1.16 11.42 8.57.32.24-.24.31-4.24 5.65-.24.32zm-7.13 18.91l.08-.23-.18-.18-8.43-8.12 9.87 3.33.38.12.12-.37 1.51-4.46 1.17-3.42.23-.66-.69.14-2.48.55-29.24-9.86-1.76-2.38-.46-.61-.23.73-.89 2.76-1.86 5.51-.13.38.39.12 10.43 3.53.44.47-12.54.51h-.27l-.09.26-2.31 6.85-.2.55h.59l21-1.07 12.6 12.49.45.44.2-.59z" id="path18" fill="#051c2c"></path>
  <path class="cls-3" d="M191.106 245.551s37.76 19.58 25.93 60.33c0 0 19.18-1.14 25.35-24.82 0 0-.83 31.28-8.45 48.61 0 0 12.68-5 19.87-11.38 0 0-4.13 25.51-14.52 40.63 0 0 40.73-27.47 48.34-40.63 7.61-13.16-23.59 3.91-27.05-12.41-3.46-16.32-16.92-18.9-14.79-29.47 2.13-10.57-16.42 10.14-18.36-6.76-1.94-16.9-27.61-26.43-36.32-24.06" id="path20" fill="#002856"></path>
  <path class="cls-3" d="M182.256 259.091c-8.12 9.21-17 14.86-26.44 16.82a42.36 42.36 0 01-18.84-.75c-.51-.12-1.21-.29-1.45-.33-7.77-1.18-16.15-8.43-20.4-17.63-4.7-10.15-3.88-21.28 2.31-31.32 11.23-18.26 15.65-49.29 11.25-60.94-4.21-11.13-5.64-20.92-5.52-27.09-19.35-16.06-41.44-36.46-48.85-54.91-2.74-6.79-3.92-13.08-3.53-18.7a24.83 24.83 0 017.08-16.09c9-9 24.83-10.57 41.42-4.12a31.37 31.37 0 0113.33-16.07c14.43-8.35 31-1.55 32.83-.74l62.15 27.16-67.33-4.24c-1.78 0-5.93.65-7.9 2.68a6.45 6.45 0 00-1.6 3.79l23.2 9.27c11.46 4.38 34.33 13.57 44.23 28.07a106 106 0 0111 21.08l4.77 14.56 4.59 3a215.62 215.62 0 0137.13 32.55 174.09 174.09 0 0126.28 37.1c8.35 16.19 12.9 32.7 13.54 49 1.59 41.4-21.47 80.79-68.55 117.08l-86 66.3 61.33-73.74c.15-.18 12.88-14.14 21.69-30.82a121.12 121.12 0 01-14 9.57c0-.11 6.32-26.39 5.94-42.15-1 .93-13.86 14.22-27.37 20.33v-.09s26.13-54.68-15.7-65.39c-5.18 1.14-10.59 6.73-10.59 6.73m85.71-64.13l10.2 83.25a90.19 90.19 0 01-.19 22.83c9.67-16 14.22-32.3 13.61-48.7-.48-12.73-4.08-25.78-10.72-38.75a149.3 149.3 0 00-22.46-31.84 199.78 199.78 0 00-18.26-17.71l-1 5.38 2.82 19.49c3.52 24.13-6 39.64-15.66 48.89l-1.34 7.29a53.38 53.38 0 016.86 8.92c.5-1.87.77-3 .77-3.05l8.74-37.6 14.06 36a72.9 72.9 0 012.47 7.49zm-127.69 56.44c.73.15 1.45.32 2.15.48 11.87 2.77 17.18-3.26 21.87-8.58.35-.41.71-.8 1.07-1.2l-9.27-3.47 18.73-4.46a130.91 130.91 0 0116.67-9.09c16-7.7 24.37-12.46 25.65-28.11v-.53l-1.34-30.95a152.83 152.83 0 00-6.15-33.6c-2.57-8.38-6.54-18.1-12.51-26 1 6.6 2.57 9.53 3.21 10.17l-14.27 19a.58.58 0 00.14.09c-.28-.15-6.22-3.42-15.66-3.13l9.56 14.79-31.64-13.64-.77 3.33c-.27 1.16-1.38 7.59 3.32 20 5.18 13.7 3.35 31.08.91 43.25-2.91 14.54-8.22 29-14.17 38.68-2.18 3.55-1.89 5.9-1.47 7.37a11.11 11.11 0 003.93 5.58m33.06-143.31c.09 0-.11 0 0 0-.35-2.51-.6-5.17-.78-8a148.91 148.91 0 01.16-19.9l.55-6.49-20.26-4.35c3.47 9.67 10.86 23.46 20.33 38.76m-67.51-39.71c1.08 2.12 3.69 6.1 10 12.3.9.89 1.77 1.73 2.63 2.56a80.5 80.5 0 01-2.58-15.84h-.92a33.06 33.06 0 00-9.13 1" id="path22" fill="#002856"></path>
  <path class="cls-3" d="M229.766 190.621c5.92 40.68-33.09 50.55-33.09 50.55 37.6 14.07 30.12 49.24 30.12 49.24 10.15-7 17.08-36.78 17.08-36.78 9.68 24.74 3 57.77 3 57.77 15.62-10.78 19-31.77 19-31.77 5.09 41.25-26.6 79.25-26.6 79.25 143.92-119.82-7.66-216.27-7.66-216.27l-4.19 22.33s-3-68.38-43.18-83.73c0 0-2.9 33.86 7.68 43.57 0 0-24.52-14.79-55.81 7.62 0 0-3.8 9.29 3.39 28.31 7.19 19.02-2.11 54.95-12.26 71.44-10.15 16.49 4.23 30 9.72 30.85 5.49.85 19.16 7.22 35.93-11.82 17.07-19.46 52.83-16.92 55.79-53.3z" id="path24" fill="#002856"></path>
  <path class="cls-5" d="M226.876 290.331c10.15-7 17-36.68 17-36.68 8 24.85 3 57.76 3 57.76a136.75 136.75 0 0019-31.78c2.44 41-26.63 79.25-26.63 79.25 143.92-119.82-7.67-216.28-7.67-216.28.26 1 53.19 26.48-4.73 147.73" id="path26" fill="#3cb4e5"></path>
  <path class="cls-1" d="M212.516 158.881l-13.48 20.94-32.69-.41-40.64 55.61s-8.5 18 11.26 28c12.37 6.28 29-5.38 30.88-6.76 7.83-5.57 18.22-17.12 30.2-21.24 11.98-4.12 20.35-11.38 25.5-19.87 0 0 18.76-33.59-11-56.27" id="path28" fill="#fff"></path>
  <path class="cls-1" d="M187.246 140.491s7.65 25.86 7.65 31.76c0 0-14.82 3.5-2.74.78 0 0-20.12 11.06-26 17.82l-40.4 44.14s25-41.24 14.39-72.5c0 0 0-22.14 15.45-26.26 0 0 11.21 3.28 10.07 23.12 0 0 9.73-17.21 21.61-18.86" id="path30" fill="#fff"></path>
  <path class="cls-3" d="M123.306 243.151a15.63 15.63 0 0110.42-5.51 12.66 12.66 0 009.72-6.91s-.84 10.71-9.43 12.12c-8.59 1.41-2.67 9.16-.57 7.75 2.1-1.41 8.74-4.65 10-11.7 0 0-.17 11.54-14.07 20.23 0 0-7.91-7.95-6.07-16" id="path32" fill="#002856"></path>
  <path class="cls-3" d="M201.326 157.001a9.27 9.27 0 10-6.16 11.59 9.28 9.28 0 006.16-11.59" id="path34" fill="#002856"></path>
  <path d="M198.616 156.881a6.32 6.32 0 10-4.2 7.9 6.32 6.32 0 004.2-7.9" id="path36" fill="#f8a927"></path>
  <path class="cls-3" d="M192.756 158.881a3.12 3.12 0 10-2.07 3.89 3.11 3.11 0 002.07-3.89" id="path38" fill="#002856"></path>
  <path class="cls-4" d="M212.516 158.881s-8.76 6.69-6.44 21.13c1.89 11.87-6.95 18.13-18.83 26.87-19.12 14-17.21 27.14-17.21 27.14-12.68-3.24-23.81 12.11-23.81 12.11 6.63-15.35-.56-21.14-.56-21.14s19-18.08 22.58-36.71c0 0 16.85-11 21.42-17.12 4.57-6.12 13.42-16.7 22.85-12.26" id="path40" fill="#051c2c"></path>
  <path class="cls-3" d="M135.966 263.361s18.66-25.3 34.41-25.3c0 0-19 13.51-25.93 27.94 0 0-7.46-2-8.48-2.64" id="path42" fill="#002856"></path>
  <path class="cls-4" d="M211.786 145.001s-10.21-11.2-22.73 4.16c-5.6 6.85-6.67 15.36-15.06 14.64 0 0 12.8 7.61 19.18-8.9 5.5-14.25 18.61-9.9 18.61-9.9" id="path44" fill="#051c2c"></path>
  <path class="cls-4" d="M191.966 124.791s-20.72 6.36-26.28 34.57c0 0-3.39-17.64-10.07-23.13 0 0-13.7 3.41-15.07 27.6 0 0-7.23-13.86-4.77-30.07a51.67 51.67 0 0126.14-12.79c16.34-2.81 26.84 1.43 30 3.82" id="path46" fill="#051c2c"></path>
  <path class="cls-4" d="M158.586 134.561s-34.66-42.56-31-75.81c3.66-33.25 32.69-20.57 32.69-20.57s-22.77-.85-22 21.7c.72 20.37 31.13 65.27 31.13 65.27z" id="path48" fill="#051c2c"></path>
  <path class="cls-4" d="M145.056 141.041s-49.59-36.64-60-62.56c-10.41-25.92 11-30.72 30-23.11 0 0-44.38-2-8 33.82s52.41 33.81 52.41 33.81z" id="path50" fill="#051c2c"></path>
  <path class="cls-4" d="M165.636 159.351s9.58-15.51 19.68-17.12c0 0 3.84 13.58-11.31 21.57 0 0 8.79 3.07 15.66-12.18 5.48-12.14 18.2-10.49 22.12-6.61 0 0-9.2-14.29-19.87-20.23 0 0-22.5 7.44-26.28 34.57" id="path52" fill="#051c2c"></path>
  <path class="cls-4" d="M186.076 113.171s-3.56-20.92-1.83-31.95c0 0 48.44 33.54 42.55 83.72 0 0-8.79-44-40.72-51.77" id="path54" fill="#051c2c"></path>
  <path class="cls-5" d="M188.706 89.091c15.19 4.5 32.38 37.68 32.38 37.68-10.52-37.62-36.82-45.55-36.82-45.55-2.52 13.83 1.81 32 1.81 32s.11-17.33 2.63-24.08" id="path56" fill="#3cb4e5"></path>
  <path class="cls-5" d="M123.966 242.571c23.81-26.4 26.9-52 26.9-52 3.66-25-7.37-26.25 4.74-54.31-15.37 4.57-15.2 27.34-15.2 27.34s3.55 24.45-.65 36.41c-3.79 10.8-16.79 35.13-15.79 42.56" id="path58" fill="#3cb4e5"></path>
  <path class="cls-5" d="M170.036 233.971c.2 1 3.26-14.62 13.74-21 13.05-7.89 28.74-10.08 28.74-28 0-13-6.65-15.74 0-26.11 0 0-10.82 9.47-8.38 23.68 2.35 13.53-11.33 19.87-18.65 23.88-7.32 4.01-17.85 16.24-15.45 27.56" id="path60" fill="#3cb4e5"></path>
  <path class="cls-4" d="M123.966 242.571a21.17 21.17 0 0112-3.18c3.78.16 7.54-8.66 7.54-8.66s-2.71 6.38-9.77 6.43a11.05 11.05 0 00-9.76 5.41" id="path62" fill="#051c2c"></path>
  <path class="cls-4" d="M143.456 238.881s-.13 9.82-10.32 11.84c0 0 7.91-3.44 10.32-11.84" id="path64" fill="#051c2c"></path>
  <path class="cls-4" d="M136.396 262.711a22.61 22.61 0 003.93 1.54s16.17-22.8 30-26.19c0 0-13.74-1.83-33.92 24.65" id="path66" fill="#051c2c"></path>
  <path class="cls-3" d="M161.136 106.081a42.39 42.39 0 00-10.94 4.8 29.66 29.66 0 019.92-8.13" id="path68" fill="#002856"></path>
  <path class="cls-3" d="M155.666 94.041a42 42 0 00-10.94 4.84 29.66 29.66 0 019.92-8.13" id="path70" fill="#002856"></path>
  <path class="cls-3" d="M150.016 82.131a42.67 42.67 0 00-10.94 4.83 29.7 29.7 0 019.89-8.08" id="path72" fill="#002856"></path>
  <path class="cls-3" d="M144.546 70.081a42.54 42.54 0 00-10.94 4.8 29.64 29.64 0 019.93-8.13" id="path74" fill="#002856"></path>
  <path class="cls-3" d="M124.626 129.881a41.7 41.7 0 019-7.89 29.51 29.51 0 00-11.55 5.57" id="path76" fill="#002856"></path>
  <path class="cls-3" d="M115.966 119.781a42 42 0 019-7.89 29.45 29.45 0 00-11.55 5.57" id="path78" fill="#002856"></path>
  <path class="cls-3" d="M103.966 108.691a41.46 41.46 0 019-7.89 29.51 29.51 0 00-11.55 5.57" id="path80" fill="#002856"></path>
  <path class="cls-3" d="M95.296 98.631a41.65 41.65 0 019-7.89 29.44 29.44 0 00-11.54 5.57" id="path82" fill="#002856"></path>
  <path class="cls-4" d="M231.606 142.601s145.24 105.52 7.68 216.28c0 0 37.39-47.37 26.62-79.26 0 0-7.62 27-19 31.77 0 0 11.11-34.76-3-57.77 0 0-4.16 28.23-17.07 36.79 0 0 11-37.51-24.36-49.3 0 0 26.95-11.9 33.22-51.56 0 0 6.13 29.24-9.3 51.34 0 0 55.21-23.57 5.25-98.3" id="path84" fill="#051c2c"></path>
  <path class="cls-1" d="M235.726 164.511s17.58 24.48 6.14 52.1c0 0 7.35-23.85-6.14-52.1" id="path86" fill="#fff"></path>
  <path class="cls-4" d="M157.446 225.691l-11.79-.73s13.49-13.11 14.65-46.61c0 0 7.57 12.25 31-9.42" id="path88" fill="#051c2c"></path>
  <path class="cls-4" d="M219.206 150.161s-18.64-8-25.78 4.11c0 0 .76-13.25-7.37-14.38-20-2.79-20.42 19.46-20.42 19.46-2.75-28.59-19.72-34.8-14.94-36.93 0 0 48.86-19 68.51 27.74" id="path90" fill="#051c2c"></path>
  <path class="cls-3" d="M175.786 249.791s11.22-10.2 19.11-13.53c14.19-6 22.53-21.61 24.94-35.41 0 0 3.36 15.31-5.69 27.75-.24.34-.48.66-.73 1" id="path92" fill="#002856"></path>
  <path class="cls-3" d="M192.536 238.881a88.86 88.86 0 0014.49-7.37c13-8.27 18.6-25.08 18.66-39.09a29.43 29.43 0 011.28 14.66 80.52 80.52 0 01-10.1 21" id="path94" fill="#002856"></path>
  <path class="cls-1" d="M184.266 81.221s28.83 16.88 36.83 45.56c0 0-6.93-34.13-36.83-45.56" id="path96" fill="#fff"></path>
  <path class="cls-3" d="M226.796 164.941c-7.08-32.61-32.95-62.16-32.95-62.16-1.27 6.62-.44 15.44-.44 15.44s23.15 12.45 33.39 46.72" id="path98" fill="#002856"></path>
  <path class="cls-4" d="M196.616 117.411v-5.85s24.67 20.78 30.2 53.38c0 0-8-35.1-30.2-47.53" id="path100" fill="#051c2c"></path>
  <path class="cls-3" d="M141.176 40.761a17.3 17.3 0 00-9.93 14.8s2.36-9.2 9.93-14.8" id="path102" fill="#002856"></path>
  <path class="cls-3" d="M95.526 55.551s-10.67 0-9.83 11.94c0 0 1.38-9.29 9.83-11.94" id="path104" fill="#002856"></path>
  <path class="cls-3" d="M228.036 141.941l5.37-.64s72.76 67.16 51 137.3c0 0 8.59-55.6-33.41-94 0 0-3.54-19.27-22.95-42.65" id="path106" fill="#002856"></path>
  <path class="cls-3" d="M179.966 114.531s-14.23-4.51-29.31 7.89c0 0 16.29-6.54 34.33-2.49 22.18 5 31.39 24.41 41.77 45 0 0-9.61-45.53-40.72-51.77l-3.39 3.48z" id="path108" fill="#002856"></path>
  <path class="cls-3" d="M201.586 159.581s7.75-6 25.21 5.36l-6.71-14.83s-17.48-6.56-24.1 1.05" id="path110" fill="#002856"></path>
  <path class="cls-3" d="M226.756 136.471l6.65 12.41s1.11 16.74-5.3 32.48c0 0-4.45-15.52-15.59-22.46-4.58-2.85-3.7-5.65-3.7-5.65l11.27 6.2 6.71 5.53s2.34-22.09 0-28.47" id="path112" fill="#002856"></path>
  <path class="cls-4" d="M115.246 178.191a6 6 0 116-6 6 6 0 01-6 6" id="path114" fill="#051c2c"></path>
  <path class="cls-2" d="M115.246 168.261a4 4 0 11-4 4 4 4 0 014-4m0-4a8 8 0 108 8 8 8 0 00-8-8" id="path116" fill="#d9d8d6"></path>
  <path class="cls-4" d="M76.966 248.881a6 6 0 116-6 6 6 0 01-6 6" id="path118" fill="#051c2c"></path>
  <path class="cls-2" d="M76.966 238.881a4 4 0 11-4 4 4 4 0 014-4m0-4a8 8 0 108 8 8 8 0 00-8-8" id="path120" fill="#d9d8d6"></path>
  <path class="cls-4" d="M217.606 352.191a6 6 0 116-6 6 6 0 01-6 6" id="path122" fill="#051c2c"></path>
  <path class="cls-2" d="M217.606 342.271a4 4 0 11-4 4 4 4 0 014-4m0-4a8 8 0 108 8 8 8 0 00-8-8" id="path124" fill="#d9d8d6"></path>
  <path class="cls-1" id="polygon126" transform="translate(-72.034 -2.119)" fill="#fff" d="M241.45 80.58l-1.42 11.67-8.57-14.87z"></path>
</svg>
