<?xml version="1.0" encoding="UTF-8"?>
<svg xmlns="http://www.w3.org/2000/svg" xmlns:xlink="http://www.w3.org/1999/xlink" id="Layer_1" data-name="Layer 1" viewBox="0 0 500 500">
  <defs>
    <style>.cls-1,.cls-3{fill:none;}.cls-2{fill:#fff;}.cls-3{stroke:#fff;stroke-miterlimit:10;stroke-width:0.5px;}.cls-4{fill:#182852;}.cls-5{fill:#d0d1d2;}.cls-6{clip-path:url(#clip-path);}.cls-7{fill:url(#radial-gradient);}.cls-8{fill:#fac410;}.cls-9{fill:#1b171c;}.cls-10{fill:#d9dada;}.cls-11{fill:#c12126;}.cls-12{clip-path:url(#clip-path-2);}</style>
    <clipPath id="clip-path">
      <polygon class="cls-1" points="207.96 167.04 206.02 169.32 203.93 176.72 204.55 178.84 209.38 185.16 210.95 186.31 213.62 187.61 211.49 185.92 210.79 184.73 210.89 184.24 218.72 181.39 222.87 181.13 226.71 182.21 233.64 184.84 237.15 185.32 240.37 184.58 243.03 182.59 244.16 179.71 244.16 179.71 243.78 177.71 243.03 176.14 241.14 174.03 238.42 171.59 236.23 170.13 232.49 168.39 231.57 167.25 231.25 165.54 226.93 164.07 225.2 163.97 207.96 167.04"></polygon>
    </clipPath>
    <radialGradient id="radial-gradient" cx="345.08" cy="-1.69" r="0.63" gradientTransform="translate(-14651.37 244.25) scale(43.07 43.14)" gradientUnits="userSpaceOnUse">
      <stop offset="0" stop-color="#fff"></stop>
      <stop offset="0.26" stop-color="#fdecb2"></stop>
      <stop offset="0.53" stop-color="#fcdb6d"></stop>
      <stop offset="0.74" stop-color="#fbcf3a"></stop>
      <stop offset="0.91" stop-color="#fac71b"></stop>
      <stop offset="1" stop-color="#fac40f"></stop>
    </radialGradient>
    <clipPath id="clip-path-2">
      <rect class="cls-1" x="247.75" y="245.53" width="4.51" height="8.93"></rect>
    </clipPath>
  </defs>
  <path class="cls-2" d="M250,427.19a177.2,177.2,0,1,1,125.29-51.9A176,176,0,0,1,250,427.19"></path>
  <path class="cls-3" d="M250,427.19a177.2,177.2,0,1,1,125.29-51.9A176,176,0,0,1,250,427.19"></path>
  <path class="cls-4" d="M420.7,250A170.7,170.7,0,1,1,250,79.31,170.69,170.69,0,0,1,420.7,250"></path>
  <path class="cls-2" d="M143.69,317.41c1.47,2.31,1,4-1.43,5.58l-1.92,1.23c-2.76,1.76-4.58.85-6.13-1.57l-1.62-2.55,9.1-5.82Zm-14.17,8.74c1.88,3,1.69,4.82-1.5,6.87l-3,1.92c-2.56,1.64-4.15,1-5.55-1.2L117.1,330l10.57-6.77Zm19.2-11.71-6.26-9.81-34.43,22,6.53,10.22c4.14,6.5,9.15,8.05,14.46,4.65l2.8-1.8c3.64-2.33,5.38-5.35,4.28-9.57,3,2.18,6.07,2,9.62-.24l1.23-.79c5.31-3.4,6.07-8,1.77-14.7"></path>
  <path class="cls-2" d="M163.61,341.5c2,1.88,2,3.63,0,5.76l-2.76,2.93c-2.24,2.38-4.24,1.94-6.33,0l-2.19-2.07,8.62-9.14ZM148.7,375.63a10.15,10.15,0,0,1,2.79-4.19l4.33-4.6c2.92-3.1,4.13-6.22,2.25-9.85,3.41,1.39,6.47.5,9.35-2.56l2.21-2.34c4.32-4.59,4-9.21-1.86-14.7l-8.45-8-28,29.76,5.6,5.29,11.42-12.11,1.93,1.83c2.55,2.41,2.71,4.49.1,7.25l-4.4,4.68c-2.29,2.42-2.53,3.08-2.94,4.13Z"></path>
  <path class="cls-2" d="M187.57,360.9l-6.85,19.87-6.48-3.63Zm8.8-3.38L186.53,352l-26.81,31.87,6.17,3.46,4.79-5.82,8.25,4.62-2.47,7.13,6.78,3.81Z"></path>
  <polygon class="cls-2" points="204.5 367.98 212.25 370.16 202.8 403.94 210.21 406.02 219.67 372.25 227.42 374.43 229 368.8 206.07 362.36 204.5 367.98"></polygon>
  <rect class="cls-2" x="216.36" y="386.02" width="40.92" height="7.7" transform="translate(-173.37 589.44) rotate(-84.67)"></rect>
  <path class="cls-2" d="M250.52,380.32c1,11.65,16.19,11.88,16.94,20.26.26,2.91-1.18,4.1-3.62,4.32s-4.07-.69-4.33-3.6l-.26-2.92L252,399l.22,2.5c.59,6.52,4.83,9.9,12.36,9.22s11.11-4.75,10.53-11.28c-1.05-11.64-16.19-11.87-16.94-20.25-.26-2.91,1-4.15,3.48-4.37s3.93.77,4.2,3.68l.15,1.69,7.25-.66-.11-1.28c-.59-6.52-4.76-9.9-12.22-9.23s-11,4.74-10.39,11.26"></path>
  <polygon class="cls-2" points="291.01 405.92 310.4 399.62 308.6 394.06 296.54 397.98 285.74 364.61 278.41 366.99 291.01 405.92"></polygon>
  <path class="cls-2" d="M315.66,359l13.89,15.75-6.34,3.86Zm1.39-9.33-9.64,5.86,14.5,39.06,6-3.68-2.71-7,8.08-4.92,5,5.66,6.65-4Z"></path>
  <polygon class="cls-2" points="330.49 339.16 324.96 344.63 359.04 368.43 367.22 360.35 343.9 325.9 338.86 330.88 358.09 358.77 330.49 339.16"></polygon>
  <path class="cls-2" d="M358,317.44l19.49,7.81-3.93,6.31Zm-2.94-9-6,9.57,30.48,28.36,3.76-6-5.58-5.07,5-8,7,2.81,4.12-6.6Z"></path>
  <polygon class="cls-2" points="136.57 169.95 141.86 162.96 155.82 173.55 160.55 167.29 127.99 142.57 123.25 148.84 137.21 159.43 131.92 166.42 117.97 155.83 113.32 161.98 145.88 186.69 150.53 180.54 136.57 169.95"></polygon>
  <path class="cls-2" d="M169,140.07l3.61,4.6c1.81,2.3,1.25,4.08-.68,5.6s-3.79,1.64-5.59-.65l-13.64-17.37c-1.81-2.3-1.28-4.13.64-5.64s3.83-1.6,5.63.69l2.71,3.45,5.72-4.51-2.45-3.13c-4.05-5.14-9.44-5.65-15.38-1s-6.72,10.06-2.67,15.2L160,154.07c4,5.14,9.44,5.65,15.38,1s6.72-10.06,2.67-15.2l-3.35-4.28Z"></path>
  <path class="cls-2" d="M194.11,107.82c3.44,11.18,18.3,8.23,20.78,16.27.86,2.8-.3,4.26-2.65,5s-4.12.18-5-2.61l-.86-2.8-7,2.16.74,2.4c1.93,6.25,6.78,8.67,14,6.43s9.87-7,7.94-13.22c-3.45-11.17-18.3-8.23-20.78-16.27-.86-2.8.15-4.27,2.49-5s4-.07,4.87,2.72l.5,1.62,7-2.15-.38-1.23c-1.93-6.26-6.72-8.69-13.87-6.48s-9.74,6.93-7.81,13.18"></path>
  <polygon class="cls-2" points="232.38 129.73 252.71 128.35 252.32 122.52 239.67 123.38 237.3 88.38 229.62 88.9 232.38 129.73"></polygon>
  <path class="cls-2" d="M260.11,118.9c-1.09,6.46,2.36,10.84,9.81,12.11s12.16-1.73,13.25-8.18l3.56-21c1.09-6.46-2.35-10.84-9.81-12.11s-12.15,1.73-13.25,8.18Zm11.22-20.09c.49-2.88,2.19-3.72,4.61-3.31s3.75,1.77,3.26,4.65l-3.69,21.79c-.49,2.88-2.19,3.72-4.61,3.31s-3.75-1.77-3.26-4.65Z"></path>
  <polygon class="cls-2" points="310.92 99.87 303.83 96.67 293.95 137.09 304.43 141.82 328.09 107.62 321.64 104.71 302.6 132.72 310.92 99.87"></polygon>
  <path class="cls-2" d="M344.77,128l-9.84,18.57L329.09,142Zm9.21-2-8.86-7L313.7,146.35l5.56,4.38,5.63-5,7.43,5.85-3.53,6.66,6.11,4.82Z"></path>
  <polygon class="cls-2" points="349.1 180.91 353.85 187.25 386.53 162.7 382.41 157.2 362.85 171.9 377.67 150.86 371.87 143.11 339.18 167.67 343.34 173.22 367.01 155.44 349.1 180.91"></polygon>
  <path class="cls-5" d="M360.92,250A111.23,111.23,0,1,1,249.69,138.58,111.32,111.32,0,0,1,360.92,250"></path>
  <path class="cls-2" d="M249.69,145.08c-57.76,0-104.75,47.07-104.75,104.92s47,104.92,104.75,104.92S354.43,307.85,354.43,250s-47-104.92-104.74-104.92"></path>
  <path class="cls-5" d="M244.34,352.12q-25.64-44.5-51.31-89l-37.77-65.52h63.16c.52-.52,1.05-1,1.58-1.49l-4.55-.4a24.43,24.43,0,0,1-9.82-2.51c-3.9-2-10.38-10.8-10.46-15.2-.14-6.5,3.71-15,6.27-17.27,1-.87,2.91-2.61,17.86-4.87,3.53-4.4,10.26-7,18.58-7,.59,0,1.17,0,1.75,0h.08c1.13.08,2.66.08,4.43.08,5.73,0,13.52,0,21.48,2.12,8.25,1.83,12.47,8.41,14.51,11.57l.06.1c.23.36.43.68.62.93.85,1.17,5.19,7.24,6.31,11.45a60,60,0,0,1,1.49,9.09l0,.28c.08.7.16,1.37.24,2l.35,2.74-1.8,2.11-1.13,1.29c-.06,1.13-.17,2.19-.27,3.15-.06.52-.13,1.19-.17,1.75h58.27L249.69,361.42l-5.35-9.3M224,192.75l.44-.37a5.85,5.85,0,0,0-.71-.28l.27.65"></path>
  <path class="cls-2" d="M248.28,349.84q-27-46.84-54-93.68l-31.14-54H220.4a42.16,42.16,0,0,1,5.51-5.07,15.68,15.68,0,0,0,3-2.75c.63-1.77.56-3.17-.22-4.28-1.71-2.44-6.59-3.3-10.24-3.3a17.76,17.76,0,0,0-1.81.08l1.89,4.55-2.68-.24a20,20,0,0,1-8.15-2c-2.63-1.35-7.92-8.79-8-11.22-.11-5.38,3.29-12.45,4.77-13.79,1.9-1.7,14-3.54,17.47-4,2.48-4.86,9.72-6.62,15.92-6.62.52,0,1,0,1.54,0,1.27.08,2.88.08,4.75.08,5.47,0,13,0,20.37,2,6.48,1.39,9.91,6.73,11.75,9.6.32.49.59.92.84,1.26,1.72,2.35,4.83,7.09,5.59,9.92a58.57,58.57,0,0,1,1.37,8.43c.09.82.18,1.61.27,2.35l.09.73-.48.57-.49.55h-.75a1.56,1.56,0,0,1-1-.34,33.89,33.89,0,0,1-.23,6.72,20.49,20.49,0,0,0-.18,3.63v.11a4.29,4.29,0,0,0,.88,2.22c.16.26.34.53.5.83h53.55L249.69,352.28l-1.41-2.44"></path>
  <path class="cls-2" d="M166,203.79Q207.83,276.42,249.69,349l83.73-145.23H281.66c-.57-1.58-1.89-2.53-2-4.62-.36-3.31,1.86-10.07-1-15.15,1.77,1.28,4,3.56,4,3.32a81.07,81.07,0,0,0-1.6-10.56c-.65-2.42-3.42-6.76-5.34-9.39-1.68-2.31-4.74-8.77-11.65-10.23-9.75-2.64-19.8-1.72-24.82-2-6.47-.3-14.44,1.36-16.26,6.44-3.4.4-16.11,2.52-17.5,3.76-1.05,1-4.34,7.58-4.23,12.55,0,1.71,4.93,8.7,7.08,9.79a18.48,18.48,0,0,0,7.56,1.87l-1.55-3.71c-.35-1.19,20-2.17,16,9.09-.69,1.88-5.95,4.72-9.26,8.88H166"></path>
  <path class="cls-4" d="M222.54,206.53l-1.35,4,.06,9.23.32,3.47.67,2.53,1.66,2.87.68.71L223,233.64l.16,5.23,3.6,9,2.28,5.34-.19,2.32,1.73-2.18.07,4.53.86,3.59,3.09,5.23,5.09,5.48,3.54,4.27,1.83,3.17,1.18,6,1.36-1.58L266,315.8,249.7,344,170.22,206.09h26.64c-5,5.19-7.37,14.83-.52,23.4-7-12,4.53-23,13.27-23Z"></path>
  <g class="cls-6">
    <rect class="cls-7" x="203.93" y="163.97" width="40.24" height="23.64"></rect>
  </g>
  <path class="cls-2" d="M215.55,167.31c-7.12.9-7.47,1.36-8.77,4.48s-2.36,5.67-.39,7.71c.27.24.71.76,1.3,1.24a15.45,15.45,0,0,1-1.46-2.44c-.59-2,.57-4.21,1.52-6,1.93-3.6,3.34-3.16,10.73-2.78a4.4,4.4,0,0,1-2.93-2.22"></path>
  <path class="cls-8" d="M218.13,165c-7.94,1.19,2,6.68,4.36,6.9,6.31.59,6.58,4.68,7.23,6.59,2.17,6.41,12.09,6.92,13.26,4.2,3.71-8.68-8.9-13.21-11.3-15.06-1-.78-.3-2.07-1.58-2.55-6.53-2.55-8.42-.49-12-.08"></path>
  <path class="cls-9" d="M231.84,165.57a2,2,0,0,0,.59,2,19.05,19.05,0,0,0,3.72,1.8,2.21,2.21,0,0,0,2.43.08,4.72,4.72,0,0,0,1.95-2.5c-.45,1.71-1.56,3.67-3.65,3.58a3.29,3.29,0,0,1-1.24-.4c-1.44-.66-3.59-1.09-4.45-2.58a3.44,3.44,0,0,1-.3-2.23Z"></path>
  <path class="cls-9" d="M224,163.54c1,.05,2.05,0,3.08.16,1.66.24,3.09,1.22,4.74,1.51a7.38,7.38,0,0,0,2.25,0c2.3-.22,4.43-.73,6.75-.35a9.67,9.67,0,0,1,4.2,1.71,9.62,9.62,0,0,0-5.15-1.38c-2.74.21-5.5,1.43-8.24.95-1.64-.27-3.11-1.33-4.76-1.52a8.92,8.92,0,0,0-2.82.08Z"></path>
  <path class="cls-9" d="M225.28,164.53l-10.22,1.69-4.49.79c-1,.22-2.2.18-2.82.94-1.87,2.24-2.74,5.32-3.25,8.12-.46,2.53,1.62,4.61,3.07,6.43a14.52,14.52,0,0,0,3.32,3.45l2.71,1.66a17.26,17.26,0,0,1-4.95-2.69l-3.23-4c-.68-.86-1.73-2-1.82-3.22A16.07,16.07,0,0,1,207,167.11c.76-.92,2.17-1,3.34-1.27l4.49-.89L225.28,163Z"></path>
  <path class="cls-10" d="M235.34,165.93a1.9,1.9,0,0,1,2.64.34,1.92,1.92,0,0,1-.92,2.53,1.71,1.71,0,1,1-1.72-2.87"></path>
  <path class="cls-9" d="M236.2,165.3a2.73,2.73,0,0,1,.7,0,1.76,1.76,0,0,1,1.33.85,1.74,1.74,0,0,1,.11,1.56,2.69,2.69,0,0,1-1.14,1.34,3,3,0,0,1-1,.35v-.57a2.62,2.62,0,0,0,.73-.28,2.09,2.09,0,0,0,.87-1,1.22,1.22,0,0,0-.06-1.12,1.25,1.25,0,0,0-.91-.54,2.22,2.22,0,0,0-.63,0Zm-1,.38a2.94,2.94,0,0,1,1-.38v.57a2.32,2.32,0,0,0-1.6,1.33,1.27,1.27,0,0,0,.06,1.08,1.2,1.2,0,0,0,.92.57,1.31,1.31,0,0,0,.62,0v.57a2.05,2.05,0,0,1-.7,0,1.89,1.89,0,0,1-1.33-.84,1.92,1.92,0,0,1-.11-1.57,2.66,2.66,0,0,1,1.14-1.33"></path>
  <path class="cls-9" d="M235.14,166.62c0-.51.49-.62,1.06-.23a2.12,2.12,0,0,1,1,1.59c0,.52-.49.63-1,.25a2.27,2.27,0,0,1-1-1.61"></path>
  <path class="cls-9" d="M224.5,164.05a5.6,5.6,0,0,1,2.19-3.94c4.8-3.87,11.41-2.63,17.07-2.55,7.47.13,14.93-.13,22,2.75a11.17,11.17,0,0,1,5.5,4.82l-1.33.66a9.58,9.58,0,0,0-4.77-4.1c-6.9-2.8-14.14-2.5-21.43-2.61-5.63-.11-12.62-1.57-17,3.07a3.19,3.19,0,0,0-.76,1.9Z"></path>
  <path class="cls-9" d="M271,164.7l3.06,4.89,2.55,3.28c1.07,1.74,2.33,3.45,2.62,5.45l.73,5.05h-.05c-.81-2.39-1.28-5-2.44-7.21s-2.93-3.84-4.38-5.76l-3.39-4.94Z"></path>
  <path class="cls-9" d="M241,173.88c1.54,1.48,3,2.76,3.27,5.05.49,4.3-4.28,6.83-8,6.83-3.2,0-5.58-1.68-8.51-2.76s-5.72-1.88-8.76-1.28l-7.55,2.5a.49.49,0,0,0-.22.67,8.91,8.91,0,0,0,2.31,2.72,9,9,0,0,1-3-2.82.81.81,0,0,1,.27-.81,1.3,1.3,0,0,1,.33-.17c4.14-1.6,8.66-3.93,13.25-2.77l7.66,2.85c2.69,1.08,5.39,1.52,8.11.3,2.06-.9,3.82-2.85,3.65-5.22-.16-2.11-1.54-3.53-2.81-5.09"></path>
  <path class="cls-9" d="M223.89,228.62a16.28,16.28,0,0,1-2-3.66c-1-3-1-6.46-1-9.58,0-2.63-.27-5.45.79-8,1.95-4.56,6.94-6.63,10-10.31a6.51,6.51,0,0,0,1.82-4.73c-.18-2.3-1.07-4.94-3.08-6.29-3.36-2.31-8-3.23-12-3.15a30.57,30.57,0,0,0-7.18,1.22l-.08-.11,4.71-1.49a23.32,23.32,0,0,1,13.82,1.84c4.4,2,6.59,8,4.11,12.25s-7.37,6-10.21,9.85c-1.92,2.6-1.7,5.81-1.75,8.9a39.19,39.19,0,0,0,.59,9.42Z"></path>
  <path class="cls-9" d="M272.32,178.76c1.64,1.55,3.17,2.77,4.12,4.89a13.92,13.92,0,0,1,1.32,5.37c0,2.42-.16,4.8-.37,7.25s-.87,3.39.23,5.37c.65,1.15,1.71,2.09,1.71,3.47-.51-1.46-2.35-2.79-2.89-3.82-1.28-2.55-.06-5.52,0-8.17.1-3.64.1-7.42-1.69-10.69Z"></path>
  <path class="cls-9" d="M225,228.18c-.87,2.88-2,5.9-1.49,9,.82,4.86,3.17,8.85,5,13.33a6.22,6.22,0,0,1,.38,5.05l-.11,0a8.37,8.37,0,0,0-1.08-4.67L223,241.3a16.27,16.27,0,0,1-.18-8.51Z"></path>
  <path class="cls-9" d="M221.14,168.2a4.79,4.79,0,0,1,3.76-.82,4.62,4.62,0,0,1-3.76.82"></path>
  <path class="cls-9" d="M221.14,168.2h0a4.71,4.71,0,0,1,2.72-.9,8.28,8.28,0,0,1,1.05.08h0a4.53,4.53,0,0,1-2.67.9,8.88,8.88,0,0,1-1.09-.08h0a9,9,0,0,0,1.09.09,4.54,4.54,0,0,0,2.67-.91h0a8.28,8.28,0,0,0-1.05-.08,4.72,4.72,0,0,0-2.71.89Z"></path>
  <path class="cls-9" d="M274.57,177.92a15,15,0,0,1,3.63,1.79c1,.84,1.44,2.47,1.75,3.66a11,11,0,0,0-2.41-3Z"></path>
  <path class="cls-9" d="M246.39,285.57a17.89,17.89,0,0,0,2.88-6.52l.15-3.87h.06a9.38,9.38,0,0,1-.21,6.91,9.49,9.49,0,0,1-2.88,3.48"></path>
  <path class="cls-5" d="M270.07,203.43a13.2,13.2,0,0,0-4.31-7.84c-2.49-2.61-2.87-7.09-1.95-9.77A18.75,18.75,0,0,0,266,190c2,2.88,3.67,3.85,4.51,8.21.37,2,.18,2.76-.41,5.2"></path>
  <path class="cls-5" d="M266,173.93a12.74,12.74,0,0,1,1.85,8.44c-.17,3.39,2.41,7.08,4.82,8.69a20.22,20.22,0,0,1-1.11-4.49c-.38-3.28.27-5-1.89-8.82-1-1.75-1.66-2.27-3.67-3.82"></path>
  <path class="cls-5" d="M227.59,226.88a22.62,22.62,0,0,1-.42-7.24c.84-2.28-.1-5.35-1.43-7a14.47,14.47,0,0,1-.19,3.31c-.45,2.34-1.24,3.34-.59,6.43.27,1.42,1.59,3,2.63,4.48"></path>
  <path class="cls-5" d="M236.47,231.75a12.75,12.75,0,0,0,1.9,8.43c1.57,3,.81,7.41-.71,9.89a18.86,18.86,0,0,0-.89-4.51c-1-3.15-2.33-4.4-2-8.82.16-2,.54-2.74,1.7-5"></path>
  <path class="cls-5" d="M238.34,218.47a12.93,12.93,0,0,1-.4,8.66c-1,3.2.48,7.43,2.41,9.61a19,19,0,0,1,.07-4.62c.5-3.26,1.55-4.72.47-9-.52-1.94-1-2.6-2.55-4.64"></path>
  <path class="cls-9" d="M222.54,207.26l-12.93-.11a15.51,15.51,0,0,0-14.73,12.16,14.4,14.4,0,0,0,0,5.92l1.51,4.21-.07.06-1.89-4.17c-2.26-8.05,3.39-16.6,11.18-18.85a13.83,13.83,0,0,1,4-.57l12.93-.14Z"></path>
  <path class="cls-11" d="M264.62,221l28,48.54-10.81,18.75-34.21-59.44a16.45,16.45,0,0,1-2.36-8.3,14.16,14.16,0,0,1,1.94-7.16,14.36,14.36,0,0,1,5.24-5.2,16.55,16.55,0,0,1,8.29-2.13h68.51L318.3,225,316,221h-2.83l3.69,6.41-10.81,18.73L291.58,221h-2.77l15.87,27.59-10.74,18.62L267.3,221Z"></path>
  <path class="cls-2" d="M279.6,227.05a10.66,10.66,0,0,0-2.44-8.42c-2-3-1-7.36,1-9.69a15,15,0,0,0,1.13,4.52c1.33,3.13,3,4.44,2.55,8.76-.22,1.95-.74,2.69-2.28,4.83"></path>
  <path class="cls-9" d="M230.62,253.32c.24,2.56.27,5.08,1.27,7.49,2.85,6.93,9.84,10.89,13.1,17.59a14.87,14.87,0,0,1,1.34,4.56l0,2.6h-.1a23.59,23.59,0,0,0-2.14-6.73c-3.68-6.51-10.68-10.36-13.17-17.68a14.18,14.18,0,0,1-.73-5Z"></path>
  <path class="cls-2" d="M236.47,166.24a.51.51,0,0,1,.52.52.53.53,0,0,1-.52.55.52.52,0,0,1-.48-.55.5.5,0,0,1,.48-.52"></path>
  <path class="cls-2" d="M266.08,214.15c1.92-4.83-2.56-8.6-2.56-8.6-2.74-3.2-1.2-6.6,2.18-8.74,0,1.73,1.09,2.36,1.76,3.74,1.61,3.28,4.05,4.72,2.75,9-.6,1.93-1.47,2.6-4.13,4.61"></path>
  <path class="cls-2" d="M403.79,229.47l-6.27,7.14v2.85h3.14v21.42h-3.14V268h14.11v-7.13h-3.14V229.47Zm-28.21,0-6.27,5.71v4.28h7.83v-2.85H385v8.56h-9.4l-6.27,5.71V268h23.51V258H385v2.86h-7.84v-8.57h9.41l6.27-5.71V235.18l-6.27-5.71Zm-261,7.14h7.84v8.56H114.6ZM113,229.47l-6.27,5.71V246.6l6.27,5.71h9.4v8.57H114.6V258h-7.83v4.28L113,268h11l6.27-5.71V235.18L124,229.47Zm-18.75,0L88,236.61v2.85h3.14v21.42H88V268h14.11v-7.13H99V229.47Z"></path>
  <g class="cls-12">
    <path class="cls-2" d="M250.77,246.92h-.46a2.86,2.86,0,0,1-.64.78,4.07,4.07,0,0,1-1,.68v.69a4.28,4.28,0,0,0,.75-.37,3.53,3.53,0,0,0,.67-.49v4.55h.72v-5.84"></path>
  </g>
</svg>
