<?xml version="1.0" encoding="UTF-8"?>
<svg xmlns="http://www.w3.org/2000/svg" xmlns:xlink="http://www.w3.org/1999/xlink" id="Layer_1" data-name="Layer 1" viewBox="0 0 500 500">
  <defs>
    <style>.cls-1{fill:none;}.cls-2{clip-path:url(#clip-path);}.cls-3{fill:#ad1c21;}.cls-3,.cls-4{fill-rule:evenodd;}.cls-4{fill:#f5e098;}</style>
    <clipPath id="clip-path">
      <rect class="cls-1" x="-47.64" y="-47.64" width="595.28" height="595.28"></rect>
    </clipPath>
  </defs>
  <title>logo</title>
  <g class="cls-2">
    <g class="cls-2">
      <path class="cls-3" d="M399.81,232.64c8.58-34.88,12-70.88,12-106.75,0-14.52-6.73-26.5-20.19-32.37C315,60.09,185,60.06,108.35,93.52c-13.45,5.88-20.2,17.85-20.19,32.37,0,35.86,3.48,71.85,12.06,106.72A64.93,64.93,0,0,0,117.61,285C142.37,343.13,182,388.38,233.06,424.88c4.92,3.51,10.73,6.68,16.92,6.68s12.09-3.17,17-6.68C318.1,388.39,357.69,343.1,382.45,285a64.71,64.71,0,0,0,17.82-44.66,66.2,66.2,0,0,0-.46-7.71"></path>
      <path class="cls-4" d="M306.31,188.48V177.29l1.69-.24-8.93-12.79L296.9,164l-1.45-1.93H276.63l-5.07,7.49-.48-.25-.48-8.44-5.07-1.21-5.07-1.45v-8.44l1.93-.73v-6.27l1.45-.48-16-14.24L233,140.61l1.21.48v6.27l1.93,1.21v8l-3.38-.48-.49,2.9-3.85.24v14.72l-5.56.72-.36.12-6.87,4-1.21-4.34-1.45-4.1-28.72,1.93-.87,11.7A59.48,59.48,0,0,0,112,212.81h0c-5.41-27.33-8-56.3-8-86.92,0-8.19,3-14.53,10.69-17.86C156.1,90,205.13,84.45,250,84.45S343.93,90,385.31,108c7.65,3.33,10.71,9.66,10.7,17.85,0,30.61-2.57,59.57-8,86.89h0v0a59.45,59.45,0,0,0-81.71-24.33m88,43.31c7.84-31.66,12-66.78,12-105.9,0-13.36-6.31-22.74-16.92-27.37-75.22-32.84-203.69-32.79-278.92,0-10.61,4.63-16.92,14-16.92,27.37,0,39.33,4.21,74.62,12.13,106.42v0a59.39,59.39,0,0,0,16.43,49.64v0c24.62,58.27,64.05,102.83,114,138.48,4.13,2.95,9.07,5.67,13.84,5.67s9.65-2.72,13.74-5.67c49.92-35.62,89.31-80.13,113.93-138.33a.67.67,0,0,0,.06-.12l-.11.1a59.39,59.39,0,0,0,16.58-49.79l0-.06h0v-.06l.09-.36Zm-246-103.11,7.06-1.81-.65-2.63-2.15.55L151.39,120l7.94-2,1.19,4.77-2.14.55.65,2.64,7.06-1.81-.65-2.64-2,.5-3-11.9,2-.5-.66-2.63-7.06,1.81.66,2.63,2.14-.55,1.13,4.54-7.95,2-1.13-4.54,2.15-.55-.66-2.64L144,111.51l.66,2.64,2-.5,3,11.89-2,.51Zm26.27-6.08a9,9,0,0,0,7.35-10.75,8.75,8.75,0,0,0-10.54-7.32A9,9,0,0,0,164,115.28a8.75,8.75,0,0,0,10.54,7.32m-.43-2.8c3.36-.64,5.35-3.71,4.68-7.36s-3.62-5.77-7-5.12-5.38,3.71-4.71,7.36,3.61,5.77,7,5.12m9,.64,7.22-1-.35-2.69-2.19.3-.37-2.83,2.21-2.83,5.93,7.33,4.22-.58-.35-2.69-2.32.32-5.44-6.72,4.29-5.51,1.89-.26-.35-2.7-7.74,1.07.34,2.64,2-.28L187,110.78l-.77-6,2.19-.3-.34-2.65-7.22,1,.35,2.69,2-.27,1.58,12.16-2,.28Zm18.08-2.52,13.21-1.18-.41-5-2.9.26.19,2.36-5.26.47-.4-5,5.34-.48-.21-2.57-5.34.47-.39-4.72,5.24-.47.19,2.36,2.9-.25-.41-5-13.19,1.18L200,103l2-.18L203,115l-2,.19Zm20.57-1.16a5.56,5.56,0,0,0,3.93-1.72,6.54,6.54,0,0,0,1.35-4.77l-.47-9.14,1.94-.12-.14-2.72-7.56.45.14,2.72,2.66-.16.47,9.14a3.82,3.82,0,0,1-.69,2.85,3.27,3.27,0,0,1-4.16,0,1.78,1.78,0,0,0-1.34-3.07,2.09,2.09,0,0,0-1.9,2.43c.13,2.5,2.7,4.32,5.77,4.14m16.64-.85a9,9,0,0,0,9-9.45,8.73,8.73,0,0,0-9.22-8.91,9,9,0,0,0-9,9.45,8.73,8.73,0,0,0,9.22,8.91m0-2.82c3.42-.11,5.87-2.82,5.79-6.54s-2.64-6.28-6.07-6.18-5.89,2.82-5.81,6.54,2.64,6.28,6.09,6.18m16.35,2.7,1.73,0,6.76-15.1,1.62,0,.06-2.72-7-.1-.07,2.72,2,0-4,9.67-3.62-9.77,1.86,0,.06-2.72-7-.1-.06,2.72,1.62,0Zm14.79,0,7.51.32.13-2.71-2.23-.1.21-4,5.45-8,1.78.08.14-2.72-6.7-.29-.14,2.72,1.66.07-3.51,5.54-3-5.82,1.56.07.14-2.72-6.7-.29-.14,2.72,1.78.08,4.61,8.45-.21,4-2.23-.1ZM274,96.7,278.15,94a1.9,1.9,0,0,0,.91-1.44,1.32,1.32,0,0,0-1.25-1.43,2,2,0,0,0-1.52.77l-3.17,3.91Zm16.82,20.43,7.23.76.31-2.71-2.2-.23.32-2.84,2.83-2.22,4,8.55,4.23.44.3-2.7-2.33-.25-3.66-7.84,5.47-4.33,1.9.2.31-2.71-7.76-.81-.3,2.65,2,.21-6.59,5.35.68-6,2.19.23.3-2.65-7.22-.76-.31,2.7,2,.21-1.38,12.22-2-.21Zm18.34,2.06,12.71,2,.84-5.14-2.89-.45-.41,2.47-4.81-.75,2-12.16,2.31.36.45-2.69L312,101.67l-.45,2.69,2,.31-2,12.14-2-.31Zm20.67,4.19c3.82.83,6.95-.75,8-5.28l1.87-8.29,1.89.41.6-2.66-6.86-1.49-.6,2.66,2.08.45-1.86,8.29c-.61,2.69-2.24,3.69-4.48,3.2s-3.22-2.19-2.62-4.85l1.84-8.19,2.07.46.6-2.66-6.94-1.51-.6,2.66,1.9.41-1.88,8.34c-1,4.48,1.16,7.22,5,8M339,125l7.06,2.07c4.13,1.21,7-.07,7.83-2.88.64-2.13-.26-3.74-2.18-5a4.1,4.1,0,0,0,4-2.95c.77-2.56-.69-5.07-4.85-6.29l-6.78-2-.78,2.62,1.93.56L341.74,123l-1.93-.57Zm5.59-1.15,2.29.67c2,.59,3.6.16,4.09-1.47s-.5-2.82-2.69-3.46l-2.22-.65Zm2.17-7.24,2,.58c2,.6,3.45,0,3.89-1.47s-.51-2.6-2.58-3.2l-1.91-.56ZM158.94,259.06l-14.06-3.31,1.65-7,4.24,1,5.77-24.51-4.25-1,1.65-7,14.74,3.46c6.87,1.62,11.94,4.7,15,8.83s4.06,9.45,2.69,15.31-4.65,10.53-9.49,13c-4.59,2.38-10.62,2.93-17.91,1.21m5.29-32,2.58.61c4.49,1.06,7.86,3,9.87,5.6A11.25,11.25,0,0,1,178.4,243v0c-.91,3.88-2.89,6.76-5.8,8.37s-6.55,1.93-11.09.87l-3-.72Zm56.06,38.19c-2.91,2.49-6.86,3.47-11.39,3s-8.29-2.12-10.7-5.08c-2.26-2.78-3.34-6.64-2.88-11.59L197,233.9l-4.16-.39.67-7.17,16.61,1.56-.67,7.18-4.58-.43L203.23,252a9.16,9.16,0,0,0,1.33,6.41,6.72,6.72,0,0,0,5,2.57,6.9,6.9,0,0,0,5.56-1.52c1.32-1.21,2.16-3.16,2.41-5.88L219.22,236l-4.57-.43.68-7.17L231.76,230l-.67,7.17-4.17-.39-1.66,17.57c-.47,5-2.26,8.6-5,10.92M252,269.47l-16.36.17-.08-7.2,4.36-.05-.26-25.18-4.36,0-.07-7.21,17-.17.07,7.09-4.76.05.11,10.67,10.47-10.78-3.43,0-.07-7.09,18.19-.19.07,7.21-4.51,0-10,10.06,9.46,15.12,5.35-.05.07,7.2-10.23.11-10.57-16.94-4.68,4.68.06,5.21,4.76-.05.08,7.21Zm56.69-4.15-28.27,3.29-.84-7.17,4.34-.5-2.91-25-4.33.51-.83-7.17,17.21-2,.84,7.17-5,.58,2.91,25.06,9.13-1.06-.63-5.37,7.63-.88,1.45,12.47ZM330.85,261l-15,3.52-1.65-7,3.42-.81,3-26.63-3.81.89-1.63-7,22.36-5.26,1.63,7-3.8.9L350,249l3.42-.81,1.66,7-15.63,3.68-1.64-7,4.05-1-2.78-4.42-13,3.06-.51,5.2,4.26-1,1.64,7Zm-2.64-31.53,7.13,11.06-8.57,2ZM361,294a.83.83,0,0,1-.16.09c-22.29,45-55.94,84.27-103.09,117.93-1.76,1.26-5.52,3.74-7.71,3.74s-6-2.45-7.82-3.74C195.05,378.32,161.4,339,139.11,294h0l.74.35h.08a59.47,59.47,0,0,0,62.38-8.12,57.5,57.5,0,0,0,95.26-.07A59.44,59.44,0,0,0,361,294M249.92,206.88a46.88,46.88,0,0,0-28.79,9.81l-8.95,6.91-6.07-9.55a49.1,49.1,0,1,0-10.34,64.26l8.74-7.18,6.35,9.36a47.19,47.19,0,0,0,78.17-.06l6.36-9.4,8.75,7.22a49.1,49.1,0,1,0-10.3-64.14l-6.08,9.59-9-7a46.9,46.9,0,0,0-28.87-9.86M200.56,340.54l-8.14-1.09.47-3.5,2.31.31L196.81,324l-2.78-.37-.39,2.93-3.67-.49.83-6.36,16.76,2.25-.83,6.35-3.68-.49.38-2.93-2.78-.37L199,336.77l2.32.31-.46,3.51Zm109.16-1.23-1.87.35-11.48-10.78,1.32,8.64,2.31-.35.54,3.5-8.17,1.23-.54-3.5,2.11-.32-1.87-12.16-2.11.33-.53-3.51,5.29-.8L305,331.63l-1.15-7.49-2.31.35L301,321l8.08-1.22.54,3.5-2,.31L310,339.25Zm-20.51,2.9-8.06.72-.33-3.52,2.27-.21L282,327l-2.26.21-.33-3.52,8.39-.76.33,3.52-2.26.21L287,338.86l2.27-.21.32,3.53Zm-1.94-23.42-4.15,3.62-1.5-1.21c1-1.59,1.91-3.2,2.88-4.79a3.1,3.1,0,0,1,.77-.8,2.05,2.05,0,0,1,1-.36h0a1.77,1.77,0,0,1,1.24.41,1.82,1.82,0,0,1,.61,1.22v0a2,2,0,0,1-.18,1,2.58,2.58,0,0,1-.66.89Zm-11.27,24a10.68,10.68,0,0,1-4.21,1.12,10.33,10.33,0,0,1-7.5-2.32,10.42,10.42,0,0,1-.87-14.39,10.26,10.26,0,0,1,7.07-3.31,9.92,9.92,0,0,1,5.33,1,4.36,4.36,0,0,1,2.54,3.36,2.78,2.78,0,0,1-.54,1.91,2.29,2.29,0,0,1-1.67.86,2.57,2.57,0,0,1-1.83-.54,2.31,2.31,0,0,1-.81-1.66,2.88,2.88,0,0,1,0-.59,2,2,0,0,1,0-.26,3.8,3.8,0,0,0-1.1-.37,7.54,7.54,0,0,0-1.86-.1,6,6,0,0,0-4.24,2.06,6.4,6.4,0,0,0-1.44,4.64,6.53,6.53,0,0,0,2.05,4.5,6.08,6.08,0,0,0,4.56,1.52,6.46,6.46,0,0,0,2.7-.75,7.55,7.55,0,0,0,2.28-1.91l.22-.28,2.75,2.54-.19.24a9.9,9.9,0,0,1-3.32,2.69m-6.13-23.93,3.6-3,1.83,1.87-5.14,5.77-5.82-5.13,1.59-2.07ZM259,344.15l-1.9.06-9.74-12.38v8.74h2.34v3.55l-8.26,0v-3.54h2.13l0-12.3h-2.13v-3.54h5.36l8.73,11.11v-7.57h-2.34v-3.54h8.17v3.54H259.3l0,15.85ZM238.77,344l-14.3-.93.22-3.53,2.12.14.76-12.27-2.13-.14.22-3.53,14.6.94-.37,6-3.73-.24.16-2.5-4.87-.31-.27,4.32,5.65.37-.21,3.39-5.65-.36-.28,4.61,4.89.31.16-2.49,3.73.24-.37,6Zm-24.6-1.85-8-.8.34-3.53,2.13.22,1.2-12.24-2.12-.21.35-3.52,7.54.76a9.24,9.24,0,0,1,5.46,2.13,5.3,5.3,0,0,1,1.62,4.6,5.65,5.65,0,0,1-1.31,3.14,6,6,0,0,1-2.58,1.74l2.14,4.84,2.26.23-.35,3.52-4.83-.49-3-7.43c-.32,0-.63,0-.94-.05l-.84-.09-.35-.05-.35,3.51,2.32.23-.35,3.53Zm-.63-10.58-.33-.05.52-5.33,1.4.14a5.23,5.23,0,0,1,2.85,1,2.15,2.15,0,0,1,.75,2,2.43,2.43,0,0,1-1.18,1.91,4.61,4.61,0,0,1-2.87.51l-1.14-.13m15.12,61.89v-1.94h2.59v-7l-2.18.52-.54-1.94,3.92-1h1.15v9.38h2.54v1.94ZM242,396.17a4.57,4.57,0,0,1-3.32-1.17,2,2,0,0,1-.58-1.38,1.53,1.53,0,0,1,1.45-1.57,1.49,1.49,0,0,1,1.55,1.44,2,2,0,0,1-.09.5,3.08,3.08,0,0,0,1.21.22c1.44,0,3.34-1.65,3.42-4.94a4.11,4.11,0,0,1-3.31,1.59c-2.78,0-4.85-1.9-4.85-4.35s2.17-4.57,5.17-4.57a4.84,4.84,0,0,1,3.56,1.33,7,7,0,0,1,1.7,5c0,5.08-2.72,7.87-5.91,7.87m2.63-11.54a2.42,2.42,0,0,1,.8,1.77,2.69,2.69,0,0,1-2.89,2.52,2.48,2.48,0,0,1-2.67-2.41,2.68,2.68,0,0,1,2.78-2.63,2.91,2.91,0,0,1,2,.75m10.87-3.21c-1.4,0-3.34,1.6-3.43,4.92a4.05,4.05,0,0,1,3.32-1.62c2.78,0,4.85,1.87,4.85,4.33S258,393.6,255,393.6a4.79,4.79,0,0,1-3.66-1.45,6.72,6.72,0,0,1-1.6-4.87c0-5.08,2.72-7.82,5.91-7.82a4.7,4.7,0,0,1,3.28,1.12,2,2,0,0,1,.63,1.42,1.54,1.54,0,0,1-1.45,1.58,1.48,1.48,0,0,1-1.55-1.45,1.33,1.33,0,0,1,.08-.49,3.21,3.21,0,0,0-1.2-.22M255,391.66a3,3,0,0,1-2-.75,2.42,2.42,0,0,1-.8-1.75,2.68,2.68,0,0,1,2.89-2.5,2.47,2.47,0,0,1,2.68,2.39,2.67,2.67,0,0,1-2.79,2.61m11.52-7.76a3.23,3.23,0,0,0-1.95.5,1.41,1.41,0,0,1,.26.79,1.43,1.43,0,0,1-1.42,1.43,1.56,1.56,0,0,1-1.46-1.71,2.06,2.06,0,0,1,.49-1.23,5.29,5.29,0,0,1,4.16-1.74c2.83,0,4.46,1.66,4.46,3.3,0,1.87-1.48,2.86-3.44,4a8,8,0,0,0-3,2.35h4.87v-1.81h1.94v3.69h-9.42l-.41-1.17a10.61,10.61,0,0,1,4.59-4.57c1.43-.84,2.46-1.48,2.46-2.39s-.93-1.4-2.13-1.4"></path>
    </g>
  </g>
</svg>
