<?xml version="1.0" encoding="UTF-8"?>
<svg xmlns="http://www.w3.org/2000/svg" xmlns:xlink="http://www.w3.org/1999/xlink" id="Layer_1" data-name="Layer 1" viewBox="0 0 500 500">
  <defs>
    <style>.cls-1{fill:none;}.cls-2{clip-path:url(#clip-path);}.cls-3{fill:#bcbdc0;}.cls-4{fill:#003d6b;}.cls-5{fill:#fff;}.cls-6{fill:#001c58;}.cls-7{fill:#c51c31;}.cls-8{fill:#a7a9ac;fill-rule:evenodd;}.cls-9{fill:#e6e7e8;}.cls-10{fill:#e03127;}.cls-11{fill:#b22c1b;}.cls-12{fill:#ffdf1c;}.cls-13{fill:#febe10;}.cls-14{fill:#fff450;}.cls-15{fill:#666e9a;}</style>
    <clipPath id="clip-path">
      <rect class="cls-1" x="-47.64" y="-47.64" width="595.28" height="595.28"></rect>
    </clipPath>
  </defs>
  <g class="cls-2">
    <g class="cls-2">
      <path class="cls-3" d="M250,437.66c103.64,0,187.66-84,187.66-187.66S353.64,62.34,250,62.34,62.34,146.36,62.34,250s84,187.66,187.66,187.66"></path>
      <path class="cls-4" d="M250,431.63A181.63,181.63,0,0,0,431.63,250c0-100.31-81.32-181.64-181.63-181.64S68.37,149.69,68.37,250A181.63,181.63,0,0,0,250,431.63"></path>
      <path class="cls-5" d="M250,427.62A177.62,177.62,0,1,0,72.38,250,177.62,177.62,0,0,0,250,427.62"></path>
      <path class="cls-6" d="M250.64,375.32A125.39,125.39,0,1,0,125.25,249.94,125.39,125.39,0,0,0,250.64,375.32"></path>
      <path class="cls-7" d="M250.64,375.32h0V124.55A125.41,125.41,0,0,0,126.38,233.08v33.71A125.41,125.41,0,0,0,250.64,375.32"></path>
      <path class="cls-4" d="M250.64,375.32A125.4,125.4,0,0,0,374.89,266.79V233.08A125.4,125.4,0,0,0,250.64,124.55Z"></path>
      <polygon class="cls-7" points="127.69 322 123.91 335.19 110.91 334.92 121.58 342.79 117.32 355.81 127.69 347.5 138.05 355.81 133.79 342.79 144.46 334.92 131.46 335.19 127.69 322"></polygon>
      <polygon class="cls-7" points="371.85 322 368.08 335.19 355.08 334.92 365.75 342.79 361.49 355.81 371.85 347.5 382.22 355.81 377.96 342.79 388.63 334.92 375.63 335.19 371.85 322"></polygon>
      <path class="cls-4" d="M332.64,364.66l-9.15-6.72-5.91,4.3,19.35,14.42L345,387.79l5.66-4.11-8-11.05-7.79-22.94L329,353.91ZM309.57,367l-20.05,7.7L302.71,409l20.05-7.7-2.51-6.53L306.73,400l-2.84-7.39,7-2.69-2.51-6.52-7,2.68-2.84-7.38,13.53-5.2ZM271,378.56l-4.7,11.52-1.5-10.65-7,1,5.13,36.44,7-1-1.71-12.16,2.31-5.75,6.6,16.9,7.06-1-9.78-25.24,4.66-11.2Zm-31.64,13,7,.61.5-5.68-5.31-6.33-9.76-.86-6.33,5.31-2.19,25,5.31,6.33,9.76.85,6.33-5.3.5-5.69-7-.6-.25,2.83-1.85,1.55-4.08-.35-1.54-1.85,1.69-19.34,1.84-1.54,4.08.35,1.55,1.85Zm-30.21-17.77-9.31-3-7.37,3.75-7.76,23.89,3.76,7.36,9.31,3,7.36-3.75,7.76-23.89Zm-3.78,7.91-6,18.47-2.15,1.09L193.37,400l-1.1-2.14,6-18.46,2.15-1.09,3.89,1.26Zm-26-21.92-8.11,12.5-6.21-4,8.11-12.49L167.35,352l-20,30.86,5.86,3.81,8.12-12.5,6.21,4-8.12,12.5,5.94,3.86,20-30.86Z"></path>
      <path class="cls-4" d="M362,178.19l29.17-15.5,5.94,11.17-7.7,13.21c-.24.4-.56.9-1,1.5s-1,1.4-1.78,2.42a27.36,27.36,0,0,1,2.35-1.71q1.26-.81,2.82-1.65l9.84-5.23,4.61,8.67-29.16,15.5-4.61-8.66,10.16-17.72q.33-.58,1.05-1.62c.5-.69,1.06-1.47,1.71-2.31A24.81,24.81,0,0,1,383,178c-.82.54-1.75,1.08-2.78,1.63l-13.67,7.27ZM342.1,153.62,367,132l18.07,20.79-6.74,5.86-11.28-13-2.87,2.49L375.44,161l-5.64,4.9L358.57,153l-2.87,2.5,11.2,12.88-6.81,5.92Zm-24.1-18L337,108.57l8.95,6.26L332.12,134.5l13,9.1L340,151Zm-19.31-18.55,9.91,3.8L314,106.8,304.1,103Zm19.48,7.62q-1.57,4.13-4.26,5.49c-1.78.91-3.92.89-6.4-.06l-14.19-5.45q-3.74-1.44-4.83-4.25t.5-6.93l5.45-14.2c1.08-2.83,2.5-4.68,4.27-5.57s3.91-.86,6.45.11l14.19,5.45q3.82,1.47,4.87,4.21t-.59,7ZM261,117.82l-8.22-34.29,10.68,1.31,3.89,18.29q.22,1,.39,2.13t.3,2.46c.31-.85.61-1.62.89-2.32s.59-1.35.88-2L278,86.63l10.61,1.3-16.27,31.28Zm-13.82-1-30.28,3.72-1-8.43,15.73-17.65-17.12,2.1-1.09-8.87L243.12,84l1.09,8.86-15,17,16.85-2.07Zm-72.56,10.85c-.41-.9-.78-1.75-1.1-2.57s-.61-1.6-.88-2.35L167,106.3l12.11-7.57,17.5,28L188.32,132l-8.65-13.85c-.59-.93-1.14-1.92-1.67-2.94s-1-2.07-1.44-3.13l-.27.17,7.53,22.56L177,139l-17-16.63-.24.15c.76.87,1.49,1.76,2.18,2.67s1.33,1.85,1.92,2.79l8.65,13.84-8.33,5.2-17.5-28,12.11-7.57,12.32,12.21c.48.47,1,1,1.54,1.63s1.22,1.4,2,2.33M140.2,174.42l-24.93-21.66,6.65-7.65,9.54,8.3,1.57-1.8-3.42-15.34,8-9.18,4,20.13,21.37,1-8.41,9.68-15.66-1.2-1.56,1.8,9.51,8.27ZM123,206.51,93.81,191l4.9-9.21,10.86,5.77,5.35-10.08-10.85-5.77,4.9-9.21L138.13,178l-4.9,9.22L121.56,181l-5.36,10.07,11.68,6.21Z"></path>
      <polygon class="cls-8" points="399.84 248.19 399.84 269.3 420.57 279.46 352.95 312.58 352.95 271.13 341.32 276.82 329.71 271.14 329.71 310.89 250.18 349.83 170.01 310.57 170.01 278.09 147.04 278.09 147.04 312.58 79.43 279.45 100.17 269.3 100.17 248.17 79.43 238.03 147.04 204.9 147.04 239.4 170.01 239.4 170.01 158.11 195.62 170.65 250.05 143.99 304.11 170.64 329.71 158.11 329.71 221.07 341.32 226.77 352.95 221.07 352.95 204.9 420.56 238.02 399.84 248.19"></polygon>
      <polygon class="cls-9" points="397.11 246.49 414.37 238.02 355.68 209.27 355.68 222.77 341.32 229.8 326.99 222.77 326.99 162.48 304.11 173.68 250.05 147.03 195.62 173.68 172.74 162.48 172.74 242.13 144.32 242.13 144.32 209.27 85.63 238.02 102.89 246.47 102.89 271 85.63 279.46 144.32 308.21 144.32 275.36 172.74 275.36 172.74 308.87 250.18 346.8 326.99 309.19 326.99 266.77 341.32 273.79 355.68 266.77 355.68 308.21 414.37 279.46 397.11 271 397.11 246.49"></polygon>
      <polygon class="cls-10" points="250.03 155.26 211.12 174.32 211.12 208.88 288.6 208.88 288.6 174.15 250.03 155.26"></polygon>
      <polygon class="cls-11" points="250.03 155.26 250.03 208.88 288.6 208.88 288.6 174.15 250.03 155.26"></polygon>
      <path class="cls-6" d="M210.41,172.87l38.91-19.05.71-.35.71.35,38.57,18.88.91.45V210.5H209.5V173.31ZM250,157.06l-37.3,18.26v32H287V175.15Z"></path>
      <polygon class="cls-12" points="250.18 338.58 180.12 304.27 180.12 221.11 319.6 221.11 319.6 304.58 250.18 338.58"></polygon>
      <polygon class="cls-13" points="250.18 221.11 319.6 221.11 319.6 304.59 250.18 338.58 250.18 221.11"></polygon>
      <path class="cls-6" d="M181.74,303.26l68.44,33.53L318,303.58V222.73H181.74ZM249.47,340l-70.06-34.32-.91-.44V219.49H321.22v86.1l-.91.44-69.43,34-.71.35Z"></path>
      <polygon class="cls-12" points="285.07 238.03 250.53 221.11 250.53 227.38 213.63 245.45 213.63 272.02 250.53 290.11 250.53 296.37 285.07 279.44 242.76 258.73 285.07 238.03"></polygon>
      <path class="cls-6" d="M251.23,219.66l.58.28,34,16.64,3,1.45-3,1.44-39.34,19.26L285.77,278l3,1.44-3,1.45-34.54,16.93L248.91,299v-7.85l-36-17.64L212,273V244.45l.91-.45,36-17.62v-5.27l-.06-1.29ZM281.4,238,252.15,223.7v4.68l-.92.45-36,17.62V271l36,17.65.92.44v4.67l29.25-14.33-39.35-19.27-3-1.45,3-1.45Z"></path>
      <path class="cls-10" d="M254.63,269.12l-21.19-10.38L275.75,238l-21.12-10.34v2.25L217.73,248v21.47l36.9,18.07v2.26l21.12-10.36s-2.66-1.29-2.66-1.29Z"></path>
      <polygon class="cls-12" points="207.06 241.88 214.93 238.03 180.4 221.11 180.4 249.51 136.94 249.51 136.94 221.11 102.42 238.03 110.29 241.88 110.29 275.6 102.42 279.46 136.94 296.37 136.94 267.98 180.4 267.98 180.4 296.37 214.93 279.46 207.06 275.6 207.06 241.88"></polygon>
      <path class="cls-6" d="M215.64,239.48l-7,3.4V274.6l7,3.41,3,1.45-3,1.45L181.1,297.82,178.78,299V269.6H138.56V299l-2.33-1.14-34.52-16.91-2.95-1.45,2.95-1.45,7-3.41V242.88l-7-3.4L98.76,238l2.95-1.45,34.52-16.92,2.33-1.14v29.37h40.22V221.11l.45-1.25,1.87-.2,34.54,16.92,3,1.45Zm-9.29,1,4.92-2.4L182,223.7v27.43H135.32V223.7L106.08,238l4.91,2.4.92.45V276.6l-.92.45-4.91,2.41,29.24,14.32V266.36H182v27.42l29.26-14.32-4.92-2.41-.91-.45V240.88Z"></path>
      <path class="cls-10" d="M203,239.32l2.63-1.3c-7.35-3.62-21.09-10.34-21.09-10.34v25.93H132.85V227.68L111.74,238l2.63,1.3v38.83l-2.63,1.31,21.11,10.34V263.87h51.66V289.8l21.09-10.34L203,278.15Z"></path>
      <polygon class="cls-12" points="389.71 241.88 397.59 238.03 363.06 221.11 363.06 227.38 341.32 238.03 319.6 227.38 319.6 221.11 285.06 238.03 292.94 241.88 292.94 275.61 285.06 279.46 319.6 296.38 319.6 254.94 341.32 265.58 363.06 254.94 363.06 296.38 397.59 279.46 389.71 275.61 389.71 241.88"></polygon>
      <path class="cls-6" d="M398.3,239.48l-7,3.4V274.6l7,3.41,2.95,1.45-2.95,1.45-34.53,16.92L361.44,299V257.53L342,267l-.71.35-.71-.35-19.39-9.49V299l-2.32-1.14-34.54-16.92-3-1.46,3-1.45,7-3.4V242.89l-7-3.41-3-1.45,3-1.45,34.54-16.92,2.32.09v6.63l20.1,9.85,20.12-9.85v-7.86l2.33,1.14,34.53,16.92,2.95,1.45Zm-9.3,1,4.92-2.4L364.68,223.7v4.68l-.91.45L342,239.48l-.71.34-.71-.34L318.9,228.83l-.92-.45V223.7L288.74,238l4.91,2.4.91.45v35.74l-.91.45-4.91,2.4L318,293.79V252.35l2.33,1.14,21,10.29,21-10.29,2.33-1.14v41.44l29.24-14.33L389,277.05l-.91-.44V240.88Z"></path>
      <path class="cls-10" d="M385.62,239.32l2.64-1.3c-7.37-3.6-21.1-10.34-21.1-10.34v2.25l-25.84,12.66L315.5,229.94v-2.26L294.39,238l2.64,1.3v38.84l-2.64,1.3,21.1,10.34V248.37S338.3,259.52,341.32,261c3-1.5,25.84-12.65,25.84-12.65V289.8l21.1-10.34-2.64-1.3Z"></path>
      <path class="cls-12" d="M304.11,181.91l-15.51-7.59v23a11.62,11.62,0,0,0-23.24.07h0V174.32l-15.49,7.59-15.49-7.59v23.09a11.63,11.63,0,1,0-23.25,0V174.32l-15.49,7.59-15.51-7.59v38.59H319.6V174.32Z"></path>
      <polygon class="cls-13" points="304.11 181.91 304.11 212.91 319.6 212.91 319.6 174.32 304.11 181.91"></polygon>
      <polygon class="cls-13" points="211.12 174.32 195.63 181.91 195.63 212.91 211.12 212.91 211.12 174.32"></polygon>
      <polygon class="cls-13" points="265.35 174.32 249.86 181.91 249.86 212.91 265.35 212.91 265.35 174.32"></polygon>
      <polygon class="cls-14" points="205.37 212.91 185.88 212.91 195.63 203.15 205.37 212.91"></polygon>
      <polygon class="cls-14" points="313.84 212.91 294.36 212.91 304.11 203.15 313.84 212.91"></polygon>
      <polygon class="cls-14" points="259.6 212.91 240.12 212.91 249.86 203.15 259.6 212.91"></polygon>
      <path class="cls-6" d="M289.31,172.87l14.8,7.24,14.78-7.24,2.33-1.14v42.79H178.5V171.73l2.33,1.14,14.8,7.24,14.78-7.24,2.33-1.14v17c.2-.24.42-.47.64-.69a13.23,13.23,0,0,1,18.73,0c.22.22.43.45.64.68v-17l2.33,1.14,14.78,7.24,14.78-7.24,2.32-1.14v17c.21-.24.43-.48.66-.7a13.22,13.22,0,0,1,18.7,0c.23.23.45.47.66.71v-17Zm14.09,10.48-13.18-6.45v20.44H287V197a10,10,0,0,0-20,.37V199h-3.25V176.9l-13.16,6.45-.71.35-.71-.35L236,176.9v20.51h-3.24a10,10,0,1,0-20,0H209.5V176.9l-13.16,6.45-.71.35-.71-.35-13.18-6.45v34.39H318V176.9l-13.17,6.45-.7.35Z"></path>
      <polygon class="cls-15" points="199.28 203.15 195.63 206.81 191.97 203.15 195.63 199.52 199.28 203.15"></polygon>
      <polygon class="cls-6" points="199.28 203.15 195.63 203.15 195.63 199.52 199.28 203.15"></polygon>
      <polygon class="cls-15" points="226.39 203.15 222.75 206.81 219.09 203.15 222.75 199.52 226.39 203.15"></polygon>
      <polygon class="cls-6" points="226.39 203.15 222.75 203.15 222.75 199.52 226.39 203.15"></polygon>
      <polygon class="cls-15" points="280.64 203.15 276.99 206.81 273.33 203.15 276.99 199.52 280.64 203.15"></polygon>
      <polygon class="cls-6" points="280.64 203.15 276.99 203.15 276.99 199.52 280.64 203.15"></polygon>
      <polygon class="cls-15" points="253.51 203.15 249.86 206.81 246.21 203.15 249.86 199.52 253.51 203.15"></polygon>
      <polygon class="cls-6" points="253.51 203.15 249.86 203.15 249.86 199.52 253.51 203.15"></polygon>
      <polygon class="cls-15" points="307.75 203.15 304.1 206.81 300.45 203.15 304.1 199.52 307.75 203.15"></polygon>
      <polygon class="cls-6" points="307.75 203.15 304.1 203.15 304.1 199.52 307.75 203.15"></polygon>
    </g>
  </g>
</svg>
